G04 #@! TF.FileFunction,Copper,L3,Inr,Plane*
%FSLAX46Y46*%
G04 Gerber Fmt 4.6, Leading zero omitted, Abs format (unit mm)*
G04 Created by KiCad (PCBNEW 4.0.7) date 06/12/18 13:46:56*
%MOMM*%
%LPD*%
G01*
G04 APERTURE LIST*
%ADD10C,0.100000*%
%ADD11C,1.500000*%
%ADD12R,1.524000X1.524000*%
%ADD13C,1.524000*%
%ADD14R,1.600000X1.600000*%
%ADD15C,1.600000*%
%ADD16R,1.400000X1.400000*%
%ADD17C,1.400000*%
%ADD18C,0.762000*%
%ADD19C,0.200000*%
G04 APERTURE END LIST*
D10*
D11*
X44132000Y9167000D03*
X44132000Y16467000D03*
X49432000Y9167000D03*
X49432000Y16467000D03*
D12*
X1260000Y1260000D03*
D13*
X3800000Y1260000D03*
X6340000Y1260000D03*
X8880000Y1260000D03*
X11420000Y1260000D03*
X13960000Y1260000D03*
X16500000Y1260000D03*
X19040000Y1260000D03*
X21580000Y1260000D03*
X24120000Y1260000D03*
X26660000Y1260000D03*
X29200000Y1260000D03*
X31740000Y1260000D03*
X34280000Y1260000D03*
X36820000Y1260000D03*
X39360000Y1260000D03*
X41900000Y1260000D03*
X44440000Y1260000D03*
X46980000Y1260000D03*
X49520000Y1260000D03*
D12*
X1260000Y19040000D03*
D13*
X3800000Y19040000D03*
X6340000Y19040000D03*
X8880000Y19040000D03*
X11420000Y19040000D03*
X13960000Y19040000D03*
X16500000Y19040000D03*
X19040000Y19040000D03*
X21580000Y19040000D03*
X24120000Y19040000D03*
X26660000Y19040000D03*
X29200000Y19040000D03*
X31740000Y19040000D03*
X34280000Y19040000D03*
X36820000Y19040000D03*
X39360000Y19040000D03*
X41900000Y19040000D03*
X44440000Y19040000D03*
X46980000Y19040000D03*
X49520000Y19040000D03*
D14*
X16520000Y16360000D03*
D15*
X13980000Y16360000D03*
X11440000Y16360000D03*
X8900000Y16360000D03*
D16*
X16420000Y4410000D03*
D17*
X14420000Y4410000D03*
D16*
X12570000Y8910000D03*
D17*
X12570000Y10910000D03*
X12570000Y12910000D03*
D18*
X5945000Y4460000D03*
X37200000Y16600000D03*
X7420000Y6310000D03*
X11320000Y11890000D03*
X42195000Y14410000D03*
X36895000Y12435000D03*
X9170000Y9260000D03*
X1320000Y9110000D03*
X30446300Y16382900D03*
X21433100Y10736900D03*
X26301900Y10974600D03*
X32483500Y6200700D03*
X41240900Y4726900D03*
X25120000Y12485000D03*
X19420000Y6060000D03*
X44439300Y5705000D03*
X23220000Y8060000D03*
X20170000Y5385000D03*
X35470000Y16600000D03*
X39060000Y16360000D03*
X41795000Y12435000D03*
X10320000Y6310000D03*
X20157200Y10532000D03*
X17844000Y13785700D03*
X25905900Y14806400D03*
X40186400Y7085700D03*
X42828800Y4716500D03*
X15768700Y6828600D03*
X23958100Y6369100D03*
X34299900Y6242500D03*
X27447200Y7000100D03*
X25538600Y6528200D03*
X29517000Y9222800D03*
X31824200Y11421600D03*
X32275900Y12578800D03*
X26065700Y16262000D03*
X22287600Y16801100D03*
X16236400Y9488500D03*
X34748100Y12943300D03*
X32859100Y14947900D03*
X36128900Y6628100D03*
X42476000Y10579100D03*
X38007200Y7894000D03*
X38007500Y9366200D03*
X2070000Y12260000D03*
D19*
G36*
X50015000Y765000D02*
X48357488Y765000D01*
X48441745Y967914D01*
X48442253Y1549534D01*
X48220146Y2087074D01*
X47809238Y2498700D01*
X47272086Y2721745D01*
X46690466Y2722253D01*
X46152926Y2500146D01*
X45741300Y2089238D01*
X45710199Y2014339D01*
X45680146Y2087074D01*
X45269238Y2498700D01*
X44732086Y2721745D01*
X44150466Y2722253D01*
X43612926Y2500146D01*
X43201300Y2089238D01*
X43170199Y2014339D01*
X43140146Y2087074D01*
X42729238Y2498700D01*
X42192086Y2721745D01*
X41610466Y2722253D01*
X41072926Y2500146D01*
X40661300Y2089238D01*
X40630199Y2014339D01*
X40600146Y2087074D01*
X40189238Y2498700D01*
X39652086Y2721745D01*
X39070466Y2722253D01*
X38532926Y2500146D01*
X38121300Y2089238D01*
X38090199Y2014339D01*
X38060146Y2087074D01*
X37649238Y2498700D01*
X37112086Y2721745D01*
X36530466Y2722253D01*
X35992926Y2500146D01*
X35581300Y2089238D01*
X35550199Y2014339D01*
X35520146Y2087074D01*
X35109238Y2498700D01*
X34572086Y2721745D01*
X33990466Y2722253D01*
X33452926Y2500146D01*
X33041300Y2089238D01*
X33010199Y2014339D01*
X32980146Y2087074D01*
X32569238Y2498700D01*
X32032086Y2721745D01*
X31450466Y2722253D01*
X30912926Y2500146D01*
X30501300Y2089238D01*
X30470199Y2014339D01*
X30440146Y2087074D01*
X30029238Y2498700D01*
X29492086Y2721745D01*
X28910466Y2722253D01*
X28372926Y2500146D01*
X27961300Y2089238D01*
X27930199Y2014339D01*
X27900146Y2087074D01*
X27489238Y2498700D01*
X26952086Y2721745D01*
X26370466Y2722253D01*
X25832926Y2500146D01*
X25421300Y2089238D01*
X25390199Y2014339D01*
X25360146Y2087074D01*
X24949238Y2498700D01*
X24412086Y2721745D01*
X23830466Y2722253D01*
X23292926Y2500146D01*
X22881300Y2089238D01*
X22850199Y2014339D01*
X22820146Y2087074D01*
X22409238Y2498700D01*
X21872086Y2721745D01*
X21290466Y2722253D01*
X20752926Y2500146D01*
X20341300Y2089238D01*
X20310199Y2014339D01*
X20280146Y2087074D01*
X19869238Y2498700D01*
X19332086Y2721745D01*
X18750466Y2722253D01*
X18212926Y2500146D01*
X17801300Y2089238D01*
X17770199Y2014339D01*
X17740146Y2087074D01*
X17329238Y2498700D01*
X16792086Y2721745D01*
X16210466Y2722253D01*
X15672926Y2500146D01*
X15261300Y2089238D01*
X15230199Y2014339D01*
X15200146Y2087074D01*
X14789238Y2498700D01*
X14252086Y2721745D01*
X13670466Y2722253D01*
X13132926Y2500146D01*
X12721300Y2089238D01*
X12690199Y2014339D01*
X12660146Y2087074D01*
X12249238Y2498700D01*
X11712086Y2721745D01*
X11130466Y2722253D01*
X10592926Y2500146D01*
X10181300Y2089238D01*
X10150199Y2014339D01*
X10120146Y2087074D01*
X9709238Y2498700D01*
X9172086Y2721745D01*
X8590466Y2722253D01*
X8052926Y2500146D01*
X7641300Y2089238D01*
X7610199Y2014339D01*
X7580146Y2087074D01*
X7169238Y2498700D01*
X6632086Y2721745D01*
X6050466Y2722253D01*
X5512926Y2500146D01*
X5101300Y2089238D01*
X5070199Y2014339D01*
X5040146Y2087074D01*
X4629238Y2498700D01*
X4092086Y2721745D01*
X3510466Y2722253D01*
X2972926Y2500146D01*
X2697482Y2225182D01*
X2686903Y2281404D01*
X2533595Y2519651D01*
X2299674Y2679482D01*
X2022000Y2735713D01*
X765000Y2735713D01*
X765000Y4245919D01*
X4863813Y4245919D01*
X5028038Y3848463D01*
X5331863Y3544107D01*
X5729032Y3379188D01*
X6159081Y3378813D01*
X6556537Y3543038D01*
X6860893Y3846863D01*
X6979601Y4132744D01*
X13019757Y4132744D01*
X13232445Y3618000D01*
X13625928Y3223830D01*
X14140301Y3010243D01*
X14697256Y3009757D01*
X15212000Y3222445D01*
X15606170Y3615928D01*
X15819757Y4130301D01*
X15820243Y4687256D01*
X15607555Y5202000D01*
X15214072Y5596170D01*
X14699699Y5809757D01*
X14142744Y5810243D01*
X13628000Y5597555D01*
X13233830Y5204072D01*
X13020243Y4689699D01*
X13019757Y4132744D01*
X6979601Y4132744D01*
X7025812Y4244032D01*
X7026187Y4674081D01*
X6861962Y5071537D01*
X6558137Y5375893D01*
X6160968Y5540812D01*
X5730919Y5541187D01*
X5333463Y5376962D01*
X5029107Y5073137D01*
X4864188Y4675968D01*
X4863813Y4245919D01*
X765000Y4245919D01*
X765000Y6095919D01*
X9238813Y6095919D01*
X9403038Y5698463D01*
X9706863Y5394107D01*
X10104032Y5229188D01*
X10534081Y5228813D01*
X10931537Y5393038D01*
X11235893Y5696863D01*
X11400812Y6094032D01*
X11401187Y6524081D01*
X11363819Y6614519D01*
X14687513Y6614519D01*
X14851738Y6217063D01*
X15155563Y5912707D01*
X15552732Y5747788D01*
X15982781Y5747413D01*
X16221184Y5845919D01*
X18338813Y5845919D01*
X18503038Y5448463D01*
X18806863Y5144107D01*
X19160579Y4997231D01*
X19253038Y4773463D01*
X19556863Y4469107D01*
X19954032Y4304188D01*
X20384081Y4303813D01*
X20781537Y4468038D01*
X20815978Y4502419D01*
X41747613Y4502419D01*
X41911838Y4104963D01*
X42215663Y3800607D01*
X42612832Y3635688D01*
X43042881Y3635313D01*
X43440337Y3799538D01*
X43744693Y4103363D01*
X43909612Y4500532D01*
X43909833Y4754364D01*
X44223332Y4624188D01*
X44653381Y4623813D01*
X45050837Y4788038D01*
X45355193Y5091863D01*
X45520112Y5489032D01*
X45520487Y5919081D01*
X45356262Y6316537D01*
X45285767Y6387156D01*
X46514810Y6387156D01*
X46681922Y5982714D01*
X46959365Y5704787D01*
X46683009Y5428913D01*
X46515192Y5024763D01*
X46514810Y4587156D01*
X46681922Y4182714D01*
X46991087Y3873009D01*
X47395237Y3705192D01*
X47832844Y3704810D01*
X48237286Y3871922D01*
X48546991Y4181087D01*
X48714808Y4585237D01*
X48715190Y5022844D01*
X48548078Y5427286D01*
X48270635Y5705213D01*
X48546991Y5981087D01*
X48714808Y6385237D01*
X48715190Y6822844D01*
X48548078Y7227286D01*
X48238913Y7536991D01*
X47834763Y7704808D01*
X47397156Y7705190D01*
X46992714Y7538078D01*
X46683009Y7228913D01*
X46515192Y6824763D01*
X46514810Y6387156D01*
X45285767Y6387156D01*
X45052437Y6620893D01*
X44655268Y6785812D01*
X44225219Y6786187D01*
X43827763Y6621962D01*
X43523407Y6318137D01*
X43358488Y5920968D01*
X43358267Y5667136D01*
X43044768Y5797312D01*
X42614719Y5797687D01*
X42217263Y5633462D01*
X41912907Y5329637D01*
X41747988Y4932468D01*
X41747613Y4502419D01*
X20815978Y4502419D01*
X21085893Y4771863D01*
X21250812Y5169032D01*
X21251187Y5599081D01*
X21086962Y5996537D01*
X20783137Y6300893D01*
X20429421Y6447769D01*
X20336962Y6671537D01*
X20033137Y6975893D01*
X19635968Y7140812D01*
X19205919Y7141187D01*
X18808463Y6976962D01*
X18504107Y6673137D01*
X18339188Y6275968D01*
X18338813Y5845919D01*
X16221184Y5845919D01*
X16380237Y5911638D01*
X16684593Y6215463D01*
X16849512Y6612632D01*
X16849887Y7042681D01*
X16685662Y7440137D01*
X16381837Y7744493D01*
X16137577Y7845919D01*
X22138813Y7845919D01*
X22303038Y7448463D01*
X22606863Y7144107D01*
X23004032Y6979188D01*
X23040928Y6979156D01*
X22877288Y6585068D01*
X22876913Y6155019D01*
X23041138Y5757563D01*
X23344963Y5453207D01*
X23742132Y5288288D01*
X24172181Y5287913D01*
X24569637Y5452138D01*
X24827945Y5709995D01*
X24925463Y5612307D01*
X25322632Y5447388D01*
X25752681Y5447013D01*
X26150137Y5611238D01*
X26454493Y5915063D01*
X26615600Y6303052D01*
X26834063Y6084207D01*
X27231232Y5919288D01*
X27661281Y5918913D01*
X27926306Y6028419D01*
X33218713Y6028419D01*
X33382938Y5630963D01*
X33686763Y5326607D01*
X34083932Y5161688D01*
X34513981Y5161313D01*
X34911437Y5325538D01*
X35215793Y5629363D01*
X35328208Y5900089D01*
X35515763Y5712207D01*
X35912932Y5547288D01*
X36342981Y5546913D01*
X36740437Y5711138D01*
X37044793Y6014963D01*
X37209712Y6412132D01*
X37210087Y6842181D01*
X37045862Y7239637D01*
X36742037Y7543993D01*
X36414691Y7679919D01*
X36926013Y7679919D01*
X37090238Y7282463D01*
X37394063Y6978107D01*
X37791232Y6813188D01*
X38221281Y6812813D01*
X38363602Y6871619D01*
X39105213Y6871619D01*
X39269438Y6474163D01*
X39573263Y6169807D01*
X39970432Y6004888D01*
X40400481Y6004513D01*
X40797937Y6168738D01*
X41102293Y6472563D01*
X41267212Y6869732D01*
X41267587Y7299781D01*
X41103362Y7697237D01*
X40799537Y8001593D01*
X40402368Y8166512D01*
X39972319Y8166887D01*
X39574863Y8002662D01*
X39270507Y7698837D01*
X39105588Y7301668D01*
X39105213Y6871619D01*
X38363602Y6871619D01*
X38618737Y6977038D01*
X38923093Y7280863D01*
X39088012Y7678032D01*
X39088387Y8108081D01*
X38924162Y8505537D01*
X38800015Y8629901D01*
X38923393Y8753063D01*
X39088312Y9150232D01*
X39088687Y9580281D01*
X38924462Y9977737D01*
X38620637Y10282093D01*
X38223468Y10447012D01*
X37793419Y10447387D01*
X37395963Y10283162D01*
X37091607Y9979337D01*
X36926688Y9582168D01*
X36926313Y9152119D01*
X37090538Y8754663D01*
X37214685Y8630299D01*
X37091307Y8507137D01*
X36926388Y8109968D01*
X36926013Y7679919D01*
X36414691Y7679919D01*
X36344868Y7708912D01*
X35914819Y7709287D01*
X35517363Y7545062D01*
X35213007Y7241237D01*
X35100592Y6970511D01*
X34913037Y7158393D01*
X34515868Y7323312D01*
X34085819Y7323687D01*
X33688363Y7159462D01*
X33384007Y6855637D01*
X33219088Y6458468D01*
X33218713Y6028419D01*
X27926306Y6028419D01*
X28058737Y6083138D01*
X28363093Y6386963D01*
X28528012Y6784132D01*
X28528387Y7214181D01*
X28364162Y7611637D01*
X28060337Y7915993D01*
X27663168Y8080912D01*
X27233119Y8081287D01*
X26835663Y7917062D01*
X26531307Y7613237D01*
X26370200Y7225248D01*
X26151737Y7444093D01*
X25754568Y7609012D01*
X25324519Y7609387D01*
X24927063Y7445162D01*
X24668755Y7187305D01*
X24571237Y7284993D01*
X24174068Y7449912D01*
X24137172Y7449944D01*
X24300812Y7844032D01*
X24301187Y8274081D01*
X24136962Y8671537D01*
X23833137Y8975893D01*
X23754084Y9008719D01*
X28435813Y9008719D01*
X28600038Y8611263D01*
X28903863Y8306907D01*
X29301032Y8141988D01*
X29731081Y8141613D01*
X30128537Y8305838D01*
X30432893Y8609663D01*
X30597812Y9006832D01*
X30598187Y9436881D01*
X30433962Y9834337D01*
X30130137Y10138693D01*
X29732968Y10303612D01*
X29302919Y10303987D01*
X28905463Y10139762D01*
X28601107Y9835937D01*
X28436188Y9438768D01*
X28435813Y9008719D01*
X23754084Y9008719D01*
X23435968Y9140812D01*
X23005919Y9141187D01*
X22608463Y8976962D01*
X22304107Y8673137D01*
X22139188Y8275968D01*
X22138813Y7845919D01*
X16137577Y7845919D01*
X15984668Y7909412D01*
X15554619Y7909787D01*
X15157163Y7745562D01*
X14852807Y7441737D01*
X14687888Y7044568D01*
X14687513Y6614519D01*
X11363819Y6614519D01*
X11236962Y6921537D01*
X10933137Y7225893D01*
X10535968Y7390812D01*
X10105919Y7391187D01*
X9708463Y7226962D01*
X9404107Y6923137D01*
X9239188Y6525968D01*
X9238813Y6095919D01*
X765000Y6095919D01*
X765000Y9610000D01*
X11156287Y9610000D01*
X11156287Y8210000D01*
X11205097Y7950596D01*
X11358405Y7712349D01*
X11592326Y7552518D01*
X11870000Y7496287D01*
X13270000Y7496287D01*
X13529404Y7545097D01*
X13767651Y7698405D01*
X13927482Y7932326D01*
X13983713Y8210000D01*
X13983713Y9274419D01*
X15155213Y9274419D01*
X15319438Y8876963D01*
X15623263Y8572607D01*
X16020432Y8407688D01*
X16450481Y8407313D01*
X16847937Y8571538D01*
X17152293Y8875363D01*
X17317212Y9272532D01*
X17317587Y9702581D01*
X17153362Y10100037D01*
X16935861Y10317919D01*
X19076013Y10317919D01*
X19240238Y9920463D01*
X19544063Y9616107D01*
X19941232Y9451188D01*
X20371281Y9450813D01*
X20768737Y9615038D01*
X21073093Y9918863D01*
X21238012Y10316032D01*
X21238387Y10746081D01*
X21074162Y11143537D01*
X21010292Y11207519D01*
X30743013Y11207519D01*
X30907238Y10810063D01*
X31211063Y10505707D01*
X31608232Y10340788D01*
X32038281Y10340413D01*
X32435737Y10504638D01*
X32740093Y10808463D01*
X32905012Y11205632D01*
X32905387Y11635681D01*
X32892494Y11666886D01*
X33191793Y11965663D01*
X33356712Y12362832D01*
X33357031Y12729219D01*
X33666913Y12729219D01*
X33831138Y12331763D01*
X34134963Y12027407D01*
X34532132Y11862488D01*
X34962181Y11862113D01*
X35359637Y12026338D01*
X35554558Y12220919D01*
X40713813Y12220919D01*
X40878038Y11823463D01*
X41181863Y11519107D01*
X41579032Y11354188D01*
X41722216Y11354063D01*
X41560107Y11192237D01*
X41395188Y10795068D01*
X41394813Y10365019D01*
X41559038Y9967563D01*
X41862863Y9663207D01*
X42260032Y9498288D01*
X42690081Y9497913D01*
X43087537Y9662138D01*
X43391893Y9965963D01*
X43556812Y10363132D01*
X43557187Y10793181D01*
X43538151Y10839254D01*
X44981801Y10839254D01*
X45156509Y10416428D01*
X45479727Y10092646D01*
X45902247Y9917200D01*
X46359746Y9916801D01*
X46782572Y10091509D01*
X47106354Y10414727D01*
X47281800Y10837247D01*
X47282199Y11294746D01*
X47107491Y11717572D01*
X46784273Y12041354D01*
X46361753Y12216800D01*
X45904254Y12217199D01*
X45481428Y12042491D01*
X45157646Y11719273D01*
X44982200Y11296753D01*
X44981801Y10839254D01*
X43538151Y10839254D01*
X43392962Y11190637D01*
X43089137Y11494993D01*
X42691968Y11659912D01*
X42548784Y11660037D01*
X42710893Y11821863D01*
X42875812Y12219032D01*
X42876187Y12649081D01*
X42711962Y13046537D01*
X42408137Y13350893D01*
X42010968Y13515812D01*
X41580919Y13516187D01*
X41183463Y13351962D01*
X40879107Y13048137D01*
X40714188Y12650968D01*
X40713813Y12220919D01*
X35554558Y12220919D01*
X35663993Y12330163D01*
X35828912Y12727332D01*
X35829287Y13157381D01*
X35665062Y13554837D01*
X35361237Y13859193D01*
X34964068Y14024112D01*
X34534019Y14024487D01*
X34136563Y13860262D01*
X33832207Y13556437D01*
X33667288Y13159268D01*
X33666913Y12729219D01*
X33357031Y12729219D01*
X33357087Y12792881D01*
X33192862Y13190337D01*
X32889037Y13494693D01*
X32491868Y13659612D01*
X32061819Y13659987D01*
X31664363Y13495762D01*
X31360007Y13191937D01*
X31195088Y12794768D01*
X31194713Y12364719D01*
X31207606Y12333514D01*
X30908307Y12034737D01*
X30743388Y11637568D01*
X30743013Y11207519D01*
X21010292Y11207519D01*
X20770337Y11447893D01*
X20373168Y11612812D01*
X19943119Y11613187D01*
X19545663Y11448962D01*
X19241307Y11145137D01*
X19076388Y10747968D01*
X19076013Y10317919D01*
X16935861Y10317919D01*
X16849537Y10404393D01*
X16452368Y10569312D01*
X16022319Y10569687D01*
X15624863Y10405462D01*
X15320507Y10101637D01*
X15155588Y9704468D01*
X15155213Y9274419D01*
X13983713Y9274419D01*
X13983713Y9610000D01*
X13934903Y9869404D01*
X13781595Y10107651D01*
X13759112Y10123013D01*
X13969757Y10630301D01*
X13970243Y11187256D01*
X13757555Y11702000D01*
X13549900Y11910018D01*
X13756170Y12115928D01*
X13820528Y12270919D01*
X24038813Y12270919D01*
X24203038Y11873463D01*
X24506863Y11569107D01*
X24904032Y11404188D01*
X25334081Y11403813D01*
X25731537Y11568038D01*
X26035893Y11871863D01*
X26200812Y12269032D01*
X26201187Y12699081D01*
X26036962Y13096537D01*
X25733137Y13400893D01*
X25335968Y13565812D01*
X24905919Y13566187D01*
X24508463Y13401962D01*
X24204107Y13098137D01*
X24039188Y12700968D01*
X24038813Y12270919D01*
X13820528Y12270919D01*
X13969757Y12630301D01*
X13970243Y13187256D01*
X13811428Y13571619D01*
X16762813Y13571619D01*
X16927038Y13174163D01*
X17230863Y12869807D01*
X17628032Y12704888D01*
X18058081Y12704513D01*
X18455537Y12868738D01*
X18759893Y13172563D01*
X18924812Y13569732D01*
X18925187Y13999781D01*
X18760962Y14397237D01*
X18566221Y14592319D01*
X24824713Y14592319D01*
X24988938Y14194863D01*
X25292763Y13890507D01*
X25689932Y13725588D01*
X26119981Y13725213D01*
X26517437Y13889438D01*
X26821793Y14193263D01*
X26986712Y14590432D01*
X26986837Y14733819D01*
X31777913Y14733819D01*
X31942138Y14336363D01*
X32245963Y14032007D01*
X32643132Y13867088D01*
X33073181Y13866713D01*
X33470637Y14030938D01*
X33774993Y14334763D01*
X33776857Y14339254D01*
X44981801Y14339254D01*
X45156509Y13916428D01*
X45479727Y13592646D01*
X45902247Y13417200D01*
X46359746Y13416801D01*
X46782572Y13591509D01*
X47106354Y13914727D01*
X47281800Y14337247D01*
X47282199Y14794746D01*
X47107491Y15217572D01*
X46784273Y15541354D01*
X46361753Y15716800D01*
X45904254Y15717199D01*
X45481428Y15542491D01*
X45157646Y15219273D01*
X44982200Y14796753D01*
X44981801Y14339254D01*
X33776857Y14339254D01*
X33939912Y14731932D01*
X33940287Y15161981D01*
X33776062Y15559437D01*
X33472237Y15863793D01*
X33075068Y16028712D01*
X32645019Y16029087D01*
X32247563Y15864862D01*
X31943207Y15561037D01*
X31778288Y15163868D01*
X31777913Y14733819D01*
X26986837Y14733819D01*
X26987087Y15020481D01*
X26822862Y15417937D01*
X26786626Y15454236D01*
X26981593Y15648863D01*
X27146512Y16046032D01*
X27146808Y16385919D01*
X34388813Y16385919D01*
X34553038Y15988463D01*
X34856863Y15684107D01*
X35254032Y15519188D01*
X35684081Y15518813D01*
X36081537Y15683038D01*
X36385893Y15986863D01*
X36451938Y16145919D01*
X37978813Y16145919D01*
X38143038Y15748463D01*
X38446863Y15444107D01*
X38844032Y15279188D01*
X39274081Y15278813D01*
X39671537Y15443038D01*
X39975893Y15746863D01*
X40140812Y16144032D01*
X40141187Y16574081D01*
X39976962Y16971537D01*
X39673137Y17275893D01*
X39275968Y17440812D01*
X38845919Y17441187D01*
X38448463Y17276962D01*
X38144107Y16973137D01*
X37979188Y16575968D01*
X37978813Y16145919D01*
X36451938Y16145919D01*
X36550812Y16384032D01*
X36551187Y16814081D01*
X36386962Y17211537D01*
X36083137Y17515893D01*
X35685968Y17680812D01*
X35255919Y17681187D01*
X34858463Y17516962D01*
X34554107Y17213137D01*
X34389188Y16815968D01*
X34388813Y16385919D01*
X27146808Y16385919D01*
X27146887Y16476081D01*
X26982662Y16873537D01*
X26678837Y17177893D01*
X26281668Y17342812D01*
X25851619Y17343187D01*
X25454163Y17178962D01*
X25149807Y16875137D01*
X24984888Y16477968D01*
X24984513Y16047919D01*
X25148738Y15650463D01*
X25184974Y15614164D01*
X24990007Y15419537D01*
X24825088Y15022368D01*
X24824713Y14592319D01*
X18566221Y14592319D01*
X18457137Y14701593D01*
X18059968Y14866512D01*
X17629919Y14866887D01*
X17232463Y14702662D01*
X16928107Y14398837D01*
X16763188Y14001668D01*
X16762813Y13571619D01*
X13811428Y13571619D01*
X13757555Y13702000D01*
X13364072Y14096170D01*
X12849699Y14309757D01*
X12292744Y14310243D01*
X11778000Y14097555D01*
X11383830Y13704072D01*
X11170243Y13189699D01*
X11169757Y12632744D01*
X11382445Y12118000D01*
X11590100Y11909982D01*
X11383830Y11704072D01*
X11170243Y11189699D01*
X11169757Y10632744D01*
X11379151Y10125972D01*
X11372349Y10121595D01*
X11212518Y9887674D01*
X11156287Y9610000D01*
X765000Y9610000D01*
X765000Y12045919D01*
X988813Y12045919D01*
X1153038Y11648463D01*
X1456863Y11344107D01*
X1854032Y11179188D01*
X2284081Y11178813D01*
X2681537Y11343038D01*
X2985893Y11646863D01*
X3150812Y12044032D01*
X3151187Y12474081D01*
X2986962Y12871537D01*
X2683137Y13175893D01*
X2285968Y13340812D01*
X1855919Y13341187D01*
X1458463Y13176962D01*
X1154107Y12873137D01*
X989188Y12475968D01*
X988813Y12045919D01*
X765000Y12045919D01*
X765000Y17564287D01*
X2022000Y17564287D01*
X2281404Y17613097D01*
X2519651Y17766405D01*
X2679482Y18000326D01*
X2695099Y18077445D01*
X2970762Y17801300D01*
X3507914Y17578255D01*
X4089534Y17577747D01*
X4627074Y17799854D01*
X5038700Y18210762D01*
X5069801Y18285661D01*
X5099854Y18212926D01*
X5510762Y17801300D01*
X6047914Y17578255D01*
X6629534Y17577747D01*
X7167074Y17799854D01*
X7578700Y18210762D01*
X7609801Y18285661D01*
X7639854Y18212926D01*
X8050762Y17801300D01*
X8254999Y17716494D01*
X8051428Y17632380D01*
X7629103Y17210791D01*
X7400261Y16659677D01*
X7399740Y16062941D01*
X7627620Y15511428D01*
X8049209Y15089103D01*
X8600323Y14860261D01*
X9197059Y14859740D01*
X9748572Y15087620D01*
X10170365Y15508678D01*
X10589209Y15089103D01*
X11140323Y14860261D01*
X11737059Y14859740D01*
X12288572Y15087620D01*
X12710897Y15509209D01*
X12939739Y16060323D01*
X12940260Y16657059D01*
X12712380Y17208572D01*
X12290791Y17630897D01*
X12065037Y17724638D01*
X12247074Y17799854D01*
X12658700Y18210762D01*
X12689801Y18285661D01*
X12719854Y18212926D01*
X13130762Y17801300D01*
X13667914Y17578255D01*
X14249534Y17577747D01*
X14787074Y17799854D01*
X15198700Y18210762D01*
X15229801Y18285661D01*
X15259854Y18212926D01*
X15617692Y17854463D01*
X15460596Y17824903D01*
X15222349Y17671595D01*
X15062518Y17437674D01*
X15006287Y17160000D01*
X15006287Y15560000D01*
X15055097Y15300596D01*
X15208405Y15062349D01*
X15442326Y14902518D01*
X15720000Y14846287D01*
X17320000Y14846287D01*
X17579404Y14895097D01*
X17817651Y15048405D01*
X17977482Y15282326D01*
X18033713Y15560000D01*
X18033713Y17160000D01*
X17984903Y17419404D01*
X17831595Y17657651D01*
X17597674Y17817482D01*
X17387391Y17860066D01*
X17738700Y18210762D01*
X17769801Y18285661D01*
X17799854Y18212926D01*
X18210762Y17801300D01*
X18747914Y17578255D01*
X19329534Y17577747D01*
X19867074Y17799854D01*
X20278700Y18210762D01*
X20309801Y18285661D01*
X20339854Y18212926D01*
X20750762Y17801300D01*
X21287914Y17578255D01*
X21535795Y17578038D01*
X21371707Y17414237D01*
X21206788Y17017068D01*
X21206413Y16587019D01*
X21370638Y16189563D01*
X21674463Y15885207D01*
X22071632Y15720288D01*
X22501681Y15719913D01*
X22899137Y15884138D01*
X23203493Y16187963D01*
X23368412Y16585132D01*
X23368787Y17015181D01*
X23204562Y17412637D01*
X22900737Y17716993D01*
X22503568Y17881912D01*
X22489288Y17881924D01*
X22818700Y18210762D01*
X22849801Y18285661D01*
X22879854Y18212926D01*
X23290762Y17801300D01*
X23827914Y17578255D01*
X24409534Y17577747D01*
X24947074Y17799854D01*
X25358700Y18210762D01*
X25389801Y18285661D01*
X25419854Y18212926D01*
X25830762Y17801300D01*
X26367914Y17578255D01*
X26949534Y17577747D01*
X27487074Y17799854D01*
X27898700Y18210762D01*
X27929801Y18285661D01*
X27959854Y18212926D01*
X28370762Y17801300D01*
X28907914Y17578255D01*
X29489534Y17577747D01*
X30027074Y17799854D01*
X30438700Y18210762D01*
X30469801Y18285661D01*
X30499854Y18212926D01*
X30910762Y17801300D01*
X31447914Y17578255D01*
X32029534Y17577747D01*
X32567074Y17799854D01*
X32978700Y18210762D01*
X33009801Y18285661D01*
X33039854Y18212926D01*
X33450762Y17801300D01*
X33987914Y17578255D01*
X34569534Y17577747D01*
X35107074Y17799854D01*
X35518700Y18210762D01*
X35549801Y18285661D01*
X35579854Y18212926D01*
X35990762Y17801300D01*
X36527914Y17578255D01*
X37109534Y17577747D01*
X37647074Y17799854D01*
X38058700Y18210762D01*
X38089801Y18285661D01*
X38119854Y18212926D01*
X38530762Y17801300D01*
X39067914Y17578255D01*
X39649534Y17577747D01*
X40187074Y17799854D01*
X40598700Y18210762D01*
X40629801Y18285661D01*
X40659854Y18212926D01*
X41070762Y17801300D01*
X41607914Y17578255D01*
X42189534Y17577747D01*
X42727074Y17799854D01*
X43138700Y18210762D01*
X43169801Y18285661D01*
X43199854Y18212926D01*
X43610762Y17801300D01*
X44147914Y17578255D01*
X44729534Y17577747D01*
X45267074Y17799854D01*
X45678700Y18210762D01*
X45709801Y18285661D01*
X45739854Y18212926D01*
X46150762Y17801300D01*
X46687914Y17578255D01*
X47269534Y17577747D01*
X47807074Y17799854D01*
X48218700Y18210762D01*
X48441745Y18747914D01*
X48442253Y19329534D01*
X48357356Y19535000D01*
X50015000Y19535000D01*
X50015000Y765000D01*
X50015000Y765000D01*
G37*
X50015000Y765000D02*
X48357488Y765000D01*
X48441745Y967914D01*
X48442253Y1549534D01*
X48220146Y2087074D01*
X47809238Y2498700D01*
X47272086Y2721745D01*
X46690466Y2722253D01*
X46152926Y2500146D01*
X45741300Y2089238D01*
X45710199Y2014339D01*
X45680146Y2087074D01*
X45269238Y2498700D01*
X44732086Y2721745D01*
X44150466Y2722253D01*
X43612926Y2500146D01*
X43201300Y2089238D01*
X43170199Y2014339D01*
X43140146Y2087074D01*
X42729238Y2498700D01*
X42192086Y2721745D01*
X41610466Y2722253D01*
X41072926Y2500146D01*
X40661300Y2089238D01*
X40630199Y2014339D01*
X40600146Y2087074D01*
X40189238Y2498700D01*
X39652086Y2721745D01*
X39070466Y2722253D01*
X38532926Y2500146D01*
X38121300Y2089238D01*
X38090199Y2014339D01*
X38060146Y2087074D01*
X37649238Y2498700D01*
X37112086Y2721745D01*
X36530466Y2722253D01*
X35992926Y2500146D01*
X35581300Y2089238D01*
X35550199Y2014339D01*
X35520146Y2087074D01*
X35109238Y2498700D01*
X34572086Y2721745D01*
X33990466Y2722253D01*
X33452926Y2500146D01*
X33041300Y2089238D01*
X33010199Y2014339D01*
X32980146Y2087074D01*
X32569238Y2498700D01*
X32032086Y2721745D01*
X31450466Y2722253D01*
X30912926Y2500146D01*
X30501300Y2089238D01*
X30470199Y2014339D01*
X30440146Y2087074D01*
X30029238Y2498700D01*
X29492086Y2721745D01*
X28910466Y2722253D01*
X28372926Y2500146D01*
X27961300Y2089238D01*
X27930199Y2014339D01*
X27900146Y2087074D01*
X27489238Y2498700D01*
X26952086Y2721745D01*
X26370466Y2722253D01*
X25832926Y2500146D01*
X25421300Y2089238D01*
X25390199Y2014339D01*
X25360146Y2087074D01*
X24949238Y2498700D01*
X24412086Y2721745D01*
X23830466Y2722253D01*
X23292926Y2500146D01*
X22881300Y2089238D01*
X22850199Y2014339D01*
X22820146Y2087074D01*
X22409238Y2498700D01*
X21872086Y2721745D01*
X21290466Y2722253D01*
X20752926Y2500146D01*
X20341300Y2089238D01*
X20310199Y2014339D01*
X20280146Y2087074D01*
X19869238Y2498700D01*
X19332086Y2721745D01*
X18750466Y2722253D01*
X18212926Y2500146D01*
X17801300Y2089238D01*
X17770199Y2014339D01*
X17740146Y2087074D01*
X17329238Y2498700D01*
X16792086Y2721745D01*
X16210466Y2722253D01*
X15672926Y2500146D01*
X15261300Y2089238D01*
X15230199Y2014339D01*
X15200146Y2087074D01*
X14789238Y2498700D01*
X14252086Y2721745D01*
X13670466Y2722253D01*
X13132926Y2500146D01*
X12721300Y2089238D01*
X12690199Y2014339D01*
X12660146Y2087074D01*
X12249238Y2498700D01*
X11712086Y2721745D01*
X11130466Y2722253D01*
X10592926Y2500146D01*
X10181300Y2089238D01*
X10150199Y2014339D01*
X10120146Y2087074D01*
X9709238Y2498700D01*
X9172086Y2721745D01*
X8590466Y2722253D01*
X8052926Y2500146D01*
X7641300Y2089238D01*
X7610199Y2014339D01*
X7580146Y2087074D01*
X7169238Y2498700D01*
X6632086Y2721745D01*
X6050466Y2722253D01*
X5512926Y2500146D01*
X5101300Y2089238D01*
X5070199Y2014339D01*
X5040146Y2087074D01*
X4629238Y2498700D01*
X4092086Y2721745D01*
X3510466Y2722253D01*
X2972926Y2500146D01*
X2697482Y2225182D01*
X2686903Y2281404D01*
X2533595Y2519651D01*
X2299674Y2679482D01*
X2022000Y2735713D01*
X765000Y2735713D01*
X765000Y4245919D01*
X4863813Y4245919D01*
X5028038Y3848463D01*
X5331863Y3544107D01*
X5729032Y3379188D01*
X6159081Y3378813D01*
X6556537Y3543038D01*
X6860893Y3846863D01*
X6979601Y4132744D01*
X13019757Y4132744D01*
X13232445Y3618000D01*
X13625928Y3223830D01*
X14140301Y3010243D01*
X14697256Y3009757D01*
X15212000Y3222445D01*
X15606170Y3615928D01*
X15819757Y4130301D01*
X15820243Y4687256D01*
X15607555Y5202000D01*
X15214072Y5596170D01*
X14699699Y5809757D01*
X14142744Y5810243D01*
X13628000Y5597555D01*
X13233830Y5204072D01*
X13020243Y4689699D01*
X13019757Y4132744D01*
X6979601Y4132744D01*
X7025812Y4244032D01*
X7026187Y4674081D01*
X6861962Y5071537D01*
X6558137Y5375893D01*
X6160968Y5540812D01*
X5730919Y5541187D01*
X5333463Y5376962D01*
X5029107Y5073137D01*
X4864188Y4675968D01*
X4863813Y4245919D01*
X765000Y4245919D01*
X765000Y6095919D01*
X9238813Y6095919D01*
X9403038Y5698463D01*
X9706863Y5394107D01*
X10104032Y5229188D01*
X10534081Y5228813D01*
X10931537Y5393038D01*
X11235893Y5696863D01*
X11400812Y6094032D01*
X11401187Y6524081D01*
X11363819Y6614519D01*
X14687513Y6614519D01*
X14851738Y6217063D01*
X15155563Y5912707D01*
X15552732Y5747788D01*
X15982781Y5747413D01*
X16221184Y5845919D01*
X18338813Y5845919D01*
X18503038Y5448463D01*
X18806863Y5144107D01*
X19160579Y4997231D01*
X19253038Y4773463D01*
X19556863Y4469107D01*
X19954032Y4304188D01*
X20384081Y4303813D01*
X20781537Y4468038D01*
X20815978Y4502419D01*
X41747613Y4502419D01*
X41911838Y4104963D01*
X42215663Y3800607D01*
X42612832Y3635688D01*
X43042881Y3635313D01*
X43440337Y3799538D01*
X43744693Y4103363D01*
X43909612Y4500532D01*
X43909833Y4754364D01*
X44223332Y4624188D01*
X44653381Y4623813D01*
X45050837Y4788038D01*
X45355193Y5091863D01*
X45520112Y5489032D01*
X45520487Y5919081D01*
X45356262Y6316537D01*
X45285767Y6387156D01*
X46514810Y6387156D01*
X46681922Y5982714D01*
X46959365Y5704787D01*
X46683009Y5428913D01*
X46515192Y5024763D01*
X46514810Y4587156D01*
X46681922Y4182714D01*
X46991087Y3873009D01*
X47395237Y3705192D01*
X47832844Y3704810D01*
X48237286Y3871922D01*
X48546991Y4181087D01*
X48714808Y4585237D01*
X48715190Y5022844D01*
X48548078Y5427286D01*
X48270635Y5705213D01*
X48546991Y5981087D01*
X48714808Y6385237D01*
X48715190Y6822844D01*
X48548078Y7227286D01*
X48238913Y7536991D01*
X47834763Y7704808D01*
X47397156Y7705190D01*
X46992714Y7538078D01*
X46683009Y7228913D01*
X46515192Y6824763D01*
X46514810Y6387156D01*
X45285767Y6387156D01*
X45052437Y6620893D01*
X44655268Y6785812D01*
X44225219Y6786187D01*
X43827763Y6621962D01*
X43523407Y6318137D01*
X43358488Y5920968D01*
X43358267Y5667136D01*
X43044768Y5797312D01*
X42614719Y5797687D01*
X42217263Y5633462D01*
X41912907Y5329637D01*
X41747988Y4932468D01*
X41747613Y4502419D01*
X20815978Y4502419D01*
X21085893Y4771863D01*
X21250812Y5169032D01*
X21251187Y5599081D01*
X21086962Y5996537D01*
X20783137Y6300893D01*
X20429421Y6447769D01*
X20336962Y6671537D01*
X20033137Y6975893D01*
X19635968Y7140812D01*
X19205919Y7141187D01*
X18808463Y6976962D01*
X18504107Y6673137D01*
X18339188Y6275968D01*
X18338813Y5845919D01*
X16221184Y5845919D01*
X16380237Y5911638D01*
X16684593Y6215463D01*
X16849512Y6612632D01*
X16849887Y7042681D01*
X16685662Y7440137D01*
X16381837Y7744493D01*
X16137577Y7845919D01*
X22138813Y7845919D01*
X22303038Y7448463D01*
X22606863Y7144107D01*
X23004032Y6979188D01*
X23040928Y6979156D01*
X22877288Y6585068D01*
X22876913Y6155019D01*
X23041138Y5757563D01*
X23344963Y5453207D01*
X23742132Y5288288D01*
X24172181Y5287913D01*
X24569637Y5452138D01*
X24827945Y5709995D01*
X24925463Y5612307D01*
X25322632Y5447388D01*
X25752681Y5447013D01*
X26150137Y5611238D01*
X26454493Y5915063D01*
X26615600Y6303052D01*
X26834063Y6084207D01*
X27231232Y5919288D01*
X27661281Y5918913D01*
X27926306Y6028419D01*
X33218713Y6028419D01*
X33382938Y5630963D01*
X33686763Y5326607D01*
X34083932Y5161688D01*
X34513981Y5161313D01*
X34911437Y5325538D01*
X35215793Y5629363D01*
X35328208Y5900089D01*
X35515763Y5712207D01*
X35912932Y5547288D01*
X36342981Y5546913D01*
X36740437Y5711138D01*
X37044793Y6014963D01*
X37209712Y6412132D01*
X37210087Y6842181D01*
X37045862Y7239637D01*
X36742037Y7543993D01*
X36414691Y7679919D01*
X36926013Y7679919D01*
X37090238Y7282463D01*
X37394063Y6978107D01*
X37791232Y6813188D01*
X38221281Y6812813D01*
X38363602Y6871619D01*
X39105213Y6871619D01*
X39269438Y6474163D01*
X39573263Y6169807D01*
X39970432Y6004888D01*
X40400481Y6004513D01*
X40797937Y6168738D01*
X41102293Y6472563D01*
X41267212Y6869732D01*
X41267587Y7299781D01*
X41103362Y7697237D01*
X40799537Y8001593D01*
X40402368Y8166512D01*
X39972319Y8166887D01*
X39574863Y8002662D01*
X39270507Y7698837D01*
X39105588Y7301668D01*
X39105213Y6871619D01*
X38363602Y6871619D01*
X38618737Y6977038D01*
X38923093Y7280863D01*
X39088012Y7678032D01*
X39088387Y8108081D01*
X38924162Y8505537D01*
X38800015Y8629901D01*
X38923393Y8753063D01*
X39088312Y9150232D01*
X39088687Y9580281D01*
X38924462Y9977737D01*
X38620637Y10282093D01*
X38223468Y10447012D01*
X37793419Y10447387D01*
X37395963Y10283162D01*
X37091607Y9979337D01*
X36926688Y9582168D01*
X36926313Y9152119D01*
X37090538Y8754663D01*
X37214685Y8630299D01*
X37091307Y8507137D01*
X36926388Y8109968D01*
X36926013Y7679919D01*
X36414691Y7679919D01*
X36344868Y7708912D01*
X35914819Y7709287D01*
X35517363Y7545062D01*
X35213007Y7241237D01*
X35100592Y6970511D01*
X34913037Y7158393D01*
X34515868Y7323312D01*
X34085819Y7323687D01*
X33688363Y7159462D01*
X33384007Y6855637D01*
X33219088Y6458468D01*
X33218713Y6028419D01*
X27926306Y6028419D01*
X28058737Y6083138D01*
X28363093Y6386963D01*
X28528012Y6784132D01*
X28528387Y7214181D01*
X28364162Y7611637D01*
X28060337Y7915993D01*
X27663168Y8080912D01*
X27233119Y8081287D01*
X26835663Y7917062D01*
X26531307Y7613237D01*
X26370200Y7225248D01*
X26151737Y7444093D01*
X25754568Y7609012D01*
X25324519Y7609387D01*
X24927063Y7445162D01*
X24668755Y7187305D01*
X24571237Y7284993D01*
X24174068Y7449912D01*
X24137172Y7449944D01*
X24300812Y7844032D01*
X24301187Y8274081D01*
X24136962Y8671537D01*
X23833137Y8975893D01*
X23754084Y9008719D01*
X28435813Y9008719D01*
X28600038Y8611263D01*
X28903863Y8306907D01*
X29301032Y8141988D01*
X29731081Y8141613D01*
X30128537Y8305838D01*
X30432893Y8609663D01*
X30597812Y9006832D01*
X30598187Y9436881D01*
X30433962Y9834337D01*
X30130137Y10138693D01*
X29732968Y10303612D01*
X29302919Y10303987D01*
X28905463Y10139762D01*
X28601107Y9835937D01*
X28436188Y9438768D01*
X28435813Y9008719D01*
X23754084Y9008719D01*
X23435968Y9140812D01*
X23005919Y9141187D01*
X22608463Y8976962D01*
X22304107Y8673137D01*
X22139188Y8275968D01*
X22138813Y7845919D01*
X16137577Y7845919D01*
X15984668Y7909412D01*
X15554619Y7909787D01*
X15157163Y7745562D01*
X14852807Y7441737D01*
X14687888Y7044568D01*
X14687513Y6614519D01*
X11363819Y6614519D01*
X11236962Y6921537D01*
X10933137Y7225893D01*
X10535968Y7390812D01*
X10105919Y7391187D01*
X9708463Y7226962D01*
X9404107Y6923137D01*
X9239188Y6525968D01*
X9238813Y6095919D01*
X765000Y6095919D01*
X765000Y9610000D01*
X11156287Y9610000D01*
X11156287Y8210000D01*
X11205097Y7950596D01*
X11358405Y7712349D01*
X11592326Y7552518D01*
X11870000Y7496287D01*
X13270000Y7496287D01*
X13529404Y7545097D01*
X13767651Y7698405D01*
X13927482Y7932326D01*
X13983713Y8210000D01*
X13983713Y9274419D01*
X15155213Y9274419D01*
X15319438Y8876963D01*
X15623263Y8572607D01*
X16020432Y8407688D01*
X16450481Y8407313D01*
X16847937Y8571538D01*
X17152293Y8875363D01*
X17317212Y9272532D01*
X17317587Y9702581D01*
X17153362Y10100037D01*
X16935861Y10317919D01*
X19076013Y10317919D01*
X19240238Y9920463D01*
X19544063Y9616107D01*
X19941232Y9451188D01*
X20371281Y9450813D01*
X20768737Y9615038D01*
X21073093Y9918863D01*
X21238012Y10316032D01*
X21238387Y10746081D01*
X21074162Y11143537D01*
X21010292Y11207519D01*
X30743013Y11207519D01*
X30907238Y10810063D01*
X31211063Y10505707D01*
X31608232Y10340788D01*
X32038281Y10340413D01*
X32435737Y10504638D01*
X32740093Y10808463D01*
X32905012Y11205632D01*
X32905387Y11635681D01*
X32892494Y11666886D01*
X33191793Y11965663D01*
X33356712Y12362832D01*
X33357031Y12729219D01*
X33666913Y12729219D01*
X33831138Y12331763D01*
X34134963Y12027407D01*
X34532132Y11862488D01*
X34962181Y11862113D01*
X35359637Y12026338D01*
X35554558Y12220919D01*
X40713813Y12220919D01*
X40878038Y11823463D01*
X41181863Y11519107D01*
X41579032Y11354188D01*
X41722216Y11354063D01*
X41560107Y11192237D01*
X41395188Y10795068D01*
X41394813Y10365019D01*
X41559038Y9967563D01*
X41862863Y9663207D01*
X42260032Y9498288D01*
X42690081Y9497913D01*
X43087537Y9662138D01*
X43391893Y9965963D01*
X43556812Y10363132D01*
X43557187Y10793181D01*
X43538151Y10839254D01*
X44981801Y10839254D01*
X45156509Y10416428D01*
X45479727Y10092646D01*
X45902247Y9917200D01*
X46359746Y9916801D01*
X46782572Y10091509D01*
X47106354Y10414727D01*
X47281800Y10837247D01*
X47282199Y11294746D01*
X47107491Y11717572D01*
X46784273Y12041354D01*
X46361753Y12216800D01*
X45904254Y12217199D01*
X45481428Y12042491D01*
X45157646Y11719273D01*
X44982200Y11296753D01*
X44981801Y10839254D01*
X43538151Y10839254D01*
X43392962Y11190637D01*
X43089137Y11494993D01*
X42691968Y11659912D01*
X42548784Y11660037D01*
X42710893Y11821863D01*
X42875812Y12219032D01*
X42876187Y12649081D01*
X42711962Y13046537D01*
X42408137Y13350893D01*
X42010968Y13515812D01*
X41580919Y13516187D01*
X41183463Y13351962D01*
X40879107Y13048137D01*
X40714188Y12650968D01*
X40713813Y12220919D01*
X35554558Y12220919D01*
X35663993Y12330163D01*
X35828912Y12727332D01*
X35829287Y13157381D01*
X35665062Y13554837D01*
X35361237Y13859193D01*
X34964068Y14024112D01*
X34534019Y14024487D01*
X34136563Y13860262D01*
X33832207Y13556437D01*
X33667288Y13159268D01*
X33666913Y12729219D01*
X33357031Y12729219D01*
X33357087Y12792881D01*
X33192862Y13190337D01*
X32889037Y13494693D01*
X32491868Y13659612D01*
X32061819Y13659987D01*
X31664363Y13495762D01*
X31360007Y13191937D01*
X31195088Y12794768D01*
X31194713Y12364719D01*
X31207606Y12333514D01*
X30908307Y12034737D01*
X30743388Y11637568D01*
X30743013Y11207519D01*
X21010292Y11207519D01*
X20770337Y11447893D01*
X20373168Y11612812D01*
X19943119Y11613187D01*
X19545663Y11448962D01*
X19241307Y11145137D01*
X19076388Y10747968D01*
X19076013Y10317919D01*
X16935861Y10317919D01*
X16849537Y10404393D01*
X16452368Y10569312D01*
X16022319Y10569687D01*
X15624863Y10405462D01*
X15320507Y10101637D01*
X15155588Y9704468D01*
X15155213Y9274419D01*
X13983713Y9274419D01*
X13983713Y9610000D01*
X13934903Y9869404D01*
X13781595Y10107651D01*
X13759112Y10123013D01*
X13969757Y10630301D01*
X13970243Y11187256D01*
X13757555Y11702000D01*
X13549900Y11910018D01*
X13756170Y12115928D01*
X13820528Y12270919D01*
X24038813Y12270919D01*
X24203038Y11873463D01*
X24506863Y11569107D01*
X24904032Y11404188D01*
X25334081Y11403813D01*
X25731537Y11568038D01*
X26035893Y11871863D01*
X26200812Y12269032D01*
X26201187Y12699081D01*
X26036962Y13096537D01*
X25733137Y13400893D01*
X25335968Y13565812D01*
X24905919Y13566187D01*
X24508463Y13401962D01*
X24204107Y13098137D01*
X24039188Y12700968D01*
X24038813Y12270919D01*
X13820528Y12270919D01*
X13969757Y12630301D01*
X13970243Y13187256D01*
X13811428Y13571619D01*
X16762813Y13571619D01*
X16927038Y13174163D01*
X17230863Y12869807D01*
X17628032Y12704888D01*
X18058081Y12704513D01*
X18455537Y12868738D01*
X18759893Y13172563D01*
X18924812Y13569732D01*
X18925187Y13999781D01*
X18760962Y14397237D01*
X18566221Y14592319D01*
X24824713Y14592319D01*
X24988938Y14194863D01*
X25292763Y13890507D01*
X25689932Y13725588D01*
X26119981Y13725213D01*
X26517437Y13889438D01*
X26821793Y14193263D01*
X26986712Y14590432D01*
X26986837Y14733819D01*
X31777913Y14733819D01*
X31942138Y14336363D01*
X32245963Y14032007D01*
X32643132Y13867088D01*
X33073181Y13866713D01*
X33470637Y14030938D01*
X33774993Y14334763D01*
X33776857Y14339254D01*
X44981801Y14339254D01*
X45156509Y13916428D01*
X45479727Y13592646D01*
X45902247Y13417200D01*
X46359746Y13416801D01*
X46782572Y13591509D01*
X47106354Y13914727D01*
X47281800Y14337247D01*
X47282199Y14794746D01*
X47107491Y15217572D01*
X46784273Y15541354D01*
X46361753Y15716800D01*
X45904254Y15717199D01*
X45481428Y15542491D01*
X45157646Y15219273D01*
X44982200Y14796753D01*
X44981801Y14339254D01*
X33776857Y14339254D01*
X33939912Y14731932D01*
X33940287Y15161981D01*
X33776062Y15559437D01*
X33472237Y15863793D01*
X33075068Y16028712D01*
X32645019Y16029087D01*
X32247563Y15864862D01*
X31943207Y15561037D01*
X31778288Y15163868D01*
X31777913Y14733819D01*
X26986837Y14733819D01*
X26987087Y15020481D01*
X26822862Y15417937D01*
X26786626Y15454236D01*
X26981593Y15648863D01*
X27146512Y16046032D01*
X27146808Y16385919D01*
X34388813Y16385919D01*
X34553038Y15988463D01*
X34856863Y15684107D01*
X35254032Y15519188D01*
X35684081Y15518813D01*
X36081537Y15683038D01*
X36385893Y15986863D01*
X36451938Y16145919D01*
X37978813Y16145919D01*
X38143038Y15748463D01*
X38446863Y15444107D01*
X38844032Y15279188D01*
X39274081Y15278813D01*
X39671537Y15443038D01*
X39975893Y15746863D01*
X40140812Y16144032D01*
X40141187Y16574081D01*
X39976962Y16971537D01*
X39673137Y17275893D01*
X39275968Y17440812D01*
X38845919Y17441187D01*
X38448463Y17276962D01*
X38144107Y16973137D01*
X37979188Y16575968D01*
X37978813Y16145919D01*
X36451938Y16145919D01*
X36550812Y16384032D01*
X36551187Y16814081D01*
X36386962Y17211537D01*
X36083137Y17515893D01*
X35685968Y17680812D01*
X35255919Y17681187D01*
X34858463Y17516962D01*
X34554107Y17213137D01*
X34389188Y16815968D01*
X34388813Y16385919D01*
X27146808Y16385919D01*
X27146887Y16476081D01*
X26982662Y16873537D01*
X26678837Y17177893D01*
X26281668Y17342812D01*
X25851619Y17343187D01*
X25454163Y17178962D01*
X25149807Y16875137D01*
X24984888Y16477968D01*
X24984513Y16047919D01*
X25148738Y15650463D01*
X25184974Y15614164D01*
X24990007Y15419537D01*
X24825088Y15022368D01*
X24824713Y14592319D01*
X18566221Y14592319D01*
X18457137Y14701593D01*
X18059968Y14866512D01*
X17629919Y14866887D01*
X17232463Y14702662D01*
X16928107Y14398837D01*
X16763188Y14001668D01*
X16762813Y13571619D01*
X13811428Y13571619D01*
X13757555Y13702000D01*
X13364072Y14096170D01*
X12849699Y14309757D01*
X12292744Y14310243D01*
X11778000Y14097555D01*
X11383830Y13704072D01*
X11170243Y13189699D01*
X11169757Y12632744D01*
X11382445Y12118000D01*
X11590100Y11909982D01*
X11383830Y11704072D01*
X11170243Y11189699D01*
X11169757Y10632744D01*
X11379151Y10125972D01*
X11372349Y10121595D01*
X11212518Y9887674D01*
X11156287Y9610000D01*
X765000Y9610000D01*
X765000Y12045919D01*
X988813Y12045919D01*
X1153038Y11648463D01*
X1456863Y11344107D01*
X1854032Y11179188D01*
X2284081Y11178813D01*
X2681537Y11343038D01*
X2985893Y11646863D01*
X3150812Y12044032D01*
X3151187Y12474081D01*
X2986962Y12871537D01*
X2683137Y13175893D01*
X2285968Y13340812D01*
X1855919Y13341187D01*
X1458463Y13176962D01*
X1154107Y12873137D01*
X989188Y12475968D01*
X988813Y12045919D01*
X765000Y12045919D01*
X765000Y17564287D01*
X2022000Y17564287D01*
X2281404Y17613097D01*
X2519651Y17766405D01*
X2679482Y18000326D01*
X2695099Y18077445D01*
X2970762Y17801300D01*
X3507914Y17578255D01*
X4089534Y17577747D01*
X4627074Y17799854D01*
X5038700Y18210762D01*
X5069801Y18285661D01*
X5099854Y18212926D01*
X5510762Y17801300D01*
X6047914Y17578255D01*
X6629534Y17577747D01*
X7167074Y17799854D01*
X7578700Y18210762D01*
X7609801Y18285661D01*
X7639854Y18212926D01*
X8050762Y17801300D01*
X8254999Y17716494D01*
X8051428Y17632380D01*
X7629103Y17210791D01*
X7400261Y16659677D01*
X7399740Y16062941D01*
X7627620Y15511428D01*
X8049209Y15089103D01*
X8600323Y14860261D01*
X9197059Y14859740D01*
X9748572Y15087620D01*
X10170365Y15508678D01*
X10589209Y15089103D01*
X11140323Y14860261D01*
X11737059Y14859740D01*
X12288572Y15087620D01*
X12710897Y15509209D01*
X12939739Y16060323D01*
X12940260Y16657059D01*
X12712380Y17208572D01*
X12290791Y17630897D01*
X12065037Y17724638D01*
X12247074Y17799854D01*
X12658700Y18210762D01*
X12689801Y18285661D01*
X12719854Y18212926D01*
X13130762Y17801300D01*
X13667914Y17578255D01*
X14249534Y17577747D01*
X14787074Y17799854D01*
X15198700Y18210762D01*
X15229801Y18285661D01*
X15259854Y18212926D01*
X15617692Y17854463D01*
X15460596Y17824903D01*
X15222349Y17671595D01*
X15062518Y17437674D01*
X15006287Y17160000D01*
X15006287Y15560000D01*
X15055097Y15300596D01*
X15208405Y15062349D01*
X15442326Y14902518D01*
X15720000Y14846287D01*
X17320000Y14846287D01*
X17579404Y14895097D01*
X17817651Y15048405D01*
X17977482Y15282326D01*
X18033713Y15560000D01*
X18033713Y17160000D01*
X17984903Y17419404D01*
X17831595Y17657651D01*
X17597674Y17817482D01*
X17387391Y17860066D01*
X17738700Y18210762D01*
X17769801Y18285661D01*
X17799854Y18212926D01*
X18210762Y17801300D01*
X18747914Y17578255D01*
X19329534Y17577747D01*
X19867074Y17799854D01*
X20278700Y18210762D01*
X20309801Y18285661D01*
X20339854Y18212926D01*
X20750762Y17801300D01*
X21287914Y17578255D01*
X21535795Y17578038D01*
X21371707Y17414237D01*
X21206788Y17017068D01*
X21206413Y16587019D01*
X21370638Y16189563D01*
X21674463Y15885207D01*
X22071632Y15720288D01*
X22501681Y15719913D01*
X22899137Y15884138D01*
X23203493Y16187963D01*
X23368412Y16585132D01*
X23368787Y17015181D01*
X23204562Y17412637D01*
X22900737Y17716993D01*
X22503568Y17881912D01*
X22489288Y17881924D01*
X22818700Y18210762D01*
X22849801Y18285661D01*
X22879854Y18212926D01*
X23290762Y17801300D01*
X23827914Y17578255D01*
X24409534Y17577747D01*
X24947074Y17799854D01*
X25358700Y18210762D01*
X25389801Y18285661D01*
X25419854Y18212926D01*
X25830762Y17801300D01*
X26367914Y17578255D01*
X26949534Y17577747D01*
X27487074Y17799854D01*
X27898700Y18210762D01*
X27929801Y18285661D01*
X27959854Y18212926D01*
X28370762Y17801300D01*
X28907914Y17578255D01*
X29489534Y17577747D01*
X30027074Y17799854D01*
X30438700Y18210762D01*
X30469801Y18285661D01*
X30499854Y18212926D01*
X30910762Y17801300D01*
X31447914Y17578255D01*
X32029534Y17577747D01*
X32567074Y17799854D01*
X32978700Y18210762D01*
X33009801Y18285661D01*
X33039854Y18212926D01*
X33450762Y17801300D01*
X33987914Y17578255D01*
X34569534Y17577747D01*
X35107074Y17799854D01*
X35518700Y18210762D01*
X35549801Y18285661D01*
X35579854Y18212926D01*
X35990762Y17801300D01*
X36527914Y17578255D01*
X37109534Y17577747D01*
X37647074Y17799854D01*
X38058700Y18210762D01*
X38089801Y18285661D01*
X38119854Y18212926D01*
X38530762Y17801300D01*
X39067914Y17578255D01*
X39649534Y17577747D01*
X40187074Y17799854D01*
X40598700Y18210762D01*
X40629801Y18285661D01*
X40659854Y18212926D01*
X41070762Y17801300D01*
X41607914Y17578255D01*
X42189534Y17577747D01*
X42727074Y17799854D01*
X43138700Y18210762D01*
X43169801Y18285661D01*
X43199854Y18212926D01*
X43610762Y17801300D01*
X44147914Y17578255D01*
X44729534Y17577747D01*
X45267074Y17799854D01*
X45678700Y18210762D01*
X45709801Y18285661D01*
X45739854Y18212926D01*
X46150762Y17801300D01*
X46687914Y17578255D01*
X47269534Y17577747D01*
X47807074Y17799854D01*
X48218700Y18210762D01*
X48441745Y18747914D01*
X48442253Y19329534D01*
X48357356Y19535000D01*
X50015000Y19535000D01*
X50015000Y765000D01*
M02*
