G04 #@! TF.FileFunction,Copper,L1,Top,Signal*
%FSLAX46Y46*%
G04 Gerber Fmt 4.6, Leading zero omitted, Abs format (unit mm)*
G04 Created by KiCad (PCBNEW 4.0.7) date 07/03/18 10:44:51*
%MOMM*%
%LPD*%
G01*
G04 APERTURE LIST*
%ADD10C,0.100000*%
%ADD11C,0.203200*%
%ADD12R,1.000000X0.700000*%
%ADD13R,2.000000X0.500000*%
%ADD14C,1.500000*%
%ADD15R,1.524000X1.524000*%
%ADD16C,1.524000*%
%ADD17R,1.600000X1.600000*%
%ADD18C,1.600000*%
%ADD19R,0.600000X0.900000*%
%ADD20R,1.000000X1.500000*%
%ADD21R,4.000000X1.500000*%
%ADD22C,0.200000*%
%ADD23R,0.700000X1.300000*%
%ADD24R,1.400000X1.400000*%
%ADD25C,1.400000*%
%ADD26R,1.000000X1.400000*%
%ADD27R,1.150000X0.750000*%
%ADD28R,2.250000X1.800000*%
%ADD29R,1.800000X2.250000*%
%ADD30R,1.200000X1.500000*%
%ADD31C,0.762000*%
%ADD32C,0.609600*%
%ADD33C,0.304800*%
G04 APERTURE END LIST*
D10*
D11*
X48596800Y12596800D02*
X47784000Y12596800D01*
X48596800Y12596800D02*
X48596800Y11784000D01*
X49003200Y13003200D02*
X49003200Y13816000D01*
X49003200Y13003200D02*
X49816000Y13003200D01*
X49003200Y12596800D02*
X49003200Y11784000D01*
X49003200Y12596800D02*
X49816000Y12596800D01*
X48596800Y13003200D02*
X47784000Y13003200D01*
X48596800Y13003200D02*
X48596800Y13816000D01*
X9096800Y7396800D02*
X8284000Y7396800D01*
X9096800Y7396800D02*
X9096800Y6584000D01*
X9503200Y7803200D02*
X9503200Y8616000D01*
X9503200Y7803200D02*
X10316000Y7803200D01*
X9503200Y7396800D02*
X9503200Y6584000D01*
X9503200Y7396800D02*
X10316000Y7396800D01*
X9096800Y7803200D02*
X8284000Y7803200D01*
X9096800Y7803200D02*
X9096800Y8616000D01*
D12*
X38166500Y13386000D03*
X38166500Y12436000D03*
X38166500Y11486000D03*
X40566500Y11486000D03*
X40566500Y12436000D03*
X40566500Y13386000D03*
D13*
X43882000Y12817000D03*
X43882000Y13617000D03*
X43882000Y14417000D03*
X43882000Y11217000D03*
X43882000Y12017000D03*
D14*
X44132000Y9167000D03*
X44132000Y16467000D03*
X49432000Y9167000D03*
X49432000Y16467000D03*
D15*
X1260000Y1260000D03*
D16*
X3800000Y1260000D03*
X6340000Y1260000D03*
X8880000Y1260000D03*
X11420000Y1260000D03*
X13960000Y1260000D03*
X16500000Y1260000D03*
X19040000Y1260000D03*
X21580000Y1260000D03*
X24120000Y1260000D03*
X26660000Y1260000D03*
X29200000Y1260000D03*
X31740000Y1260000D03*
X34280000Y1260000D03*
X36820000Y1260000D03*
X39360000Y1260000D03*
X41900000Y1260000D03*
X44440000Y1260000D03*
X46980000Y1260000D03*
X49520000Y1260000D03*
D15*
X1260000Y19040000D03*
D16*
X3800000Y19040000D03*
X6340000Y19040000D03*
X8880000Y19040000D03*
X11420000Y19040000D03*
X13960000Y19040000D03*
X16500000Y19040000D03*
X19040000Y19040000D03*
X21580000Y19040000D03*
X24120000Y19040000D03*
X26660000Y19040000D03*
X29200000Y19040000D03*
X31740000Y19040000D03*
X34280000Y19040000D03*
X36820000Y19040000D03*
X39360000Y19040000D03*
X41900000Y19040000D03*
X44440000Y19040000D03*
X46980000Y19040000D03*
X49520000Y19040000D03*
D17*
X16520000Y16360000D03*
D18*
X13980000Y16360000D03*
X11440000Y16360000D03*
X8900000Y16360000D03*
D19*
X39054500Y15166000D03*
X40554500Y15166000D03*
X41020000Y9560000D03*
X39520000Y9560000D03*
D20*
X1330000Y7810000D03*
X3870000Y7810000D03*
X6410000Y7810000D03*
D21*
X3870000Y14310000D03*
D22*
X19662435Y8311523D02*
X20369541Y9018629D01*
X20015989Y7957969D02*
X20723095Y8665075D01*
X20369542Y7604416D02*
X21076648Y8311522D01*
X20723096Y7250863D02*
X21430202Y7957969D01*
X21076649Y6897309D02*
X21783755Y7604415D01*
X21430202Y6543756D02*
X22137308Y7250862D01*
X21783756Y6190202D02*
X22490862Y6897308D01*
X22137309Y5836649D02*
X22844415Y6543755D01*
X22490863Y5483096D02*
X23197969Y6190202D01*
X22844416Y5129542D02*
X23551522Y5836648D01*
X23197969Y4775989D02*
X23905075Y5483095D01*
X23551523Y4422435D02*
X24258629Y5129541D01*
X26521371Y5129541D02*
X27228477Y4422435D01*
X26874925Y5483095D02*
X27582031Y4775989D01*
X27228478Y5836648D02*
X27935584Y5129542D01*
X27582031Y6190202D02*
X28289137Y5483096D01*
X27935585Y6543755D02*
X28642691Y5836649D01*
X28289138Y6897308D02*
X28996244Y6190202D01*
X28642692Y7250862D02*
X29349798Y6543756D01*
X28996245Y7604415D02*
X29703351Y6897309D01*
X29349798Y7957969D02*
X30056904Y7250863D01*
X29703352Y8311522D02*
X30410458Y7604416D01*
X30056905Y8665075D02*
X30764011Y7957969D01*
X30410459Y9018629D02*
X31117565Y8311523D01*
X30410459Y11281371D02*
X31117565Y11988477D01*
X30056905Y11634925D02*
X30764011Y12342031D01*
X29703352Y11988478D02*
X30410458Y12695584D01*
X29349798Y12342031D02*
X30056904Y13049137D01*
X28996245Y12695585D02*
X29703351Y13402691D01*
X28642692Y13049138D02*
X29349798Y13756244D01*
X28289138Y13402692D02*
X28996244Y14109798D01*
X27935585Y13756245D02*
X28642691Y14463351D01*
X27582031Y14109798D02*
X28289137Y14816904D01*
X27228478Y14463352D02*
X27935584Y15170458D01*
X26874925Y14816905D02*
X27582031Y15524011D01*
X26521371Y15170459D02*
X27228477Y15877565D01*
X23551523Y15877565D02*
X24258629Y15170459D01*
X23197969Y15524011D02*
X23905075Y14816905D01*
X22844416Y15170458D02*
X23551522Y14463352D01*
X22490863Y14816904D02*
X23197969Y14109798D01*
X22137309Y14463351D02*
X22844415Y13756245D01*
X21783756Y14109798D02*
X22490862Y13402692D01*
X21430202Y13756244D02*
X22137308Y13049138D01*
X21076649Y13402691D02*
X21783755Y12695585D01*
X20723096Y13049137D02*
X21430202Y12342031D01*
X20369542Y12695584D02*
X21076648Y11988478D01*
X20015989Y12342031D02*
X20723095Y11634925D01*
X19662435Y11988477D02*
X20369541Y11281371D01*
D23*
X33770000Y12110000D03*
X35670000Y12110000D03*
X35670000Y15260000D03*
X33770000Y15260000D03*
D24*
X16420000Y4410000D03*
D25*
X14420000Y4410000D03*
D24*
X12570000Y8910000D03*
D25*
X12570000Y10910000D03*
X12570000Y12910000D03*
D26*
X49715000Y5705000D03*
X45515000Y5705000D03*
D27*
X49165000Y4205000D03*
X46065000Y4205000D03*
X46065000Y7205000D03*
X49165000Y7205000D03*
D19*
X38520000Y6060000D03*
X37020000Y6060000D03*
X37020000Y4560000D03*
X38520000Y4560000D03*
X41020000Y7960000D03*
X39520000Y7960000D03*
D28*
X9120000Y10960000D03*
X9120000Y13860000D03*
D29*
X7420000Y4460000D03*
X10320000Y4460000D03*
D10*
G36*
X18199289Y7696396D02*
X18906396Y6989289D01*
X18340711Y6423604D01*
X17633604Y7130711D01*
X18199289Y7696396D01*
X18199289Y7696396D01*
G37*
G36*
X17456827Y9782361D02*
X18163934Y9075254D01*
X17598249Y8509569D01*
X16891142Y9216676D01*
X17456827Y9782361D01*
X17456827Y9782361D01*
G37*
G36*
X16113324Y8438858D02*
X16820431Y7731751D01*
X16254746Y7166066D01*
X15547639Y7873173D01*
X16113324Y8438858D01*
X16113324Y8438858D01*
G37*
D30*
X5320000Y16560000D03*
X2520000Y16560000D03*
X1220000Y4960000D03*
X4020000Y4960000D03*
D31*
X5945000Y4460000D03*
X37200000Y16600000D03*
X7420000Y6310000D03*
X11320000Y11890000D03*
X42195000Y14410000D03*
X36895000Y12435000D03*
X9170000Y9260000D03*
X1320000Y9110000D03*
X30446300Y16382900D03*
X21433100Y10736900D03*
X26301900Y10974600D03*
X32483500Y6200700D03*
X41240900Y4726900D03*
X25120000Y12485000D03*
X19420000Y6060000D03*
X44439300Y5705000D03*
X23220000Y8060000D03*
X20170000Y5385000D03*
X35470000Y16600000D03*
X39060000Y16360000D03*
X41795000Y12435000D03*
X10320000Y6310000D03*
X20157200Y10532000D03*
X17844000Y13785700D03*
X25905900Y14806400D03*
X40186400Y7085700D03*
X42828800Y4716500D03*
X15768700Y6828600D03*
X23958100Y6369100D03*
X34299900Y6242500D03*
X27447200Y7000100D03*
X25538600Y6528200D03*
X29517000Y9222800D03*
X31824200Y11421600D03*
X32275900Y12578800D03*
X26065700Y16262000D03*
X22287600Y16801100D03*
X16236400Y9488500D03*
X34748100Y12943300D03*
X32859100Y14947900D03*
X36128900Y6628100D03*
X42476000Y10579100D03*
X38007200Y7894000D03*
X38007500Y9366200D03*
X2070000Y12260000D03*
D32*
X5945000Y6110000D02*
X5945000Y4460000D01*
X6410000Y6575000D02*
X5945000Y6110000D01*
X6410000Y7810000D02*
X6410000Y6575000D01*
X5945000Y4460000D02*
X5895000Y4460000D01*
X5395000Y4960000D02*
X5895000Y4460000D01*
X4020000Y4960000D02*
X5395000Y4960000D01*
X5895000Y4460000D02*
X5945000Y4460000D01*
X5945000Y4460000D02*
X7420000Y4460000D01*
D33*
X35670000Y15260000D02*
X35860000Y15260000D01*
X35860000Y15260000D02*
X37200000Y16600000D01*
X10320000Y4460000D02*
X9140000Y4460000D01*
X8490000Y6310000D02*
X7420000Y6310000D01*
X8900000Y5900000D02*
X8490000Y6310000D01*
X8900000Y4700000D02*
X8900000Y5900000D01*
X9140000Y4460000D02*
X8900000Y4700000D01*
D11*
X35670000Y15260000D02*
X35670000Y15720000D01*
D32*
X9120000Y13860000D02*
X10170000Y13860000D01*
X10170000Y13860000D02*
X11320000Y12710000D01*
X11320000Y12710000D02*
X11320000Y11890000D01*
D11*
X49715000Y5705000D02*
X49715000Y5085000D01*
X49715000Y5085000D02*
X49165000Y4535000D01*
X49165000Y4535000D02*
X49165000Y4205000D01*
X49165000Y7205000D02*
X49165000Y7055000D01*
X49165000Y7055000D02*
X49715000Y6505000D01*
X49715000Y6505000D02*
X49715000Y5705000D01*
D32*
X10320000Y4460000D02*
X10320000Y4650000D01*
D11*
X43882000Y14417000D02*
X42202000Y14417000D01*
X42202000Y14417000D02*
X42195000Y14410000D01*
X36896000Y12436000D02*
X36895000Y12435000D01*
X38166500Y12436000D02*
X36896000Y12436000D01*
X22490900Y6190000D02*
X22500200Y6190000D01*
D32*
X9120000Y14085000D02*
X9120000Y13860000D01*
X6645000Y16560000D02*
X9120000Y14085000D01*
X5320000Y16560000D02*
X6645000Y16560000D01*
X1330000Y9100000D02*
X1320000Y9110000D01*
X1330000Y7810000D02*
X1330000Y9100000D01*
X1220000Y7700000D02*
X1330000Y7810000D01*
X1220000Y4960000D02*
X1220000Y7700000D01*
D11*
X22490900Y6190200D02*
X22490900Y6190000D01*
X46065000Y4205000D02*
X46919700Y4205000D01*
X48230500Y4125200D02*
X48310300Y4205000D01*
X46999500Y4125200D02*
X48230500Y4125200D01*
X46919700Y4205000D02*
X46999500Y4125200D01*
X49165000Y4205000D02*
X48310300Y4205000D01*
X49165000Y7205000D02*
X48310300Y7205000D01*
X46065000Y7205000D02*
X46919700Y7205000D01*
X47025000Y7310300D02*
X46919700Y7205000D01*
X48205000Y7310300D02*
X47025000Y7310300D01*
X48310300Y7205000D02*
X48205000Y7310300D01*
X21433100Y10924900D02*
X20369500Y11988500D01*
X21433100Y10736900D02*
X21433100Y10924900D01*
X49432000Y9167000D02*
X49432000Y7205000D01*
X49165000Y7205000D02*
X49432000Y7205000D01*
X26301900Y9991700D02*
X26301900Y10974600D01*
X22500200Y6190000D02*
X26301900Y9991700D01*
X26301900Y14243900D02*
X27228500Y15170500D01*
X26301900Y10974600D02*
X26301900Y14243900D01*
X31032600Y7651600D02*
X31032600Y7689400D01*
X32483500Y6200700D02*
X31032600Y7651600D01*
X30410500Y8311500D02*
X31032600Y7689400D01*
X39266600Y4726900D02*
X39099700Y4560000D01*
X41240900Y4726900D02*
X39266600Y4726900D01*
X38520000Y4560000D02*
X39099700Y4560000D01*
X25120000Y10960000D02*
X25120000Y12485000D01*
X21430200Y7270000D02*
X25120000Y10960000D01*
X21430200Y7251000D02*
X21430200Y7270000D01*
X21430200Y7250900D02*
X21430200Y7251000D01*
X19420000Y6660000D02*
X19420000Y6060000D01*
X20718000Y7958000D02*
X19420000Y6660000D01*
X20723100Y7958000D02*
X20718000Y7958000D01*
X44439300Y5705000D02*
X45515000Y5705000D01*
X21515200Y5921600D02*
X21515200Y5921700D01*
X21515200Y5753800D02*
X21515200Y5921600D01*
X20380700Y4619300D02*
X21515200Y5753800D01*
X20256700Y4619300D02*
X20380700Y4619300D01*
X18772100Y3134700D02*
X20256700Y4619300D01*
X15834700Y3134700D02*
X18772100Y3134700D01*
X13960000Y1260000D02*
X15834700Y3134700D01*
X22137300Y6543800D02*
X21515200Y5921700D01*
X21783800Y6897000D02*
X21783800Y6897300D01*
X22945000Y8060000D02*
X23220000Y8060000D01*
X21783800Y6899000D02*
X22945000Y8060000D01*
X21783800Y6897300D02*
X21783800Y6899000D01*
X21076600Y7604000D02*
X21076200Y7604000D01*
X20170000Y6710000D02*
X20170000Y5385000D01*
X21064400Y7604000D02*
X20170000Y6710000D01*
X21076200Y7604000D02*
X21064400Y7604000D01*
X21076200Y7604000D02*
X21076600Y7604400D01*
X29200000Y15020900D02*
X28289100Y14110000D01*
X29200000Y19040000D02*
X29200000Y15020900D01*
X28289100Y14109800D02*
X28289000Y14109900D01*
X27170000Y12991000D02*
X28289000Y14109900D01*
X27170000Y12585000D02*
X27170000Y12991000D01*
X29045000Y10710000D02*
X27170000Y12585000D01*
X36220000Y10710000D02*
X29045000Y10710000D01*
X36996000Y11486000D02*
X36220000Y10710000D01*
X38166500Y11486000D02*
X36996000Y11486000D01*
X28289000Y14109900D02*
X28289100Y14110000D01*
X27935600Y14463000D02*
X27935200Y14463000D01*
X39044000Y13386000D02*
X38166500Y13386000D01*
X39320000Y13110000D02*
X39044000Y13386000D01*
X39320000Y11010000D02*
X39320000Y13110000D01*
X38995000Y10685000D02*
X39320000Y11010000D01*
X37345000Y10685000D02*
X38995000Y10685000D01*
X36939000Y10279000D02*
X37345000Y10685000D01*
X28826000Y10279000D02*
X36939000Y10279000D01*
X26745000Y12360000D02*
X28826000Y10279000D01*
X26745000Y13285000D02*
X26745000Y12360000D01*
X27923400Y14463000D02*
X26745000Y13285000D01*
X27935200Y14463000D02*
X27923400Y14463000D01*
X27935200Y14463000D02*
X27935600Y14463400D01*
X28593600Y17106400D02*
X26660000Y19040000D01*
X28593600Y15121400D02*
X28593600Y17106400D01*
X27935600Y14463400D02*
X28593600Y15121400D01*
X42477000Y12017000D02*
X43882000Y12017000D01*
X41946000Y11486000D02*
X42477000Y12017000D01*
X40566500Y11486000D02*
X41946000Y11486000D01*
X39054500Y15166000D02*
X39054500Y16354500D01*
X39054500Y16354500D02*
X39060000Y16360000D01*
X41794000Y12436000D02*
X41795000Y12435000D01*
X40566500Y12436000D02*
X41794000Y12436000D01*
X22844400Y5837000D02*
X22846600Y5837000D01*
X22844400Y5836600D02*
X22844400Y5837000D01*
X20016000Y11634900D02*
X20638100Y11012900D01*
X20638100Y11012900D02*
X20157200Y10532000D01*
X41020000Y7960000D02*
X40440300Y7960000D01*
X38520000Y6060000D02*
X39099700Y6060000D01*
X26157300Y14806400D02*
X26874900Y15524000D01*
X25905900Y14806400D02*
X26157300Y14806400D01*
X40155800Y7116100D02*
X40156000Y7116100D01*
X39099700Y6060000D02*
X40155800Y7116100D01*
X40156000Y7675700D02*
X40440300Y7960000D01*
X40156000Y7116100D02*
X40156000Y7675700D01*
X40186400Y7085700D02*
X40156000Y7116100D01*
X15768700Y7256500D02*
X15703400Y7321900D01*
X15768700Y6828600D02*
X15768700Y7256500D01*
X16184000Y7802500D02*
X15703400Y7321900D01*
X23378700Y6369100D02*
X22846600Y5837000D01*
X23958100Y6369100D02*
X23378700Y6369100D01*
X30764000Y8665100D02*
X31386200Y8043000D01*
X34257800Y6242500D02*
X34299900Y6242500D01*
X32457300Y8043000D02*
X34257800Y6242500D01*
X31386200Y8043000D02*
X32457300Y8043000D01*
X40554500Y15166000D02*
X40554500Y13398000D01*
X40554500Y13398000D02*
X40566500Y13386000D01*
X40566500Y13386000D02*
X41198800Y13386000D01*
X42488000Y12817000D02*
X43882000Y12817000D01*
X41919000Y13386000D02*
X42488000Y12817000D01*
X41198800Y13386000D02*
X41919000Y13386000D01*
D32*
X1260000Y17345000D02*
X1260000Y19040000D01*
X2045000Y16560000D02*
X1260000Y17345000D01*
X2520000Y16560000D02*
X2045000Y16560000D01*
D11*
X41020000Y9560000D02*
X40440300Y9560000D01*
X28893900Y9883500D02*
X25538600Y6528200D01*
X37082800Y9883500D02*
X28893900Y9883500D01*
X37489100Y10289800D02*
X37082800Y9883500D01*
X40000300Y10289800D02*
X37489100Y10289800D01*
X40440300Y9849800D02*
X40000300Y10289800D01*
X40440300Y9560000D02*
X40440300Y9849800D01*
X19393800Y8043000D02*
X19393900Y8043000D01*
X19253000Y8043000D02*
X19393800Y8043000D01*
X18270000Y7060000D02*
X19253000Y8043000D01*
X20016000Y8665100D02*
X19393900Y8043000D01*
X13257100Y3097100D02*
X11420000Y1260000D01*
X14807400Y3097100D02*
X13257100Y3097100D01*
X15420200Y3709900D02*
X14807400Y3097100D01*
X15420200Y5522800D02*
X15420200Y3709900D01*
X19358000Y9460600D02*
X15420200Y5522800D01*
X20584600Y9460600D02*
X19358000Y9460600D01*
X21051600Y8993600D02*
X20584600Y9460600D01*
X20369500Y8311500D02*
X21051600Y8993600D01*
X20333700Y2618800D02*
X23198000Y5483100D01*
X17858800Y2618800D02*
X20333700Y2618800D01*
X16500000Y1260000D02*
X17858800Y2618800D01*
X19682000Y1260000D02*
X23551500Y5129500D01*
X19040000Y1260000D02*
X19682000Y1260000D01*
X23283000Y2963000D02*
X21580000Y1260000D01*
X23283000Y4153800D02*
X23283000Y2963000D01*
X23283000Y4153900D02*
X23283000Y4153800D01*
X23905100Y4776000D02*
X23283000Y4153900D01*
X26874900Y4014900D02*
X26874900Y4776000D01*
X24120000Y1260000D02*
X26874900Y4014900D01*
X27850600Y2450600D02*
X26660000Y1260000D01*
X27850600Y4507400D02*
X27850600Y2450600D01*
X27228500Y5129500D02*
X27850600Y4507400D01*
X29200000Y3865100D02*
X29200000Y1260000D01*
X28204200Y4861000D02*
X29200000Y3865100D01*
X27582000Y5483100D02*
X28204200Y4861000D01*
X31740000Y2032200D02*
X31740000Y1260000D01*
X28557700Y5214500D02*
X31740000Y2032200D01*
X27935600Y5836600D02*
X28557700Y5214500D01*
X33219300Y1260000D02*
X34280000Y1260000D01*
X28911300Y5568100D02*
X33219300Y1260000D01*
X28289100Y6190200D02*
X28911300Y5568100D01*
X36576900Y1260000D02*
X36820000Y1260000D01*
X35151000Y2685900D02*
X36576900Y1260000D01*
X32500600Y2685900D02*
X35151000Y2685900D01*
X28642700Y6543800D02*
X32500600Y2685900D01*
X32755000Y3138500D02*
X28996200Y6897300D01*
X35353500Y3138500D02*
X32755000Y3138500D01*
X35925500Y2566500D02*
X35353500Y3138500D01*
X38053500Y2566500D02*
X35925500Y2566500D01*
X39360000Y1260000D02*
X38053500Y2566500D01*
X29660900Y6939800D02*
X29972000Y6628800D01*
X29660900Y6939800D02*
X29349800Y7250900D01*
X28946200Y8652000D02*
X29517000Y9222800D01*
X28946200Y8091400D02*
X28946200Y8652000D01*
X28727800Y7873000D02*
X28946200Y8091400D01*
X32451900Y11421600D02*
X33140300Y12110000D01*
X31824200Y11421600D02*
X32451900Y11421600D01*
X33770000Y12110000D02*
X33140300Y12110000D01*
X29349800Y7250900D02*
X28727800Y7873000D01*
X32619000Y3981700D02*
X29972000Y6628800D01*
X32678600Y3981700D02*
X32619000Y3981700D01*
X33140400Y3519900D02*
X32678600Y3981700D01*
X35731400Y3519900D02*
X33140400Y3519900D01*
X35922200Y3329100D02*
X35731400Y3519900D01*
X35927200Y3329100D02*
X35922200Y3329100D01*
X36158900Y3097400D02*
X35927200Y3329100D01*
X36165200Y3097400D02*
X36158900Y3097400D01*
X36314800Y2947800D02*
X36165200Y3097400D01*
X39374500Y2947800D02*
X36314800Y2947800D01*
X41062300Y1260000D02*
X39374500Y2947800D01*
X41900000Y1260000D02*
X41062300Y1260000D01*
X29703400Y7604400D02*
X30325500Y6982300D01*
X42370900Y3329100D02*
X44440000Y1260000D01*
X36472800Y3329100D02*
X42370900Y3329100D01*
X35055800Y4746100D02*
X36472800Y3329100D01*
X32408900Y4746100D02*
X35055800Y4746100D01*
X30325500Y6829500D02*
X32408900Y4746100D01*
X30325500Y6982300D02*
X30325500Y6829500D01*
X30760600Y7254300D02*
X30056900Y7958000D01*
X30760600Y6933700D02*
X30760600Y7254300D01*
X32495500Y5198800D02*
X30760600Y6933700D01*
X35142500Y5198800D02*
X32495500Y5198800D01*
X36630900Y3710400D02*
X35142500Y5198800D01*
X44529600Y3710400D02*
X36630900Y3710400D01*
X46980000Y1260000D02*
X44529600Y3710400D01*
X7663200Y17716800D02*
X6340000Y19040000D01*
X9383200Y17716800D02*
X7663200Y17716800D01*
X10110000Y16990000D02*
X9383200Y17716800D01*
X10110000Y15620000D02*
X10110000Y16990000D01*
X10760000Y14970000D02*
X10110000Y15620000D01*
X12663900Y14970000D02*
X10760000Y14970000D01*
X14669800Y12964100D02*
X12663900Y14970000D01*
X20100900Y12964100D02*
X14669800Y12964100D01*
X20101000Y12964200D02*
X20100900Y12964100D01*
X20723100Y12342000D02*
X20101000Y12964200D01*
X19263200Y14509000D02*
X21076600Y12695600D01*
X13891800Y14509000D02*
X19263200Y14509000D01*
X12710000Y15690800D02*
X13891800Y14509000D01*
X12710000Y16626900D02*
X12710000Y15690800D01*
X11515800Y17821100D02*
X12710000Y16626900D01*
X10098900Y17821100D02*
X11515800Y17821100D01*
X8880000Y19040000D02*
X10098900Y17821100D01*
X21783800Y13402700D02*
X21161700Y14024900D01*
X21161600Y14024800D02*
X21161700Y14024900D01*
X21154400Y14024800D02*
X21161600Y14024800D01*
X20218900Y14960300D02*
X21154400Y14024800D01*
X15524100Y14960300D02*
X20218900Y14960300D01*
X15240300Y15244100D02*
X15524100Y14960300D01*
X15240300Y16874600D02*
X15240300Y15244100D01*
X14397100Y17717800D02*
X15240300Y16874600D01*
X12742200Y17717800D02*
X14397100Y17717800D01*
X11420000Y19040000D02*
X12742200Y17717800D01*
X18916500Y16977000D02*
X22137300Y13756200D01*
X18928000Y16972000D02*
X18916500Y16977000D01*
X18404712Y17495288D02*
X18928000Y16972000D01*
X15499712Y17500288D02*
X18404712Y17495288D01*
X13960000Y19040000D02*
X15499712Y17500288D01*
X22490862Y14109798D02*
X22490202Y14109798D01*
X22490202Y14109798D02*
X18520000Y18080000D01*
X18520000Y18080000D02*
X17460000Y18080000D01*
X17460000Y18080000D02*
X16500000Y19040000D01*
X22844400Y14463400D02*
X22222300Y15085500D01*
X20382600Y16925200D02*
X22222300Y15085500D01*
X20382500Y16925200D02*
X20382600Y16925200D01*
X20382500Y17697500D02*
X20382500Y16925200D01*
X19040000Y19040000D02*
X20382500Y17697500D01*
X21580000Y16434900D02*
X21580000Y19040000D01*
X23198000Y14816900D02*
X21580000Y16434900D01*
X23551522Y15170458D02*
X23559542Y15170458D01*
X23559542Y15170458D02*
X24120000Y14610000D01*
X24120000Y14610000D02*
X24745000Y14610000D01*
X24745000Y14610000D02*
X24995000Y14860000D01*
X24995000Y14860000D02*
X24995000Y15885000D01*
X24995000Y15885000D02*
X24120000Y16760000D01*
X24120000Y16760000D02*
X24120000Y19040000D01*
X31740000Y16742100D02*
X31740000Y19040000D01*
X29376200Y14378300D02*
X31740000Y16742100D01*
X29264900Y14378300D02*
X29376200Y14378300D01*
X29264900Y14378400D02*
X29264900Y14378300D01*
X28642700Y13756200D02*
X29264900Y14378400D01*
X28996200Y13402700D02*
X29618400Y14024900D01*
X29618300Y14024900D02*
X29618400Y14024900D01*
X29618300Y14038000D02*
X29618300Y14024900D01*
X31018800Y15438500D02*
X29618300Y14038000D01*
X31018800Y15472400D02*
X31018800Y15438500D01*
X33138500Y17592100D02*
X31018800Y15472400D01*
X33138500Y17646700D02*
X33138500Y17592100D01*
X34280000Y18788200D02*
X33138500Y17646700D01*
X34280000Y19040000D02*
X34280000Y18788200D01*
X29349800Y13049100D02*
X29972000Y13671300D01*
X34012700Y17712000D02*
X29972000Y13671300D01*
X34174700Y17712000D02*
X34012700Y17712000D01*
X34226700Y17764000D02*
X34174700Y17712000D01*
X35544000Y17764000D02*
X34226700Y17764000D01*
X36820000Y19040000D02*
X35544000Y17764000D01*
X37642400Y17322400D02*
X39360000Y19040000D01*
X34246300Y17322400D02*
X37642400Y17322400D01*
X30325500Y13401600D02*
X34246300Y17322400D01*
X30325500Y13317700D02*
X30325500Y13401600D01*
X29703400Y12695600D02*
X30325500Y13317700D01*
X41900000Y19040000D02*
X41900000Y19010000D01*
X41900000Y19010000D02*
X40130000Y17240000D01*
X40130000Y17240000D02*
X38780000Y17240000D01*
X38780000Y17240000D02*
X36590000Y15050000D01*
X36590000Y15050000D02*
X36590000Y14591500D01*
X36590000Y14591500D02*
X36204900Y14206400D01*
X31921300Y14206400D02*
X36204900Y14206400D01*
X30056900Y12342000D02*
X31921300Y14206400D01*
X42896800Y17496800D02*
X44440000Y19040000D01*
X41696600Y17496800D02*
X42896800Y17496800D01*
X39800000Y15600200D02*
X41696600Y17496800D01*
X39800000Y14590000D02*
X39800000Y15600200D01*
X39225800Y14120000D02*
X39800000Y14590000D01*
X36880000Y14120000D02*
X39225800Y14120000D01*
X36328600Y13634500D02*
X36880000Y14120000D01*
X32056500Y13634500D02*
X36328600Y13634500D01*
X30410500Y11988500D02*
X32056500Y13634500D01*
X31707900Y12578800D02*
X32275900Y12578800D01*
X30764000Y11634900D02*
X31707900Y12578800D01*
X27582031Y14816905D02*
X27582031Y14822031D01*
X27582031Y14822031D02*
X28195000Y15435000D01*
X28195000Y15435000D02*
X28195000Y15835000D01*
X28195000Y15835000D02*
X27768000Y16262000D01*
X27768000Y16262000D02*
X26065700Y16262000D01*
X22628000Y16801100D02*
X22287600Y16801100D01*
X23905100Y15524000D02*
X22628000Y16801100D01*
X16810000Y10062100D02*
X16236400Y9488500D01*
X18313900Y10062100D02*
X16810000Y10062100D01*
X18514400Y9861600D02*
X18313900Y10062100D01*
X21523700Y9861600D02*
X18514400Y9861600D01*
X22108700Y10446600D02*
X21523700Y9861600D01*
X22108700Y12370600D02*
X22108700Y10446600D01*
X21430200Y13049100D02*
X22108700Y12370600D01*
X35040300Y12651100D02*
X34748100Y12943300D01*
X35040300Y12110000D02*
X35040300Y12651100D01*
X35670000Y12110000D02*
X35040300Y12110000D01*
X33140300Y15229100D02*
X32859100Y14947900D01*
X33140300Y15260000D02*
X33140300Y15229100D01*
X33770000Y15260000D02*
X33140300Y15260000D01*
X37020000Y4560000D02*
X37020000Y6060000D01*
X37020000Y6060000D02*
X36440300Y6060000D01*
X36128900Y6371400D02*
X36128900Y6628100D01*
X36440300Y6060000D02*
X36128900Y6371400D01*
X43882000Y11217000D02*
X42602300Y11217000D01*
X42476000Y11090700D02*
X42602300Y11217000D01*
X42476000Y10579100D02*
X42476000Y11090700D01*
X39520000Y7960000D02*
X38940300Y7960000D01*
X38874300Y7894000D02*
X38007200Y7894000D01*
X38940300Y7960000D02*
X38874300Y7894000D01*
X39520000Y9560000D02*
X38940300Y9560000D01*
X38746500Y9366200D02*
X38940300Y9560000D01*
X38007500Y9366200D02*
X38746500Y9366200D01*
D32*
X9170000Y10960000D02*
X9120000Y10960000D01*
X11220000Y8910000D02*
X9170000Y10960000D01*
X12570000Y8910000D02*
X11220000Y8910000D01*
X3870000Y7810000D02*
X3870000Y14310000D01*
D11*
X9580200Y1260000D02*
X8880000Y1260000D01*
X11741900Y3421700D02*
X9580200Y1260000D01*
X11741900Y4501300D02*
X11741900Y3421700D01*
X15966000Y8725400D02*
X11741900Y4501300D01*
X16986800Y8725400D02*
X15966000Y8725400D01*
X17046900Y8665400D02*
X16986800Y8725400D01*
X17527500Y9146000D02*
X17046900Y8665400D01*
X6340000Y1260000D02*
X3800000Y1260000D01*
D22*
G36*
X1642326Y15152518D02*
X1920000Y15096287D01*
X3120000Y15096287D01*
X3379404Y15145097D01*
X3480266Y15210000D01*
X4358198Y15210000D01*
X4442326Y15152518D01*
X4720000Y15096287D01*
X5920000Y15096287D01*
X6179404Y15145097D01*
X6280266Y15210000D01*
X6573998Y15210000D01*
X7220000Y14563998D01*
X7220000Y11910000D01*
X7227879Y11871094D01*
X7250273Y11838319D01*
X7283654Y11816839D01*
X7320000Y11810000D01*
X10238930Y11810000D01*
X10238813Y11675919D01*
X10320000Y11479431D01*
X10320000Y10210000D01*
X9700998Y10210000D01*
X9385968Y10340812D01*
X8955919Y10341187D01*
X8638421Y10210000D01*
X4620000Y10210000D01*
X4581094Y10202121D01*
X4548319Y10179727D01*
X4526839Y10146346D01*
X4520000Y10110000D01*
X4520000Y7010000D01*
X3220000Y7010000D01*
X3220000Y10110000D01*
X3212121Y10148906D01*
X3189727Y10181681D01*
X3156346Y10203161D01*
X3120000Y10210000D01*
X765000Y10210000D01*
X765000Y15210000D01*
X1558198Y15210000D01*
X1642326Y15152518D01*
X1642326Y15152518D01*
G37*
X1642326Y15152518D02*
X1920000Y15096287D01*
X3120000Y15096287D01*
X3379404Y15145097D01*
X3480266Y15210000D01*
X4358198Y15210000D01*
X4442326Y15152518D01*
X4720000Y15096287D01*
X5920000Y15096287D01*
X6179404Y15145097D01*
X6280266Y15210000D01*
X6573998Y15210000D01*
X7220000Y14563998D01*
X7220000Y11910000D01*
X7227879Y11871094D01*
X7250273Y11838319D01*
X7283654Y11816839D01*
X7320000Y11810000D01*
X10238930Y11810000D01*
X10238813Y11675919D01*
X10320000Y11479431D01*
X10320000Y10210000D01*
X9700998Y10210000D01*
X9385968Y10340812D01*
X8955919Y10341187D01*
X8638421Y10210000D01*
X4620000Y10210000D01*
X4581094Y10202121D01*
X4548319Y10179727D01*
X4526839Y10146346D01*
X4520000Y10110000D01*
X4520000Y7010000D01*
X3220000Y7010000D01*
X3220000Y10110000D01*
X3212121Y10148906D01*
X3189727Y10181681D01*
X3156346Y10203161D01*
X3120000Y10210000D01*
X765000Y10210000D01*
X765000Y15210000D01*
X1558198Y15210000D01*
X1642326Y15152518D01*
M02*
