G04 #@! TF.FileFunction,Soldermask,Bot*
%FSLAX46Y46*%
G04 Gerber Fmt 4.6, Leading zero omitted, Abs format (unit mm)*
G04 Created by KiCad (PCBNEW 4.0.7) date 07/03/18 10:44:51*
%MOMM*%
%LPD*%
G01*
G04 APERTURE LIST*
%ADD10C,0.100000*%
%ADD11R,1.000000X1.300000*%
%ADD12C,1.300000*%
%ADD13C,1.900000*%
%ADD14R,1.924000X1.924000*%
%ADD15C,1.924000*%
%ADD16R,2.000000X2.000000*%
%ADD17C,2.000000*%
%ADD18R,1.300000X1.000000*%
%ADD19R,3.100000X1.550000*%
%ADD20R,1.550000X3.100000*%
%ADD21R,1.800000X1.800000*%
%ADD22C,1.800000*%
%ADD23C,1.200000*%
%ADD24R,1.800000X0.700000*%
%ADD25R,1.400000X1.200000*%
%ADD26R,2.200000X2.650000*%
%ADD27R,1.900000X1.600000*%
%ADD28C,2.940000*%
G04 APERTURE END LIST*
D10*
G36*
X18776497Y8834264D02*
X19695736Y9753503D01*
X20402843Y9046396D01*
X19483604Y8127157D01*
X18776497Y8834264D01*
X18776497Y8834264D01*
G37*
G36*
X19837157Y7773604D02*
X20756396Y8692843D01*
X21463503Y7985736D01*
X20544264Y7066497D01*
X19837157Y7773604D01*
X19837157Y7773604D01*
G37*
G36*
X22702764Y13525503D02*
X23622003Y12606264D01*
X22914896Y11899157D01*
X21995657Y12818396D01*
X22702764Y13525503D01*
X22702764Y13525503D01*
G37*
G36*
X21642104Y12464843D02*
X22561343Y11545604D01*
X21854236Y10838497D01*
X20934997Y11757736D01*
X21642104Y12464843D01*
X21642104Y12464843D01*
G37*
D11*
X45190000Y6975000D03*
X43690000Y6975000D03*
D10*
G36*
X25918236Y6710497D02*
X24998997Y7629736D01*
X25706104Y8336843D01*
X26625343Y7417604D01*
X25918236Y6710497D01*
X25918236Y6710497D01*
G37*
G36*
X26978896Y7771157D02*
X26059657Y8690396D01*
X26766764Y9397503D01*
X27686003Y8478264D01*
X26978896Y7771157D01*
X26978896Y7771157D01*
G37*
G36*
X23563503Y5985736D02*
X22644264Y5066497D01*
X21937157Y5773604D01*
X22856396Y6692843D01*
X23563503Y5985736D01*
X23563503Y5985736D01*
G37*
G36*
X22502843Y7046396D02*
X21583604Y6127157D01*
X20876497Y6834264D01*
X21795736Y7753503D01*
X22502843Y7046396D01*
X22502843Y7046396D01*
G37*
D12*
X46132000Y11067000D03*
X46132000Y14567000D03*
D13*
X44132000Y9167000D03*
X44132000Y16467000D03*
X49432000Y9167000D03*
X49432000Y16467000D03*
D14*
X1260000Y1260000D03*
D15*
X3800000Y1260000D03*
X6340000Y1260000D03*
X8880000Y1260000D03*
X11420000Y1260000D03*
X13960000Y1260000D03*
X16500000Y1260000D03*
X19040000Y1260000D03*
X21580000Y1260000D03*
X24120000Y1260000D03*
X26660000Y1260000D03*
X29200000Y1260000D03*
X31740000Y1260000D03*
X34280000Y1260000D03*
X36820000Y1260000D03*
X39360000Y1260000D03*
X41900000Y1260000D03*
X44440000Y1260000D03*
X46980000Y1260000D03*
X49520000Y1260000D03*
D14*
X1260000Y19040000D03*
D15*
X3800000Y19040000D03*
X6340000Y19040000D03*
X8880000Y19040000D03*
X11420000Y19040000D03*
X13960000Y19040000D03*
X16500000Y19040000D03*
X19040000Y19040000D03*
X21580000Y19040000D03*
X24120000Y19040000D03*
X26660000Y19040000D03*
X29200000Y19040000D03*
X31740000Y19040000D03*
X34280000Y19040000D03*
X36820000Y19040000D03*
X39360000Y19040000D03*
X41900000Y19040000D03*
X44440000Y19040000D03*
X46980000Y19040000D03*
X49520000Y19040000D03*
D16*
X16520000Y16360000D03*
D17*
X13980000Y16360000D03*
X11440000Y16360000D03*
X8900000Y16360000D03*
D18*
X12420000Y4410000D03*
X12420000Y5910000D03*
D11*
X45190000Y4435000D03*
X43690000Y4435000D03*
D10*
G36*
X22921171Y11555842D02*
X24048158Y12682829D01*
X25318829Y11412158D01*
X24191842Y10285171D01*
X22921171Y11555842D01*
X22921171Y11555842D01*
G37*
G36*
X24483736Y9993277D02*
X25610723Y11120264D01*
X26881394Y9849593D01*
X25754407Y8722606D01*
X24483736Y9993277D01*
X24483736Y9993277D01*
G37*
G36*
X23280381Y8789923D02*
X24407368Y9916910D01*
X25678039Y8646239D01*
X24551052Y7519252D01*
X23280381Y8789923D01*
X23280381Y8789923D01*
G37*
G36*
X21717817Y10352488D02*
X22844804Y11479475D01*
X24115475Y10208804D01*
X22988488Y9081817D01*
X21717817Y10352488D01*
X21717817Y10352488D01*
G37*
G36*
X16706862Y6877731D02*
X18552269Y8723138D01*
X19733138Y7542269D01*
X17887731Y5696862D01*
X16706862Y6877731D01*
X16706862Y6877731D01*
G37*
G36*
X19580544Y4004049D02*
X21425951Y5849456D01*
X22606820Y4668587D01*
X20761413Y2823180D01*
X19580544Y4004049D01*
X19580544Y4004049D01*
G37*
G36*
X31412497Y9177264D02*
X32331736Y10096503D01*
X33038843Y9389396D01*
X32119604Y8470157D01*
X31412497Y9177264D01*
X31412497Y9177264D01*
G37*
G36*
X32473157Y8116604D02*
X33392396Y9035843D01*
X34099503Y8328736D01*
X33180264Y7409497D01*
X32473157Y8116604D01*
X32473157Y8116604D01*
G37*
G36*
X30396497Y8161264D02*
X31315736Y9080503D01*
X32022843Y8373396D01*
X31103604Y7454157D01*
X30396497Y8161264D01*
X30396497Y8161264D01*
G37*
G36*
X31457157Y7100604D02*
X32376396Y8019843D01*
X33083503Y7312736D01*
X32164264Y6393497D01*
X31457157Y7100604D01*
X31457157Y7100604D01*
G37*
G36*
X27795736Y14966497D02*
X26876497Y15885736D01*
X27583604Y16592843D01*
X28502843Y15673604D01*
X27795736Y14966497D01*
X27795736Y14966497D01*
G37*
G36*
X28856396Y16027157D02*
X27937157Y16946396D01*
X28644264Y17653503D01*
X29563503Y16734264D01*
X28856396Y16027157D01*
X28856396Y16027157D01*
G37*
G36*
X28895736Y13866497D02*
X27976497Y14785736D01*
X28683604Y15492843D01*
X29602843Y14573604D01*
X28895736Y13866497D01*
X28895736Y13866497D01*
G37*
G36*
X29956396Y14927157D02*
X29037157Y15846396D01*
X29744264Y16553503D01*
X30663503Y15634264D01*
X29956396Y14927157D01*
X29956396Y14927157D01*
G37*
G36*
X17626497Y13034264D02*
X18545736Y13953503D01*
X19252843Y13246396D01*
X18333604Y12327157D01*
X17626497Y13034264D01*
X17626497Y13034264D01*
G37*
G36*
X18687157Y11973604D02*
X19606396Y12892843D01*
X20313503Y12185736D01*
X19394264Y11266497D01*
X18687157Y11973604D01*
X18687157Y11973604D01*
G37*
G36*
X18776497Y14134264D02*
X19695736Y15053503D01*
X20402843Y14346396D01*
X19483604Y13427157D01*
X18776497Y14134264D01*
X18776497Y14134264D01*
G37*
G36*
X19837157Y13073604D02*
X20756396Y13992843D01*
X21463503Y13285736D01*
X20544264Y12366497D01*
X19837157Y13073604D01*
X19837157Y13073604D01*
G37*
D19*
X2070000Y13610000D03*
X2070000Y16510000D03*
D20*
X1270000Y4360000D03*
X4170000Y4360000D03*
D11*
X33970000Y12110000D03*
X35470000Y12110000D03*
X35470000Y15210000D03*
X33970000Y15210000D03*
D21*
X16420000Y4410000D03*
D22*
X14420000Y4410000D03*
D21*
X12570000Y8910000D03*
D22*
X12570000Y10910000D03*
X12570000Y12910000D03*
D23*
X47615000Y4805000D03*
X47615000Y6605000D03*
D24*
X39970000Y5910000D03*
X39970000Y5410000D03*
X39970000Y4910000D03*
X39970000Y4410000D03*
X35570000Y4410000D03*
X35570000Y4910000D03*
X35570000Y5410000D03*
X35570000Y5910000D03*
D25*
X41070000Y8810000D03*
X39070000Y7860000D03*
X39070000Y9760000D03*
D10*
G36*
X30413503Y4585736D02*
X29494264Y3666497D01*
X28787157Y4373604D01*
X29706396Y5292843D01*
X30413503Y4585736D01*
X30413503Y4585736D01*
G37*
G36*
X29352843Y5646396D02*
X28433604Y4727157D01*
X27726497Y5434264D01*
X28645736Y6353503D01*
X29352843Y5646396D01*
X29352843Y5646396D01*
G37*
G36*
X31513503Y5735736D02*
X30594264Y4816497D01*
X29887157Y5523604D01*
X30806396Y6442843D01*
X31513503Y5735736D01*
X31513503Y5735736D01*
G37*
G36*
X30452843Y6796396D02*
X29533604Y5877157D01*
X28826497Y6584264D01*
X29745736Y7503503D01*
X30452843Y6796396D01*
X30452843Y6796396D01*
G37*
D26*
X10320000Y4460000D03*
X7420000Y4460000D03*
D27*
X9120000Y10810000D03*
X9120000Y13610000D03*
D19*
X5820000Y16510000D03*
X5820000Y13610000D03*
D28*
X48800000Y12800000D03*
X9300000Y7600000D03*
M02*
