M48
;DRILL file {KiCad 4.0.7} date 07/03/18 10:44:55
;FORMAT={-:-/ absolute / metric / decimal}
FMAT,2
METRIC,TZ
T1C0.305
T2C0.406
T3C0.700
T4C0.800
T5C0.914
T6C1.200
T7C0.800
T8C0.900
%
G90
G05
M71
T1
X1.32Y9.11
X2.07Y12.26
X5.945Y4.46
X7.42Y6.31
X9.17Y9.26
X10.32Y6.31
X11.32Y11.89
X19.42Y6.06
X20.17Y5.385
X23.22Y8.06
X25.12Y12.485
X35.47Y16.6
X36.895Y12.435
X37.2Y16.6
X39.06Y16.36
X41.795Y12.435
X42.195Y14.41
T2
X15.769Y6.829
X16.236Y9.489
X17.844Y13.786
X20.157Y10.532
X21.433Y10.737
X22.288Y16.801
X23.958Y6.369
X25.539Y6.528
X25.906Y14.806
X26.066Y16.262
X26.302Y10.975
X27.447Y7.
X29.517Y9.223
X30.446Y16.383
X31.824Y11.422
X32.276Y12.579
X32.483Y6.201
X32.859Y14.948
X34.3Y6.242
X34.748Y12.943
X36.129Y6.628
X38.007Y7.894
X38.008Y9.366
X40.186Y7.086
X41.241Y4.727
X42.476Y10.579
X42.829Y4.716
X44.439Y5.705
T3
X12.57Y12.91
X12.57Y10.91
X12.57Y8.91
X14.42Y4.41
X16.42Y4.41
T4
X8.9Y16.36
X11.44Y16.36
X13.98Y16.36
X16.52Y16.36
T5
X1.26Y19.04
X1.26Y1.26
X3.8Y19.04
X3.8Y1.26
X6.34Y19.04
X6.34Y1.26
X8.88Y19.04
X8.88Y1.26
X11.42Y19.04
X11.42Y1.26
X13.96Y19.04
X13.96Y1.26
X16.5Y19.04
X16.5Y1.26
X19.04Y19.04
X19.04Y1.26
X21.58Y19.04
X21.58Y1.26
X24.12Y19.04
X24.12Y1.26
X26.66Y19.04
X26.66Y1.26
X29.2Y19.04
X29.2Y1.26
X31.74Y19.04
X31.74Y1.26
X34.28Y19.04
X34.28Y1.26
X36.82Y19.04
X36.82Y1.26
X39.36Y19.04
X39.36Y1.26
X41.9Y19.04
X41.9Y1.26
X44.44Y19.04
X44.44Y1.26
X46.98Y19.04
X46.98Y1.26
X49.52Y19.04
X49.52Y1.26
T6
X44.132Y16.467
X44.132Y9.167
X49.432Y16.467
X49.432Y9.167
T7
X47.615Y6.605
X47.615Y4.805
T8
X46.132Y14.567
X46.132Y11.067
T0
M30
