G04 #@! TF.FileFunction,Copper,L2,Inr,Plane*
%FSLAX46Y46*%
G04 Gerber Fmt 4.6, Leading zero omitted, Abs format (unit mm)*
G04 Created by KiCad (PCBNEW 4.0.7) date 07/03/18 10:44:51*
%MOMM*%
%LPD*%
G01*
G04 APERTURE LIST*
%ADD10C,0.100000*%
%ADD11C,1.500000*%
%ADD12R,1.524000X1.524000*%
%ADD13C,1.524000*%
%ADD14R,1.600000X1.600000*%
%ADD15C,1.600000*%
%ADD16R,1.400000X1.400000*%
%ADD17C,1.400000*%
%ADD18C,0.762000*%
%ADD19C,0.200000*%
G04 APERTURE END LIST*
D10*
D11*
X44132000Y9167000D03*
X44132000Y16467000D03*
X49432000Y9167000D03*
X49432000Y16467000D03*
D12*
X1260000Y1260000D03*
D13*
X3800000Y1260000D03*
X6340000Y1260000D03*
X8880000Y1260000D03*
X11420000Y1260000D03*
X13960000Y1260000D03*
X16500000Y1260000D03*
X19040000Y1260000D03*
X21580000Y1260000D03*
X24120000Y1260000D03*
X26660000Y1260000D03*
X29200000Y1260000D03*
X31740000Y1260000D03*
X34280000Y1260000D03*
X36820000Y1260000D03*
X39360000Y1260000D03*
X41900000Y1260000D03*
X44440000Y1260000D03*
X46980000Y1260000D03*
X49520000Y1260000D03*
D12*
X1260000Y19040000D03*
D13*
X3800000Y19040000D03*
X6340000Y19040000D03*
X8880000Y19040000D03*
X11420000Y19040000D03*
X13960000Y19040000D03*
X16500000Y19040000D03*
X19040000Y19040000D03*
X21580000Y19040000D03*
X24120000Y19040000D03*
X26660000Y19040000D03*
X29200000Y19040000D03*
X31740000Y19040000D03*
X34280000Y19040000D03*
X36820000Y19040000D03*
X39360000Y19040000D03*
X41900000Y19040000D03*
X44440000Y19040000D03*
X46980000Y19040000D03*
X49520000Y19040000D03*
D14*
X16520000Y16360000D03*
D15*
X13980000Y16360000D03*
X11440000Y16360000D03*
X8900000Y16360000D03*
D16*
X16420000Y4410000D03*
D17*
X14420000Y4410000D03*
D16*
X12570000Y8910000D03*
D17*
X12570000Y10910000D03*
X12570000Y12910000D03*
D18*
X5945000Y4460000D03*
X37200000Y16600000D03*
X7420000Y6310000D03*
X11320000Y11890000D03*
X42195000Y14410000D03*
X36895000Y12435000D03*
X9170000Y9260000D03*
X1320000Y9110000D03*
X30446300Y16382900D03*
X21433100Y10736900D03*
X26301900Y10974600D03*
X32483500Y6200700D03*
X41240900Y4726900D03*
X25120000Y12485000D03*
X19420000Y6060000D03*
X44439300Y5705000D03*
X23220000Y8060000D03*
X20170000Y5385000D03*
X35470000Y16600000D03*
X39060000Y16360000D03*
X41795000Y12435000D03*
X10320000Y6310000D03*
X20157200Y10532000D03*
X17844000Y13785700D03*
X25905900Y14806400D03*
X40186400Y7085700D03*
X42828800Y4716500D03*
X15768700Y6828600D03*
X23958100Y6369100D03*
X34299900Y6242500D03*
X27447200Y7000100D03*
X25538600Y6528200D03*
X29517000Y9222800D03*
X31824200Y11421600D03*
X32275900Y12578800D03*
X26065700Y16262000D03*
X22287600Y16801100D03*
X16236400Y9488500D03*
X34748100Y12943300D03*
X32859100Y14947900D03*
X36128900Y6628100D03*
X42476000Y10579100D03*
X38007200Y7894000D03*
X38007500Y9366200D03*
X2070000Y12260000D03*
D19*
G36*
X48279854Y18212926D02*
X48690762Y17801300D01*
X48777277Y17765376D01*
X48611714Y17696967D01*
X48203467Y17289431D01*
X47982252Y16756688D01*
X47981749Y16179843D01*
X48202033Y15646714D01*
X48609569Y15238467D01*
X49142312Y15017252D01*
X49719157Y15016749D01*
X50015000Y15138989D01*
X50015000Y10494954D01*
X49721688Y10616748D01*
X49144843Y10617251D01*
X48611714Y10396967D01*
X48203467Y9989431D01*
X47982252Y9456688D01*
X47981749Y8879843D01*
X48202033Y8346714D01*
X48609569Y7938467D01*
X49142312Y7717252D01*
X49719157Y7716749D01*
X50015000Y7838989D01*
X50015000Y2637488D01*
X49812086Y2721745D01*
X49230466Y2722253D01*
X48692926Y2500146D01*
X48281300Y2089238D01*
X48250199Y2014339D01*
X48220146Y2087074D01*
X47809238Y2498700D01*
X47272086Y2721745D01*
X46690466Y2722253D01*
X46152926Y2500146D01*
X45741300Y2089238D01*
X45710199Y2014339D01*
X45680146Y2087074D01*
X45269238Y2498700D01*
X44732086Y2721745D01*
X44150466Y2722253D01*
X43612926Y2500146D01*
X43201300Y2089238D01*
X43170199Y2014339D01*
X43140146Y2087074D01*
X42729238Y2498700D01*
X42192086Y2721745D01*
X41610466Y2722253D01*
X41072926Y2500146D01*
X40661300Y2089238D01*
X40630199Y2014339D01*
X40600146Y2087074D01*
X40189238Y2498700D01*
X39652086Y2721745D01*
X39070466Y2722253D01*
X38532926Y2500146D01*
X38121300Y2089238D01*
X38090199Y2014339D01*
X38060146Y2087074D01*
X37649238Y2498700D01*
X37112086Y2721745D01*
X36530466Y2722253D01*
X35992926Y2500146D01*
X35581300Y2089238D01*
X35550199Y2014339D01*
X35520146Y2087074D01*
X35109238Y2498700D01*
X34572086Y2721745D01*
X33990466Y2722253D01*
X33452926Y2500146D01*
X33041300Y2089238D01*
X33010199Y2014339D01*
X32980146Y2087074D01*
X32569238Y2498700D01*
X32032086Y2721745D01*
X31450466Y2722253D01*
X30912926Y2500146D01*
X30501300Y2089238D01*
X30470199Y2014339D01*
X30440146Y2087074D01*
X30029238Y2498700D01*
X29492086Y2721745D01*
X28910466Y2722253D01*
X28372926Y2500146D01*
X27961300Y2089238D01*
X27930199Y2014339D01*
X27900146Y2087074D01*
X27489238Y2498700D01*
X26952086Y2721745D01*
X26370466Y2722253D01*
X25832926Y2500146D01*
X25421300Y2089238D01*
X25390199Y2014339D01*
X25360146Y2087074D01*
X24949238Y2498700D01*
X24412086Y2721745D01*
X23830466Y2722253D01*
X23292926Y2500146D01*
X22881300Y2089238D01*
X22850199Y2014339D01*
X22820146Y2087074D01*
X22409238Y2498700D01*
X21872086Y2721745D01*
X21290466Y2722253D01*
X20752926Y2500146D01*
X20341300Y2089238D01*
X20310199Y2014339D01*
X20280146Y2087074D01*
X19869238Y2498700D01*
X19332086Y2721745D01*
X18750466Y2722253D01*
X18212926Y2500146D01*
X17801300Y2089238D01*
X17770199Y2014339D01*
X17740146Y2087074D01*
X17329238Y2498700D01*
X16792086Y2721745D01*
X16210466Y2722253D01*
X15672926Y2500146D01*
X15261300Y2089238D01*
X15230199Y2014339D01*
X15200146Y2087074D01*
X14789238Y2498700D01*
X14252086Y2721745D01*
X13670466Y2722253D01*
X13132926Y2500146D01*
X12721300Y2089238D01*
X12690199Y2014339D01*
X12660146Y2087074D01*
X12249238Y2498700D01*
X11712086Y2721745D01*
X11130466Y2722253D01*
X10592926Y2500146D01*
X10181300Y2089238D01*
X10150199Y2014339D01*
X10120146Y2087074D01*
X9709238Y2498700D01*
X9172086Y2721745D01*
X8590466Y2722253D01*
X8052926Y2500146D01*
X7641300Y2089238D01*
X7610199Y2014339D01*
X7580146Y2087074D01*
X7169238Y2498700D01*
X6632086Y2721745D01*
X6050466Y2722253D01*
X5512926Y2500146D01*
X5101300Y2089238D01*
X5070199Y2014339D01*
X5040146Y2087074D01*
X4629238Y2498700D01*
X4092086Y2721745D01*
X3510466Y2722253D01*
X2972926Y2500146D01*
X2697482Y2225182D01*
X2686903Y2281404D01*
X2533595Y2519651D01*
X2299674Y2679482D01*
X2022000Y2735713D01*
X765000Y2735713D01*
X765000Y4245919D01*
X4863813Y4245919D01*
X5028038Y3848463D01*
X5331863Y3544107D01*
X5729032Y3379188D01*
X6159081Y3378813D01*
X6556537Y3543038D01*
X6860893Y3846863D01*
X6979601Y4132744D01*
X13019757Y4132744D01*
X13232445Y3618000D01*
X13625928Y3223830D01*
X14140301Y3010243D01*
X14697256Y3009757D01*
X15204028Y3219151D01*
X15208405Y3212349D01*
X15442326Y3052518D01*
X15720000Y2996287D01*
X17120000Y2996287D01*
X17379404Y3045097D01*
X17617651Y3198405D01*
X17777482Y3432326D01*
X17833713Y3710000D01*
X17833713Y5110000D01*
X17784903Y5369404D01*
X17631595Y5607651D01*
X17397674Y5767482D01*
X17120000Y5823713D01*
X15720000Y5823713D01*
X15460596Y5774903D01*
X15222349Y5621595D01*
X15206987Y5599112D01*
X14699699Y5809757D01*
X14142744Y5810243D01*
X13628000Y5597555D01*
X13233830Y5204072D01*
X13020243Y4689699D01*
X13019757Y4132744D01*
X6979601Y4132744D01*
X7025812Y4244032D01*
X7026187Y4674081D01*
X6861962Y5071537D01*
X6558137Y5375893D01*
X6160968Y5540812D01*
X5730919Y5541187D01*
X5333463Y5376962D01*
X5029107Y5073137D01*
X4864188Y4675968D01*
X4863813Y4245919D01*
X765000Y4245919D01*
X765000Y6095919D01*
X6338813Y6095919D01*
X6503038Y5698463D01*
X6806863Y5394107D01*
X7204032Y5229188D01*
X7634081Y5228813D01*
X8031537Y5393038D01*
X8335893Y5696863D01*
X8397786Y5845919D01*
X18338813Y5845919D01*
X18503038Y5448463D01*
X18806863Y5144107D01*
X19160579Y4997231D01*
X19253038Y4773463D01*
X19556863Y4469107D01*
X19954032Y4304188D01*
X20384081Y4303813D01*
X20781537Y4468038D01*
X20826396Y4512819D01*
X40159713Y4512819D01*
X40323938Y4115363D01*
X40627763Y3811007D01*
X41024932Y3646088D01*
X41454981Y3645713D01*
X41852437Y3809938D01*
X42156793Y4113763D01*
X42321712Y4510932D01*
X42322087Y4940981D01*
X42157862Y5338437D01*
X42005647Y5490919D01*
X43358113Y5490919D01*
X43522338Y5093463D01*
X43826163Y4789107D01*
X44223332Y4624188D01*
X44653381Y4623813D01*
X45050837Y4788038D01*
X45355193Y5091863D01*
X45520112Y5489032D01*
X45520487Y5919081D01*
X45356262Y6316537D01*
X45285767Y6387156D01*
X46514810Y6387156D01*
X46681922Y5982714D01*
X46959365Y5704787D01*
X46683009Y5428913D01*
X46515192Y5024763D01*
X46514810Y4587156D01*
X46681922Y4182714D01*
X46991087Y3873009D01*
X47395237Y3705192D01*
X47832844Y3704810D01*
X48237286Y3871922D01*
X48546991Y4181087D01*
X48714808Y4585237D01*
X48715190Y5022844D01*
X48548078Y5427286D01*
X48270635Y5705213D01*
X48546991Y5981087D01*
X48714808Y6385237D01*
X48715190Y6822844D01*
X48548078Y7227286D01*
X48238913Y7536991D01*
X47834763Y7704808D01*
X47397156Y7705190D01*
X46992714Y7538078D01*
X46683009Y7228913D01*
X46515192Y6824763D01*
X46514810Y6387156D01*
X45285767Y6387156D01*
X45052437Y6620893D01*
X44655268Y6785812D01*
X44225219Y6786187D01*
X43827763Y6621962D01*
X43523407Y6318137D01*
X43358488Y5920968D01*
X43358113Y5490919D01*
X42005647Y5490919D01*
X41854037Y5642793D01*
X41456868Y5807712D01*
X41026819Y5808087D01*
X40629363Y5643862D01*
X40325007Y5340037D01*
X40160088Y4942868D01*
X40159713Y4512819D01*
X20826396Y4512819D01*
X21085893Y4771863D01*
X21250812Y5169032D01*
X21251187Y5599081D01*
X21086962Y5996537D01*
X20783137Y6300893D01*
X20751286Y6314119D01*
X24457413Y6314119D01*
X24621638Y5916663D01*
X24925463Y5612307D01*
X25322632Y5447388D01*
X25752681Y5447013D01*
X26150137Y5611238D01*
X26454493Y5915063D01*
X26484205Y5986619D01*
X31402313Y5986619D01*
X31566538Y5589163D01*
X31870363Y5284807D01*
X32267532Y5119888D01*
X32697581Y5119513D01*
X33095037Y5283738D01*
X33399393Y5587563D01*
X33564312Y5984732D01*
X33564686Y6414019D01*
X35047713Y6414019D01*
X35211938Y6016563D01*
X35515763Y5712207D01*
X35912932Y5547288D01*
X36342981Y5546913D01*
X36740437Y5711138D01*
X37044793Y6014963D01*
X37209712Y6412132D01*
X37210087Y6842181D01*
X37045862Y7239637D01*
X36742037Y7543993D01*
X36414691Y7679919D01*
X36926013Y7679919D01*
X37090238Y7282463D01*
X37394063Y6978107D01*
X37791232Y6813188D01*
X38221281Y6812813D01*
X38618737Y6977038D01*
X38923093Y7280863D01*
X39088012Y7678032D01*
X39088387Y8108081D01*
X38924162Y8505537D01*
X38800015Y8629901D01*
X38923393Y8753063D01*
X39088312Y9150232D01*
X39088687Y9580281D01*
X38924462Y9977737D01*
X38620637Y10282093D01*
X38420930Y10365019D01*
X41394813Y10365019D01*
X41559038Y9967563D01*
X41862863Y9663207D01*
X42260032Y9498288D01*
X42690081Y9497913D01*
X42701294Y9502546D01*
X42682252Y9456688D01*
X42681749Y8879843D01*
X42902033Y8346714D01*
X43309569Y7938467D01*
X43842312Y7717252D01*
X44419157Y7716749D01*
X44952286Y7937033D01*
X45360533Y8344569D01*
X45581748Y8877312D01*
X45582251Y9454157D01*
X45361967Y9987286D01*
X44954431Y10395533D01*
X44421688Y10616748D01*
X43844843Y10617251D01*
X43556930Y10498288D01*
X43557187Y10793181D01*
X43538151Y10839254D01*
X44981801Y10839254D01*
X45156509Y10416428D01*
X45479727Y10092646D01*
X45902247Y9917200D01*
X46359746Y9916801D01*
X46782572Y10091509D01*
X47106354Y10414727D01*
X47281800Y10837247D01*
X47282199Y11294746D01*
X47107491Y11717572D01*
X46784273Y12041354D01*
X46361753Y12216800D01*
X45904254Y12217199D01*
X45481428Y12042491D01*
X45157646Y11719273D01*
X44982200Y11296753D01*
X44981801Y10839254D01*
X43538151Y10839254D01*
X43392962Y11190637D01*
X43089137Y11494993D01*
X42691968Y11659912D01*
X42261919Y11660287D01*
X41864463Y11496062D01*
X41560107Y11192237D01*
X41395188Y10795068D01*
X41394813Y10365019D01*
X38420930Y10365019D01*
X38223468Y10447012D01*
X37793419Y10447387D01*
X37395963Y10283162D01*
X37091607Y9979337D01*
X36926688Y9582168D01*
X36926313Y9152119D01*
X37090538Y8754663D01*
X37214685Y8630299D01*
X37091307Y8507137D01*
X36926388Y8109968D01*
X36926013Y7679919D01*
X36414691Y7679919D01*
X36344868Y7708912D01*
X35914819Y7709287D01*
X35517363Y7545062D01*
X35213007Y7241237D01*
X35048088Y6844068D01*
X35047713Y6414019D01*
X33564686Y6414019D01*
X33564687Y6414781D01*
X33400462Y6812237D01*
X33096637Y7116593D01*
X32699468Y7281512D01*
X32269419Y7281887D01*
X31871963Y7117662D01*
X31567607Y6813837D01*
X31402688Y6416668D01*
X31402313Y5986619D01*
X26484205Y5986619D01*
X26619412Y6312232D01*
X26619787Y6742281D01*
X26455562Y7139737D01*
X26151737Y7444093D01*
X25754568Y7609012D01*
X25324519Y7609387D01*
X24927063Y7445162D01*
X24622707Y7141337D01*
X24457788Y6744168D01*
X24457413Y6314119D01*
X20751286Y6314119D01*
X20429421Y6447769D01*
X20336962Y6671537D01*
X20033137Y6975893D01*
X19635968Y7140812D01*
X19205919Y7141187D01*
X18808463Y6976962D01*
X18504107Y6673137D01*
X18339188Y6275968D01*
X18338813Y5845919D01*
X8397786Y5845919D01*
X8500812Y6094032D01*
X8501187Y6524081D01*
X8336962Y6921537D01*
X8033137Y7225893D01*
X7635968Y7390812D01*
X7205919Y7391187D01*
X6808463Y7226962D01*
X6504107Y6923137D01*
X6339188Y6525968D01*
X6338813Y6095919D01*
X765000Y6095919D01*
X765000Y8169966D01*
X1104032Y8029188D01*
X1534081Y8028813D01*
X1931537Y8193038D01*
X2235893Y8496863D01*
X2400812Y8894032D01*
X2400944Y9045919D01*
X8088813Y9045919D01*
X8253038Y8648463D01*
X8556863Y8344107D01*
X8954032Y8179188D01*
X9384081Y8178813D01*
X9781537Y8343038D01*
X10085893Y8646863D01*
X10250812Y9044032D01*
X10251187Y9474081D01*
X10195027Y9610000D01*
X11156287Y9610000D01*
X11156287Y8210000D01*
X11205097Y7950596D01*
X11358405Y7712349D01*
X11592326Y7552518D01*
X11870000Y7496287D01*
X13270000Y7496287D01*
X13529404Y7545097D01*
X13767651Y7698405D01*
X13868442Y7845919D01*
X22138813Y7845919D01*
X22303038Y7448463D01*
X22606863Y7144107D01*
X23004032Y6979188D01*
X23434081Y6978813D01*
X23831537Y7143038D01*
X24135893Y7446863D01*
X24300812Y7844032D01*
X24301187Y8274081D01*
X24136962Y8671537D01*
X23833137Y8975893D01*
X23754084Y9008719D01*
X28435813Y9008719D01*
X28600038Y8611263D01*
X28903863Y8306907D01*
X29301032Y8141988D01*
X29731081Y8141613D01*
X30128537Y8305838D01*
X30432893Y8609663D01*
X30597812Y9006832D01*
X30598187Y9436881D01*
X30433962Y9834337D01*
X30130137Y10138693D01*
X29732968Y10303612D01*
X29302919Y10303987D01*
X28905463Y10139762D01*
X28601107Y9835937D01*
X28436188Y9438768D01*
X28435813Y9008719D01*
X23754084Y9008719D01*
X23435968Y9140812D01*
X23005919Y9141187D01*
X22608463Y8976962D01*
X22304107Y8673137D01*
X22139188Y8275968D01*
X22138813Y7845919D01*
X13868442Y7845919D01*
X13927482Y7932326D01*
X13983713Y8210000D01*
X13983713Y9274419D01*
X15155213Y9274419D01*
X15319438Y8876963D01*
X15623263Y8572607D01*
X16020432Y8407688D01*
X16450481Y8407313D01*
X16847937Y8571538D01*
X17152293Y8875363D01*
X17317212Y9272532D01*
X17317587Y9702581D01*
X17153362Y10100037D01*
X16849537Y10404393D01*
X16564336Y10522819D01*
X20351913Y10522819D01*
X20516138Y10125363D01*
X20819963Y9821007D01*
X21217132Y9656088D01*
X21647181Y9655713D01*
X22044637Y9819938D01*
X22348993Y10123763D01*
X22513912Y10520932D01*
X22514287Y10950981D01*
X22350062Y11348437D01*
X22046237Y11652793D01*
X21649068Y11817712D01*
X21219019Y11818087D01*
X20821563Y11653862D01*
X20517207Y11350037D01*
X20352288Y10952868D01*
X20351913Y10522819D01*
X16564336Y10522819D01*
X16452368Y10569312D01*
X16022319Y10569687D01*
X15624863Y10405462D01*
X15320507Y10101637D01*
X15155588Y9704468D01*
X15155213Y9274419D01*
X13983713Y9274419D01*
X13983713Y9610000D01*
X13934903Y9869404D01*
X13781595Y10107651D01*
X13547674Y10267482D01*
X13270000Y10323713D01*
X11870000Y10323713D01*
X11610596Y10274903D01*
X11372349Y10121595D01*
X11212518Y9887674D01*
X11156287Y9610000D01*
X10195027Y9610000D01*
X10086962Y9871537D01*
X9783137Y10175893D01*
X9385968Y10340812D01*
X8955919Y10341187D01*
X8558463Y10176962D01*
X8254107Y9873137D01*
X8089188Y9475968D01*
X8088813Y9045919D01*
X2400944Y9045919D01*
X2401187Y9324081D01*
X2236962Y9721537D01*
X1933137Y10025893D01*
X1535968Y10190812D01*
X1105919Y10191187D01*
X765000Y10050323D01*
X765000Y12045919D01*
X988813Y12045919D01*
X1153038Y11648463D01*
X1456863Y11344107D01*
X1854032Y11179188D01*
X2284081Y11178813D01*
X2681537Y11343038D01*
X2985893Y11646863D01*
X2997958Y11675919D01*
X10238813Y11675919D01*
X10403038Y11278463D01*
X10706863Y10974107D01*
X11104032Y10809188D01*
X11534081Y10808813D01*
X11931537Y10973038D01*
X12235893Y11276863D01*
X12332785Y11510206D01*
X12847256Y11509757D01*
X13362000Y11722445D01*
X13756170Y12115928D01*
X13820528Y12270919D01*
X24038813Y12270919D01*
X24203038Y11873463D01*
X24506863Y11569107D01*
X24904032Y11404188D01*
X25309644Y11403834D01*
X25221088Y11190568D01*
X25220713Y10760519D01*
X25384938Y10363063D01*
X25688763Y10058707D01*
X26085932Y9893788D01*
X26515981Y9893413D01*
X26913437Y10057638D01*
X27217793Y10361463D01*
X27382712Y10758632D01*
X27383087Y11188681D01*
X27375304Y11207519D01*
X30743013Y11207519D01*
X30907238Y10810063D01*
X31211063Y10505707D01*
X31608232Y10340788D01*
X32038281Y10340413D01*
X32435737Y10504638D01*
X32740093Y10808463D01*
X32905012Y11205632D01*
X32905387Y11635681D01*
X32892494Y11666886D01*
X33191793Y11965663D01*
X33356712Y12362832D01*
X33357031Y12729219D01*
X33666913Y12729219D01*
X33831138Y12331763D01*
X34134963Y12027407D01*
X34532132Y11862488D01*
X34962181Y11862113D01*
X35359637Y12026338D01*
X35554558Y12220919D01*
X35813813Y12220919D01*
X35978038Y11823463D01*
X36281863Y11519107D01*
X36679032Y11354188D01*
X37109081Y11353813D01*
X37506537Y11518038D01*
X37810893Y11821863D01*
X37975812Y12219032D01*
X37976187Y12649081D01*
X37811962Y13046537D01*
X37508137Y13350893D01*
X37110968Y13515812D01*
X36680919Y13516187D01*
X36283463Y13351962D01*
X35979107Y13048137D01*
X35814188Y12650968D01*
X35813813Y12220919D01*
X35554558Y12220919D01*
X35663993Y12330163D01*
X35828912Y12727332D01*
X35829287Y13157381D01*
X35665062Y13554837D01*
X35361237Y13859193D01*
X34964068Y14024112D01*
X34534019Y14024487D01*
X34136563Y13860262D01*
X33832207Y13556437D01*
X33667288Y13159268D01*
X33666913Y12729219D01*
X33357031Y12729219D01*
X33357087Y12792881D01*
X33192862Y13190337D01*
X32889037Y13494693D01*
X32491868Y13659612D01*
X32061819Y13659987D01*
X31664363Y13495762D01*
X31360007Y13191937D01*
X31195088Y12794768D01*
X31194713Y12364719D01*
X31207606Y12333514D01*
X30908307Y12034737D01*
X30743388Y11637568D01*
X30743013Y11207519D01*
X27375304Y11207519D01*
X27218862Y11586137D01*
X26915037Y11890493D01*
X26517868Y12055412D01*
X26112256Y12055766D01*
X26200812Y12269032D01*
X26201187Y12699081D01*
X26036962Y13096537D01*
X25733137Y13400893D01*
X25335968Y13565812D01*
X24905919Y13566187D01*
X24508463Y13401962D01*
X24204107Y13098137D01*
X24039188Y12700968D01*
X24038813Y12270919D01*
X13820528Y12270919D01*
X13969757Y12630301D01*
X13970243Y13187256D01*
X13757555Y13702000D01*
X13364072Y14096170D01*
X12849699Y14309757D01*
X12292744Y14310243D01*
X11778000Y14097555D01*
X11383830Y13704072D01*
X11170243Y13189699D01*
X11170052Y12971131D01*
X11105919Y12971187D01*
X10708463Y12806962D01*
X10404107Y12503137D01*
X10239188Y12105968D01*
X10238813Y11675919D01*
X2997958Y11675919D01*
X3150812Y12044032D01*
X3151187Y12474081D01*
X2986962Y12871537D01*
X2683137Y13175893D01*
X2285968Y13340812D01*
X1855919Y13341187D01*
X1458463Y13176962D01*
X1154107Y12873137D01*
X989188Y12475968D01*
X988813Y12045919D01*
X765000Y12045919D01*
X765000Y14733819D01*
X31777913Y14733819D01*
X31942138Y14336363D01*
X32245963Y14032007D01*
X32643132Y13867088D01*
X33073181Y13866713D01*
X33470637Y14030938D01*
X33635906Y14195919D01*
X41113813Y14195919D01*
X41278038Y13798463D01*
X41581863Y13494107D01*
X41979032Y13329188D01*
X42409081Y13328813D01*
X42806537Y13493038D01*
X43110893Y13796863D01*
X43275812Y14194032D01*
X43275938Y14339254D01*
X44981801Y14339254D01*
X45156509Y13916428D01*
X45479727Y13592646D01*
X45902247Y13417200D01*
X46359746Y13416801D01*
X46782572Y13591509D01*
X47106354Y13914727D01*
X47281800Y14337247D01*
X47282199Y14794746D01*
X47107491Y15217572D01*
X46784273Y15541354D01*
X46361753Y15716800D01*
X45904254Y15717199D01*
X45481428Y15542491D01*
X45157646Y15219273D01*
X44982200Y14796753D01*
X44981801Y14339254D01*
X43275938Y14339254D01*
X43276187Y14624081D01*
X43111962Y15021537D01*
X42808137Y15325893D01*
X42410968Y15490812D01*
X41980919Y15491187D01*
X41583463Y15326962D01*
X41279107Y15023137D01*
X41114188Y14625968D01*
X41113813Y14195919D01*
X33635906Y14195919D01*
X33774993Y14334763D01*
X33939912Y14731932D01*
X33940287Y15161981D01*
X33776062Y15559437D01*
X33472237Y15863793D01*
X33075068Y16028712D01*
X32645019Y16029087D01*
X32247563Y15864862D01*
X31943207Y15561037D01*
X31778288Y15163868D01*
X31777913Y14733819D01*
X765000Y14733819D01*
X765000Y17564287D01*
X2022000Y17564287D01*
X2281404Y17613097D01*
X2519651Y17766405D01*
X2679482Y18000326D01*
X2695099Y18077445D01*
X2970762Y17801300D01*
X3507914Y17578255D01*
X4089534Y17577747D01*
X4627074Y17799854D01*
X5038700Y18210762D01*
X5069801Y18285661D01*
X5099854Y18212926D01*
X5510762Y17801300D01*
X6047914Y17578255D01*
X6629534Y17577747D01*
X7167074Y17799854D01*
X7578700Y18210762D01*
X7609801Y18285661D01*
X7639854Y18212926D01*
X8050762Y17801300D01*
X8587914Y17578255D01*
X9169534Y17577747D01*
X9707074Y17799854D01*
X10118700Y18210762D01*
X10149801Y18285661D01*
X10179854Y18212926D01*
X10590762Y17801300D01*
X10794999Y17716494D01*
X10591428Y17632380D01*
X10169103Y17210791D01*
X9940261Y16659677D01*
X9939740Y16062941D01*
X10167620Y15511428D01*
X10589209Y15089103D01*
X11140323Y14860261D01*
X11737059Y14859740D01*
X12288572Y15087620D01*
X12710365Y15508678D01*
X13129209Y15089103D01*
X13680323Y14860261D01*
X14277059Y14859740D01*
X14828572Y15087620D01*
X15053013Y15311670D01*
X15055097Y15300596D01*
X15208405Y15062349D01*
X15442326Y14902518D01*
X15720000Y14846287D01*
X17320000Y14846287D01*
X17579404Y14895097D01*
X17817651Y15048405D01*
X17977482Y15282326D01*
X18033713Y15560000D01*
X18033713Y17160000D01*
X17984903Y17419404D01*
X17831595Y17657651D01*
X17597674Y17817482D01*
X17387391Y17860066D01*
X17738700Y18210762D01*
X17769801Y18285661D01*
X17799854Y18212926D01*
X18210762Y17801300D01*
X18747914Y17578255D01*
X19329534Y17577747D01*
X19867074Y17799854D01*
X20278700Y18210762D01*
X20309801Y18285661D01*
X20339854Y18212926D01*
X20750762Y17801300D01*
X21287914Y17578255D01*
X21535795Y17578038D01*
X21371707Y17414237D01*
X21206788Y17017068D01*
X21206413Y16587019D01*
X21370638Y16189563D01*
X21674463Y15885207D01*
X22071632Y15720288D01*
X22501681Y15719913D01*
X22899137Y15884138D01*
X23063204Y16047919D01*
X24984513Y16047919D01*
X25148738Y15650463D01*
X25452563Y15346107D01*
X25849732Y15181188D01*
X26279781Y15180813D01*
X26677237Y15345038D01*
X26981593Y15648863D01*
X27146512Y16046032D01*
X27146619Y16168819D01*
X29365113Y16168819D01*
X29529338Y15771363D01*
X29833163Y15467007D01*
X30230332Y15302088D01*
X30660381Y15301713D01*
X31057837Y15465938D01*
X31362193Y15769763D01*
X31527112Y16166932D01*
X31527487Y16596981D01*
X31363262Y16994437D01*
X31059437Y17298793D01*
X30662268Y17463712D01*
X30232219Y17464087D01*
X29834763Y17299862D01*
X29530407Y16996037D01*
X29365488Y16598868D01*
X29365113Y16168819D01*
X27146619Y16168819D01*
X27146887Y16476081D01*
X26982662Y16873537D01*
X26678837Y17177893D01*
X26281668Y17342812D01*
X25851619Y17343187D01*
X25454163Y17178962D01*
X25149807Y16875137D01*
X24984888Y16477968D01*
X24984513Y16047919D01*
X23063204Y16047919D01*
X23203493Y16187963D01*
X23368412Y16585132D01*
X23368787Y17015181D01*
X23204562Y17412637D01*
X22900737Y17716993D01*
X22503568Y17881912D01*
X22489288Y17881924D01*
X22818700Y18210762D01*
X22849801Y18285661D01*
X22879854Y18212926D01*
X23290762Y17801300D01*
X23827914Y17578255D01*
X24409534Y17577747D01*
X24947074Y17799854D01*
X25358700Y18210762D01*
X25389801Y18285661D01*
X25419854Y18212926D01*
X25830762Y17801300D01*
X26367914Y17578255D01*
X26949534Y17577747D01*
X27487074Y17799854D01*
X27898700Y18210762D01*
X27929801Y18285661D01*
X27959854Y18212926D01*
X28370762Y17801300D01*
X28907914Y17578255D01*
X29489534Y17577747D01*
X30027074Y17799854D01*
X30438700Y18210762D01*
X30469801Y18285661D01*
X30499854Y18212926D01*
X30910762Y17801300D01*
X31447914Y17578255D01*
X32029534Y17577747D01*
X32567074Y17799854D01*
X32978700Y18210762D01*
X33009801Y18285661D01*
X33039854Y18212926D01*
X33450762Y17801300D01*
X33987914Y17578255D01*
X34569534Y17577747D01*
X35107074Y17799854D01*
X35518700Y18210762D01*
X35549801Y18285661D01*
X35579854Y18212926D01*
X35990762Y17801300D01*
X36527914Y17578255D01*
X36736363Y17578073D01*
X36588463Y17516962D01*
X36284107Y17213137D01*
X36119188Y16815968D01*
X36118813Y16385919D01*
X36283038Y15988463D01*
X36586863Y15684107D01*
X36984032Y15519188D01*
X37414081Y15518813D01*
X37811537Y15683038D01*
X38115893Y15986863D01*
X38280812Y16384032D01*
X38281187Y16814081D01*
X38116962Y17211537D01*
X37813137Y17515893D01*
X37415968Y17680812D01*
X37359090Y17680862D01*
X37647074Y17799854D01*
X38058700Y18210762D01*
X38089801Y18285661D01*
X38119854Y18212926D01*
X38530762Y17801300D01*
X39067914Y17578255D01*
X39649534Y17577747D01*
X40187074Y17799854D01*
X40598700Y18210762D01*
X40629801Y18285661D01*
X40659854Y18212926D01*
X41070762Y17801300D01*
X41607914Y17578255D01*
X42189534Y17577747D01*
X42727074Y17799854D01*
X43138700Y18210762D01*
X43169801Y18285661D01*
X43199854Y18212926D01*
X43597171Y17814915D01*
X43311714Y17696967D01*
X42903467Y17289431D01*
X42682252Y16756688D01*
X42681749Y16179843D01*
X42902033Y15646714D01*
X43309569Y15238467D01*
X43842312Y15017252D01*
X44419157Y15016749D01*
X44952286Y15237033D01*
X45360533Y15644569D01*
X45581748Y16177312D01*
X45582251Y16754157D01*
X45361967Y17287286D01*
X44972001Y17677932D01*
X45267074Y17799854D01*
X45678700Y18210762D01*
X45709801Y18285661D01*
X45739854Y18212926D01*
X46150762Y17801300D01*
X46687914Y17578255D01*
X47269534Y17577747D01*
X47807074Y17799854D01*
X48218700Y18210762D01*
X48249801Y18285661D01*
X48279854Y18212926D01*
X48279854Y18212926D01*
G37*
X48279854Y18212926D02*
X48690762Y17801300D01*
X48777277Y17765376D01*
X48611714Y17696967D01*
X48203467Y17289431D01*
X47982252Y16756688D01*
X47981749Y16179843D01*
X48202033Y15646714D01*
X48609569Y15238467D01*
X49142312Y15017252D01*
X49719157Y15016749D01*
X50015000Y15138989D01*
X50015000Y10494954D01*
X49721688Y10616748D01*
X49144843Y10617251D01*
X48611714Y10396967D01*
X48203467Y9989431D01*
X47982252Y9456688D01*
X47981749Y8879843D01*
X48202033Y8346714D01*
X48609569Y7938467D01*
X49142312Y7717252D01*
X49719157Y7716749D01*
X50015000Y7838989D01*
X50015000Y2637488D01*
X49812086Y2721745D01*
X49230466Y2722253D01*
X48692926Y2500146D01*
X48281300Y2089238D01*
X48250199Y2014339D01*
X48220146Y2087074D01*
X47809238Y2498700D01*
X47272086Y2721745D01*
X46690466Y2722253D01*
X46152926Y2500146D01*
X45741300Y2089238D01*
X45710199Y2014339D01*
X45680146Y2087074D01*
X45269238Y2498700D01*
X44732086Y2721745D01*
X44150466Y2722253D01*
X43612926Y2500146D01*
X43201300Y2089238D01*
X43170199Y2014339D01*
X43140146Y2087074D01*
X42729238Y2498700D01*
X42192086Y2721745D01*
X41610466Y2722253D01*
X41072926Y2500146D01*
X40661300Y2089238D01*
X40630199Y2014339D01*
X40600146Y2087074D01*
X40189238Y2498700D01*
X39652086Y2721745D01*
X39070466Y2722253D01*
X38532926Y2500146D01*
X38121300Y2089238D01*
X38090199Y2014339D01*
X38060146Y2087074D01*
X37649238Y2498700D01*
X37112086Y2721745D01*
X36530466Y2722253D01*
X35992926Y2500146D01*
X35581300Y2089238D01*
X35550199Y2014339D01*
X35520146Y2087074D01*
X35109238Y2498700D01*
X34572086Y2721745D01*
X33990466Y2722253D01*
X33452926Y2500146D01*
X33041300Y2089238D01*
X33010199Y2014339D01*
X32980146Y2087074D01*
X32569238Y2498700D01*
X32032086Y2721745D01*
X31450466Y2722253D01*
X30912926Y2500146D01*
X30501300Y2089238D01*
X30470199Y2014339D01*
X30440146Y2087074D01*
X30029238Y2498700D01*
X29492086Y2721745D01*
X28910466Y2722253D01*
X28372926Y2500146D01*
X27961300Y2089238D01*
X27930199Y2014339D01*
X27900146Y2087074D01*
X27489238Y2498700D01*
X26952086Y2721745D01*
X26370466Y2722253D01*
X25832926Y2500146D01*
X25421300Y2089238D01*
X25390199Y2014339D01*
X25360146Y2087074D01*
X24949238Y2498700D01*
X24412086Y2721745D01*
X23830466Y2722253D01*
X23292926Y2500146D01*
X22881300Y2089238D01*
X22850199Y2014339D01*
X22820146Y2087074D01*
X22409238Y2498700D01*
X21872086Y2721745D01*
X21290466Y2722253D01*
X20752926Y2500146D01*
X20341300Y2089238D01*
X20310199Y2014339D01*
X20280146Y2087074D01*
X19869238Y2498700D01*
X19332086Y2721745D01*
X18750466Y2722253D01*
X18212926Y2500146D01*
X17801300Y2089238D01*
X17770199Y2014339D01*
X17740146Y2087074D01*
X17329238Y2498700D01*
X16792086Y2721745D01*
X16210466Y2722253D01*
X15672926Y2500146D01*
X15261300Y2089238D01*
X15230199Y2014339D01*
X15200146Y2087074D01*
X14789238Y2498700D01*
X14252086Y2721745D01*
X13670466Y2722253D01*
X13132926Y2500146D01*
X12721300Y2089238D01*
X12690199Y2014339D01*
X12660146Y2087074D01*
X12249238Y2498700D01*
X11712086Y2721745D01*
X11130466Y2722253D01*
X10592926Y2500146D01*
X10181300Y2089238D01*
X10150199Y2014339D01*
X10120146Y2087074D01*
X9709238Y2498700D01*
X9172086Y2721745D01*
X8590466Y2722253D01*
X8052926Y2500146D01*
X7641300Y2089238D01*
X7610199Y2014339D01*
X7580146Y2087074D01*
X7169238Y2498700D01*
X6632086Y2721745D01*
X6050466Y2722253D01*
X5512926Y2500146D01*
X5101300Y2089238D01*
X5070199Y2014339D01*
X5040146Y2087074D01*
X4629238Y2498700D01*
X4092086Y2721745D01*
X3510466Y2722253D01*
X2972926Y2500146D01*
X2697482Y2225182D01*
X2686903Y2281404D01*
X2533595Y2519651D01*
X2299674Y2679482D01*
X2022000Y2735713D01*
X765000Y2735713D01*
X765000Y4245919D01*
X4863813Y4245919D01*
X5028038Y3848463D01*
X5331863Y3544107D01*
X5729032Y3379188D01*
X6159081Y3378813D01*
X6556537Y3543038D01*
X6860893Y3846863D01*
X6979601Y4132744D01*
X13019757Y4132744D01*
X13232445Y3618000D01*
X13625928Y3223830D01*
X14140301Y3010243D01*
X14697256Y3009757D01*
X15204028Y3219151D01*
X15208405Y3212349D01*
X15442326Y3052518D01*
X15720000Y2996287D01*
X17120000Y2996287D01*
X17379404Y3045097D01*
X17617651Y3198405D01*
X17777482Y3432326D01*
X17833713Y3710000D01*
X17833713Y5110000D01*
X17784903Y5369404D01*
X17631595Y5607651D01*
X17397674Y5767482D01*
X17120000Y5823713D01*
X15720000Y5823713D01*
X15460596Y5774903D01*
X15222349Y5621595D01*
X15206987Y5599112D01*
X14699699Y5809757D01*
X14142744Y5810243D01*
X13628000Y5597555D01*
X13233830Y5204072D01*
X13020243Y4689699D01*
X13019757Y4132744D01*
X6979601Y4132744D01*
X7025812Y4244032D01*
X7026187Y4674081D01*
X6861962Y5071537D01*
X6558137Y5375893D01*
X6160968Y5540812D01*
X5730919Y5541187D01*
X5333463Y5376962D01*
X5029107Y5073137D01*
X4864188Y4675968D01*
X4863813Y4245919D01*
X765000Y4245919D01*
X765000Y6095919D01*
X6338813Y6095919D01*
X6503038Y5698463D01*
X6806863Y5394107D01*
X7204032Y5229188D01*
X7634081Y5228813D01*
X8031537Y5393038D01*
X8335893Y5696863D01*
X8397786Y5845919D01*
X18338813Y5845919D01*
X18503038Y5448463D01*
X18806863Y5144107D01*
X19160579Y4997231D01*
X19253038Y4773463D01*
X19556863Y4469107D01*
X19954032Y4304188D01*
X20384081Y4303813D01*
X20781537Y4468038D01*
X20826396Y4512819D01*
X40159713Y4512819D01*
X40323938Y4115363D01*
X40627763Y3811007D01*
X41024932Y3646088D01*
X41454981Y3645713D01*
X41852437Y3809938D01*
X42156793Y4113763D01*
X42321712Y4510932D01*
X42322087Y4940981D01*
X42157862Y5338437D01*
X42005647Y5490919D01*
X43358113Y5490919D01*
X43522338Y5093463D01*
X43826163Y4789107D01*
X44223332Y4624188D01*
X44653381Y4623813D01*
X45050837Y4788038D01*
X45355193Y5091863D01*
X45520112Y5489032D01*
X45520487Y5919081D01*
X45356262Y6316537D01*
X45285767Y6387156D01*
X46514810Y6387156D01*
X46681922Y5982714D01*
X46959365Y5704787D01*
X46683009Y5428913D01*
X46515192Y5024763D01*
X46514810Y4587156D01*
X46681922Y4182714D01*
X46991087Y3873009D01*
X47395237Y3705192D01*
X47832844Y3704810D01*
X48237286Y3871922D01*
X48546991Y4181087D01*
X48714808Y4585237D01*
X48715190Y5022844D01*
X48548078Y5427286D01*
X48270635Y5705213D01*
X48546991Y5981087D01*
X48714808Y6385237D01*
X48715190Y6822844D01*
X48548078Y7227286D01*
X48238913Y7536991D01*
X47834763Y7704808D01*
X47397156Y7705190D01*
X46992714Y7538078D01*
X46683009Y7228913D01*
X46515192Y6824763D01*
X46514810Y6387156D01*
X45285767Y6387156D01*
X45052437Y6620893D01*
X44655268Y6785812D01*
X44225219Y6786187D01*
X43827763Y6621962D01*
X43523407Y6318137D01*
X43358488Y5920968D01*
X43358113Y5490919D01*
X42005647Y5490919D01*
X41854037Y5642793D01*
X41456868Y5807712D01*
X41026819Y5808087D01*
X40629363Y5643862D01*
X40325007Y5340037D01*
X40160088Y4942868D01*
X40159713Y4512819D01*
X20826396Y4512819D01*
X21085893Y4771863D01*
X21250812Y5169032D01*
X21251187Y5599081D01*
X21086962Y5996537D01*
X20783137Y6300893D01*
X20751286Y6314119D01*
X24457413Y6314119D01*
X24621638Y5916663D01*
X24925463Y5612307D01*
X25322632Y5447388D01*
X25752681Y5447013D01*
X26150137Y5611238D01*
X26454493Y5915063D01*
X26484205Y5986619D01*
X31402313Y5986619D01*
X31566538Y5589163D01*
X31870363Y5284807D01*
X32267532Y5119888D01*
X32697581Y5119513D01*
X33095037Y5283738D01*
X33399393Y5587563D01*
X33564312Y5984732D01*
X33564686Y6414019D01*
X35047713Y6414019D01*
X35211938Y6016563D01*
X35515763Y5712207D01*
X35912932Y5547288D01*
X36342981Y5546913D01*
X36740437Y5711138D01*
X37044793Y6014963D01*
X37209712Y6412132D01*
X37210087Y6842181D01*
X37045862Y7239637D01*
X36742037Y7543993D01*
X36414691Y7679919D01*
X36926013Y7679919D01*
X37090238Y7282463D01*
X37394063Y6978107D01*
X37791232Y6813188D01*
X38221281Y6812813D01*
X38618737Y6977038D01*
X38923093Y7280863D01*
X39088012Y7678032D01*
X39088387Y8108081D01*
X38924162Y8505537D01*
X38800015Y8629901D01*
X38923393Y8753063D01*
X39088312Y9150232D01*
X39088687Y9580281D01*
X38924462Y9977737D01*
X38620637Y10282093D01*
X38420930Y10365019D01*
X41394813Y10365019D01*
X41559038Y9967563D01*
X41862863Y9663207D01*
X42260032Y9498288D01*
X42690081Y9497913D01*
X42701294Y9502546D01*
X42682252Y9456688D01*
X42681749Y8879843D01*
X42902033Y8346714D01*
X43309569Y7938467D01*
X43842312Y7717252D01*
X44419157Y7716749D01*
X44952286Y7937033D01*
X45360533Y8344569D01*
X45581748Y8877312D01*
X45582251Y9454157D01*
X45361967Y9987286D01*
X44954431Y10395533D01*
X44421688Y10616748D01*
X43844843Y10617251D01*
X43556930Y10498288D01*
X43557187Y10793181D01*
X43538151Y10839254D01*
X44981801Y10839254D01*
X45156509Y10416428D01*
X45479727Y10092646D01*
X45902247Y9917200D01*
X46359746Y9916801D01*
X46782572Y10091509D01*
X47106354Y10414727D01*
X47281800Y10837247D01*
X47282199Y11294746D01*
X47107491Y11717572D01*
X46784273Y12041354D01*
X46361753Y12216800D01*
X45904254Y12217199D01*
X45481428Y12042491D01*
X45157646Y11719273D01*
X44982200Y11296753D01*
X44981801Y10839254D01*
X43538151Y10839254D01*
X43392962Y11190637D01*
X43089137Y11494993D01*
X42691968Y11659912D01*
X42261919Y11660287D01*
X41864463Y11496062D01*
X41560107Y11192237D01*
X41395188Y10795068D01*
X41394813Y10365019D01*
X38420930Y10365019D01*
X38223468Y10447012D01*
X37793419Y10447387D01*
X37395963Y10283162D01*
X37091607Y9979337D01*
X36926688Y9582168D01*
X36926313Y9152119D01*
X37090538Y8754663D01*
X37214685Y8630299D01*
X37091307Y8507137D01*
X36926388Y8109968D01*
X36926013Y7679919D01*
X36414691Y7679919D01*
X36344868Y7708912D01*
X35914819Y7709287D01*
X35517363Y7545062D01*
X35213007Y7241237D01*
X35048088Y6844068D01*
X35047713Y6414019D01*
X33564686Y6414019D01*
X33564687Y6414781D01*
X33400462Y6812237D01*
X33096637Y7116593D01*
X32699468Y7281512D01*
X32269419Y7281887D01*
X31871963Y7117662D01*
X31567607Y6813837D01*
X31402688Y6416668D01*
X31402313Y5986619D01*
X26484205Y5986619D01*
X26619412Y6312232D01*
X26619787Y6742281D01*
X26455562Y7139737D01*
X26151737Y7444093D01*
X25754568Y7609012D01*
X25324519Y7609387D01*
X24927063Y7445162D01*
X24622707Y7141337D01*
X24457788Y6744168D01*
X24457413Y6314119D01*
X20751286Y6314119D01*
X20429421Y6447769D01*
X20336962Y6671537D01*
X20033137Y6975893D01*
X19635968Y7140812D01*
X19205919Y7141187D01*
X18808463Y6976962D01*
X18504107Y6673137D01*
X18339188Y6275968D01*
X18338813Y5845919D01*
X8397786Y5845919D01*
X8500812Y6094032D01*
X8501187Y6524081D01*
X8336962Y6921537D01*
X8033137Y7225893D01*
X7635968Y7390812D01*
X7205919Y7391187D01*
X6808463Y7226962D01*
X6504107Y6923137D01*
X6339188Y6525968D01*
X6338813Y6095919D01*
X765000Y6095919D01*
X765000Y8169966D01*
X1104032Y8029188D01*
X1534081Y8028813D01*
X1931537Y8193038D01*
X2235893Y8496863D01*
X2400812Y8894032D01*
X2400944Y9045919D01*
X8088813Y9045919D01*
X8253038Y8648463D01*
X8556863Y8344107D01*
X8954032Y8179188D01*
X9384081Y8178813D01*
X9781537Y8343038D01*
X10085893Y8646863D01*
X10250812Y9044032D01*
X10251187Y9474081D01*
X10195027Y9610000D01*
X11156287Y9610000D01*
X11156287Y8210000D01*
X11205097Y7950596D01*
X11358405Y7712349D01*
X11592326Y7552518D01*
X11870000Y7496287D01*
X13270000Y7496287D01*
X13529404Y7545097D01*
X13767651Y7698405D01*
X13868442Y7845919D01*
X22138813Y7845919D01*
X22303038Y7448463D01*
X22606863Y7144107D01*
X23004032Y6979188D01*
X23434081Y6978813D01*
X23831537Y7143038D01*
X24135893Y7446863D01*
X24300812Y7844032D01*
X24301187Y8274081D01*
X24136962Y8671537D01*
X23833137Y8975893D01*
X23754084Y9008719D01*
X28435813Y9008719D01*
X28600038Y8611263D01*
X28903863Y8306907D01*
X29301032Y8141988D01*
X29731081Y8141613D01*
X30128537Y8305838D01*
X30432893Y8609663D01*
X30597812Y9006832D01*
X30598187Y9436881D01*
X30433962Y9834337D01*
X30130137Y10138693D01*
X29732968Y10303612D01*
X29302919Y10303987D01*
X28905463Y10139762D01*
X28601107Y9835937D01*
X28436188Y9438768D01*
X28435813Y9008719D01*
X23754084Y9008719D01*
X23435968Y9140812D01*
X23005919Y9141187D01*
X22608463Y8976962D01*
X22304107Y8673137D01*
X22139188Y8275968D01*
X22138813Y7845919D01*
X13868442Y7845919D01*
X13927482Y7932326D01*
X13983713Y8210000D01*
X13983713Y9274419D01*
X15155213Y9274419D01*
X15319438Y8876963D01*
X15623263Y8572607D01*
X16020432Y8407688D01*
X16450481Y8407313D01*
X16847937Y8571538D01*
X17152293Y8875363D01*
X17317212Y9272532D01*
X17317587Y9702581D01*
X17153362Y10100037D01*
X16849537Y10404393D01*
X16564336Y10522819D01*
X20351913Y10522819D01*
X20516138Y10125363D01*
X20819963Y9821007D01*
X21217132Y9656088D01*
X21647181Y9655713D01*
X22044637Y9819938D01*
X22348993Y10123763D01*
X22513912Y10520932D01*
X22514287Y10950981D01*
X22350062Y11348437D01*
X22046237Y11652793D01*
X21649068Y11817712D01*
X21219019Y11818087D01*
X20821563Y11653862D01*
X20517207Y11350037D01*
X20352288Y10952868D01*
X20351913Y10522819D01*
X16564336Y10522819D01*
X16452368Y10569312D01*
X16022319Y10569687D01*
X15624863Y10405462D01*
X15320507Y10101637D01*
X15155588Y9704468D01*
X15155213Y9274419D01*
X13983713Y9274419D01*
X13983713Y9610000D01*
X13934903Y9869404D01*
X13781595Y10107651D01*
X13547674Y10267482D01*
X13270000Y10323713D01*
X11870000Y10323713D01*
X11610596Y10274903D01*
X11372349Y10121595D01*
X11212518Y9887674D01*
X11156287Y9610000D01*
X10195027Y9610000D01*
X10086962Y9871537D01*
X9783137Y10175893D01*
X9385968Y10340812D01*
X8955919Y10341187D01*
X8558463Y10176962D01*
X8254107Y9873137D01*
X8089188Y9475968D01*
X8088813Y9045919D01*
X2400944Y9045919D01*
X2401187Y9324081D01*
X2236962Y9721537D01*
X1933137Y10025893D01*
X1535968Y10190812D01*
X1105919Y10191187D01*
X765000Y10050323D01*
X765000Y12045919D01*
X988813Y12045919D01*
X1153038Y11648463D01*
X1456863Y11344107D01*
X1854032Y11179188D01*
X2284081Y11178813D01*
X2681537Y11343038D01*
X2985893Y11646863D01*
X2997958Y11675919D01*
X10238813Y11675919D01*
X10403038Y11278463D01*
X10706863Y10974107D01*
X11104032Y10809188D01*
X11534081Y10808813D01*
X11931537Y10973038D01*
X12235893Y11276863D01*
X12332785Y11510206D01*
X12847256Y11509757D01*
X13362000Y11722445D01*
X13756170Y12115928D01*
X13820528Y12270919D01*
X24038813Y12270919D01*
X24203038Y11873463D01*
X24506863Y11569107D01*
X24904032Y11404188D01*
X25309644Y11403834D01*
X25221088Y11190568D01*
X25220713Y10760519D01*
X25384938Y10363063D01*
X25688763Y10058707D01*
X26085932Y9893788D01*
X26515981Y9893413D01*
X26913437Y10057638D01*
X27217793Y10361463D01*
X27382712Y10758632D01*
X27383087Y11188681D01*
X27375304Y11207519D01*
X30743013Y11207519D01*
X30907238Y10810063D01*
X31211063Y10505707D01*
X31608232Y10340788D01*
X32038281Y10340413D01*
X32435737Y10504638D01*
X32740093Y10808463D01*
X32905012Y11205632D01*
X32905387Y11635681D01*
X32892494Y11666886D01*
X33191793Y11965663D01*
X33356712Y12362832D01*
X33357031Y12729219D01*
X33666913Y12729219D01*
X33831138Y12331763D01*
X34134963Y12027407D01*
X34532132Y11862488D01*
X34962181Y11862113D01*
X35359637Y12026338D01*
X35554558Y12220919D01*
X35813813Y12220919D01*
X35978038Y11823463D01*
X36281863Y11519107D01*
X36679032Y11354188D01*
X37109081Y11353813D01*
X37506537Y11518038D01*
X37810893Y11821863D01*
X37975812Y12219032D01*
X37976187Y12649081D01*
X37811962Y13046537D01*
X37508137Y13350893D01*
X37110968Y13515812D01*
X36680919Y13516187D01*
X36283463Y13351962D01*
X35979107Y13048137D01*
X35814188Y12650968D01*
X35813813Y12220919D01*
X35554558Y12220919D01*
X35663993Y12330163D01*
X35828912Y12727332D01*
X35829287Y13157381D01*
X35665062Y13554837D01*
X35361237Y13859193D01*
X34964068Y14024112D01*
X34534019Y14024487D01*
X34136563Y13860262D01*
X33832207Y13556437D01*
X33667288Y13159268D01*
X33666913Y12729219D01*
X33357031Y12729219D01*
X33357087Y12792881D01*
X33192862Y13190337D01*
X32889037Y13494693D01*
X32491868Y13659612D01*
X32061819Y13659987D01*
X31664363Y13495762D01*
X31360007Y13191937D01*
X31195088Y12794768D01*
X31194713Y12364719D01*
X31207606Y12333514D01*
X30908307Y12034737D01*
X30743388Y11637568D01*
X30743013Y11207519D01*
X27375304Y11207519D01*
X27218862Y11586137D01*
X26915037Y11890493D01*
X26517868Y12055412D01*
X26112256Y12055766D01*
X26200812Y12269032D01*
X26201187Y12699081D01*
X26036962Y13096537D01*
X25733137Y13400893D01*
X25335968Y13565812D01*
X24905919Y13566187D01*
X24508463Y13401962D01*
X24204107Y13098137D01*
X24039188Y12700968D01*
X24038813Y12270919D01*
X13820528Y12270919D01*
X13969757Y12630301D01*
X13970243Y13187256D01*
X13757555Y13702000D01*
X13364072Y14096170D01*
X12849699Y14309757D01*
X12292744Y14310243D01*
X11778000Y14097555D01*
X11383830Y13704072D01*
X11170243Y13189699D01*
X11170052Y12971131D01*
X11105919Y12971187D01*
X10708463Y12806962D01*
X10404107Y12503137D01*
X10239188Y12105968D01*
X10238813Y11675919D01*
X2997958Y11675919D01*
X3150812Y12044032D01*
X3151187Y12474081D01*
X2986962Y12871537D01*
X2683137Y13175893D01*
X2285968Y13340812D01*
X1855919Y13341187D01*
X1458463Y13176962D01*
X1154107Y12873137D01*
X989188Y12475968D01*
X988813Y12045919D01*
X765000Y12045919D01*
X765000Y14733819D01*
X31777913Y14733819D01*
X31942138Y14336363D01*
X32245963Y14032007D01*
X32643132Y13867088D01*
X33073181Y13866713D01*
X33470637Y14030938D01*
X33635906Y14195919D01*
X41113813Y14195919D01*
X41278038Y13798463D01*
X41581863Y13494107D01*
X41979032Y13329188D01*
X42409081Y13328813D01*
X42806537Y13493038D01*
X43110893Y13796863D01*
X43275812Y14194032D01*
X43275938Y14339254D01*
X44981801Y14339254D01*
X45156509Y13916428D01*
X45479727Y13592646D01*
X45902247Y13417200D01*
X46359746Y13416801D01*
X46782572Y13591509D01*
X47106354Y13914727D01*
X47281800Y14337247D01*
X47282199Y14794746D01*
X47107491Y15217572D01*
X46784273Y15541354D01*
X46361753Y15716800D01*
X45904254Y15717199D01*
X45481428Y15542491D01*
X45157646Y15219273D01*
X44982200Y14796753D01*
X44981801Y14339254D01*
X43275938Y14339254D01*
X43276187Y14624081D01*
X43111962Y15021537D01*
X42808137Y15325893D01*
X42410968Y15490812D01*
X41980919Y15491187D01*
X41583463Y15326962D01*
X41279107Y15023137D01*
X41114188Y14625968D01*
X41113813Y14195919D01*
X33635906Y14195919D01*
X33774993Y14334763D01*
X33939912Y14731932D01*
X33940287Y15161981D01*
X33776062Y15559437D01*
X33472237Y15863793D01*
X33075068Y16028712D01*
X32645019Y16029087D01*
X32247563Y15864862D01*
X31943207Y15561037D01*
X31778288Y15163868D01*
X31777913Y14733819D01*
X765000Y14733819D01*
X765000Y17564287D01*
X2022000Y17564287D01*
X2281404Y17613097D01*
X2519651Y17766405D01*
X2679482Y18000326D01*
X2695099Y18077445D01*
X2970762Y17801300D01*
X3507914Y17578255D01*
X4089534Y17577747D01*
X4627074Y17799854D01*
X5038700Y18210762D01*
X5069801Y18285661D01*
X5099854Y18212926D01*
X5510762Y17801300D01*
X6047914Y17578255D01*
X6629534Y17577747D01*
X7167074Y17799854D01*
X7578700Y18210762D01*
X7609801Y18285661D01*
X7639854Y18212926D01*
X8050762Y17801300D01*
X8587914Y17578255D01*
X9169534Y17577747D01*
X9707074Y17799854D01*
X10118700Y18210762D01*
X10149801Y18285661D01*
X10179854Y18212926D01*
X10590762Y17801300D01*
X10794999Y17716494D01*
X10591428Y17632380D01*
X10169103Y17210791D01*
X9940261Y16659677D01*
X9939740Y16062941D01*
X10167620Y15511428D01*
X10589209Y15089103D01*
X11140323Y14860261D01*
X11737059Y14859740D01*
X12288572Y15087620D01*
X12710365Y15508678D01*
X13129209Y15089103D01*
X13680323Y14860261D01*
X14277059Y14859740D01*
X14828572Y15087620D01*
X15053013Y15311670D01*
X15055097Y15300596D01*
X15208405Y15062349D01*
X15442326Y14902518D01*
X15720000Y14846287D01*
X17320000Y14846287D01*
X17579404Y14895097D01*
X17817651Y15048405D01*
X17977482Y15282326D01*
X18033713Y15560000D01*
X18033713Y17160000D01*
X17984903Y17419404D01*
X17831595Y17657651D01*
X17597674Y17817482D01*
X17387391Y17860066D01*
X17738700Y18210762D01*
X17769801Y18285661D01*
X17799854Y18212926D01*
X18210762Y17801300D01*
X18747914Y17578255D01*
X19329534Y17577747D01*
X19867074Y17799854D01*
X20278700Y18210762D01*
X20309801Y18285661D01*
X20339854Y18212926D01*
X20750762Y17801300D01*
X21287914Y17578255D01*
X21535795Y17578038D01*
X21371707Y17414237D01*
X21206788Y17017068D01*
X21206413Y16587019D01*
X21370638Y16189563D01*
X21674463Y15885207D01*
X22071632Y15720288D01*
X22501681Y15719913D01*
X22899137Y15884138D01*
X23063204Y16047919D01*
X24984513Y16047919D01*
X25148738Y15650463D01*
X25452563Y15346107D01*
X25849732Y15181188D01*
X26279781Y15180813D01*
X26677237Y15345038D01*
X26981593Y15648863D01*
X27146512Y16046032D01*
X27146619Y16168819D01*
X29365113Y16168819D01*
X29529338Y15771363D01*
X29833163Y15467007D01*
X30230332Y15302088D01*
X30660381Y15301713D01*
X31057837Y15465938D01*
X31362193Y15769763D01*
X31527112Y16166932D01*
X31527487Y16596981D01*
X31363262Y16994437D01*
X31059437Y17298793D01*
X30662268Y17463712D01*
X30232219Y17464087D01*
X29834763Y17299862D01*
X29530407Y16996037D01*
X29365488Y16598868D01*
X29365113Y16168819D01*
X27146619Y16168819D01*
X27146887Y16476081D01*
X26982662Y16873537D01*
X26678837Y17177893D01*
X26281668Y17342812D01*
X25851619Y17343187D01*
X25454163Y17178962D01*
X25149807Y16875137D01*
X24984888Y16477968D01*
X24984513Y16047919D01*
X23063204Y16047919D01*
X23203493Y16187963D01*
X23368412Y16585132D01*
X23368787Y17015181D01*
X23204562Y17412637D01*
X22900737Y17716993D01*
X22503568Y17881912D01*
X22489288Y17881924D01*
X22818700Y18210762D01*
X22849801Y18285661D01*
X22879854Y18212926D01*
X23290762Y17801300D01*
X23827914Y17578255D01*
X24409534Y17577747D01*
X24947074Y17799854D01*
X25358700Y18210762D01*
X25389801Y18285661D01*
X25419854Y18212926D01*
X25830762Y17801300D01*
X26367914Y17578255D01*
X26949534Y17577747D01*
X27487074Y17799854D01*
X27898700Y18210762D01*
X27929801Y18285661D01*
X27959854Y18212926D01*
X28370762Y17801300D01*
X28907914Y17578255D01*
X29489534Y17577747D01*
X30027074Y17799854D01*
X30438700Y18210762D01*
X30469801Y18285661D01*
X30499854Y18212926D01*
X30910762Y17801300D01*
X31447914Y17578255D01*
X32029534Y17577747D01*
X32567074Y17799854D01*
X32978700Y18210762D01*
X33009801Y18285661D01*
X33039854Y18212926D01*
X33450762Y17801300D01*
X33987914Y17578255D01*
X34569534Y17577747D01*
X35107074Y17799854D01*
X35518700Y18210762D01*
X35549801Y18285661D01*
X35579854Y18212926D01*
X35990762Y17801300D01*
X36527914Y17578255D01*
X36736363Y17578073D01*
X36588463Y17516962D01*
X36284107Y17213137D01*
X36119188Y16815968D01*
X36118813Y16385919D01*
X36283038Y15988463D01*
X36586863Y15684107D01*
X36984032Y15519188D01*
X37414081Y15518813D01*
X37811537Y15683038D01*
X38115893Y15986863D01*
X38280812Y16384032D01*
X38281187Y16814081D01*
X38116962Y17211537D01*
X37813137Y17515893D01*
X37415968Y17680812D01*
X37359090Y17680862D01*
X37647074Y17799854D01*
X38058700Y18210762D01*
X38089801Y18285661D01*
X38119854Y18212926D01*
X38530762Y17801300D01*
X39067914Y17578255D01*
X39649534Y17577747D01*
X40187074Y17799854D01*
X40598700Y18210762D01*
X40629801Y18285661D01*
X40659854Y18212926D01*
X41070762Y17801300D01*
X41607914Y17578255D01*
X42189534Y17577747D01*
X42727074Y17799854D01*
X43138700Y18210762D01*
X43169801Y18285661D01*
X43199854Y18212926D01*
X43597171Y17814915D01*
X43311714Y17696967D01*
X42903467Y17289431D01*
X42682252Y16756688D01*
X42681749Y16179843D01*
X42902033Y15646714D01*
X43309569Y15238467D01*
X43842312Y15017252D01*
X44419157Y15016749D01*
X44952286Y15237033D01*
X45360533Y15644569D01*
X45581748Y16177312D01*
X45582251Y16754157D01*
X45361967Y17287286D01*
X44972001Y17677932D01*
X45267074Y17799854D01*
X45678700Y18210762D01*
X45709801Y18285661D01*
X45739854Y18212926D01*
X46150762Y17801300D01*
X46687914Y17578255D01*
X47269534Y17577747D01*
X47807074Y17799854D01*
X48218700Y18210762D01*
X48249801Y18285661D01*
X48279854Y18212926D01*
M02*
