G04 #@! TF.FileFunction,Legend,Top*
%FSLAX46Y46*%
G04 Gerber Fmt 4.6, Leading zero omitted, Abs format (unit mm)*
G04 Created by KiCad (PCBNEW 4.0.7) date 07/03/18 10:44:51*
%MOMM*%
%LPD*%
G01*
G04 APERTURE LIST*
%ADD10C,0.100000*%
%ADD11C,0.150000*%
%ADD12C,0.200000*%
%ADD13C,0.152400*%
%ADD14C,0.300000*%
%ADD15C,0.250000*%
%ADD16C,0.097500*%
G04 APERTURE END LIST*
D10*
D11*
X41756667Y8487619D02*
X42375715Y8487619D01*
X42042381Y8106667D01*
X42185239Y8106667D01*
X42280477Y8059048D01*
X42328096Y8011429D01*
X42375715Y7916190D01*
X42375715Y7678095D01*
X42328096Y7582857D01*
X42280477Y7535238D01*
X42185239Y7487619D01*
X41899524Y7487619D01*
X41804286Y7535238D01*
X41756667Y7582857D01*
X42228096Y10047619D02*
X41751905Y10047619D01*
X41704286Y9571429D01*
X41751905Y9619048D01*
X41847143Y9666667D01*
X42085239Y9666667D01*
X42180477Y9619048D01*
X42228096Y9571429D01*
X42275715Y9476190D01*
X42275715Y9238095D01*
X42228096Y9142857D01*
X42180477Y9095238D01*
X42085239Y9047619D01*
X41847143Y9047619D01*
X41751905Y9095238D01*
X41704286Y9142857D01*
X11835714Y14847619D02*
X11873810Y14809524D01*
X11911905Y14695238D01*
X11911905Y14619048D01*
X11873810Y14504762D01*
X11797619Y14428571D01*
X11721429Y14390476D01*
X11569048Y14352381D01*
X11454762Y14352381D01*
X11302381Y14390476D01*
X11226190Y14428571D01*
X11150000Y14504762D01*
X11111905Y14619048D01*
X11111905Y14695238D01*
X11150000Y14809524D01*
X11188095Y14847619D01*
X13850000Y14809524D02*
X13811905Y14733333D01*
X13811905Y14619048D01*
X13850000Y14504762D01*
X13926190Y14428571D01*
X14002381Y14390476D01*
X14154762Y14352381D01*
X14269048Y14352381D01*
X14421429Y14390476D01*
X14497619Y14428571D01*
X14573810Y14504762D01*
X14611905Y14619048D01*
X14611905Y14695238D01*
X14573810Y14809524D01*
X14535714Y14847619D01*
X14269048Y14847619D01*
X14269048Y14695238D01*
X17311905Y14390476D02*
X16511905Y14390476D01*
X16511905Y14580952D01*
X16550000Y14695238D01*
X16626190Y14771429D01*
X16702381Y14809524D01*
X16854762Y14847619D01*
X16969048Y14847619D01*
X17121429Y14809524D01*
X17197619Y14771429D01*
X17273810Y14695238D01*
X17311905Y14580952D01*
X17311905Y14390476D01*
X22892857Y2720238D02*
X23035714Y2672619D01*
X23273810Y2672619D01*
X23369048Y2720238D01*
X23416667Y2767857D01*
X23464286Y2863095D01*
X23464286Y2958333D01*
X23416667Y3053571D01*
X23369048Y3101190D01*
X23273810Y3148810D01*
X23083333Y3196429D01*
X22988095Y3244048D01*
X22940476Y3291667D01*
X22892857Y3386905D01*
X22892857Y3482143D01*
X22940476Y3577381D01*
X22988095Y3625000D01*
X23083333Y3672619D01*
X23321429Y3672619D01*
X23464286Y3625000D01*
X23750000Y3672619D02*
X24321429Y3672619D01*
X24035714Y2672619D02*
X24035714Y3672619D01*
X24654762Y2672619D02*
X24654762Y3672619D01*
X24988096Y2958333D01*
X25321429Y3672619D01*
X25321429Y2672619D01*
X25702381Y3672619D02*
X26321429Y3672619D01*
X25988095Y3291667D01*
X26130953Y3291667D01*
X26226191Y3244048D01*
X26273810Y3196429D01*
X26321429Y3101190D01*
X26321429Y2863095D01*
X26273810Y2767857D01*
X26226191Y2720238D01*
X26130953Y2672619D01*
X25845238Y2672619D01*
X25750000Y2720238D01*
X25702381Y2767857D01*
X26702381Y3577381D02*
X26750000Y3625000D01*
X26845238Y3672619D01*
X27083334Y3672619D01*
X27178572Y3625000D01*
X27226191Y3577381D01*
X27273810Y3482143D01*
X27273810Y3386905D01*
X27226191Y3244048D01*
X26654762Y2672619D01*
X27273810Y2672619D01*
X28178572Y2672619D02*
X27702381Y2672619D01*
X27702381Y3672619D01*
X29035715Y2672619D02*
X28464286Y2672619D01*
X28750000Y2672619D02*
X28750000Y3672619D01*
X28654762Y3529762D01*
X28559524Y3434524D01*
X28464286Y3386905D01*
X29940477Y3672619D02*
X29464286Y3672619D01*
X29416667Y3196429D01*
X29464286Y3244048D01*
X29559524Y3291667D01*
X29797620Y3291667D01*
X29892858Y3244048D01*
X29940477Y3196429D01*
X29988096Y3101190D01*
X29988096Y2863095D01*
X29940477Y2767857D01*
X29892858Y2720238D01*
X29797620Y2672619D01*
X29559524Y2672619D01*
X29464286Y2720238D01*
X29416667Y2767857D01*
X30369048Y3577381D02*
X30416667Y3625000D01*
X30511905Y3672619D01*
X30750001Y3672619D01*
X30845239Y3625000D01*
X30892858Y3577381D01*
X30940477Y3482143D01*
X30940477Y3386905D01*
X30892858Y3244048D01*
X30321429Y2672619D01*
X30940477Y2672619D01*
X31940477Y2767857D02*
X31892858Y2720238D01*
X31750001Y2672619D01*
X31654763Y2672619D01*
X31511905Y2720238D01*
X31416667Y2815476D01*
X31369048Y2910714D01*
X31321429Y3101190D01*
X31321429Y3244048D01*
X31369048Y3434524D01*
X31416667Y3529762D01*
X31511905Y3625000D01*
X31654763Y3672619D01*
X31750001Y3672619D01*
X31892858Y3625000D01*
X31940477Y3577381D01*
X32940477Y2767857D02*
X32892858Y2720238D01*
X32750001Y2672619D01*
X32654763Y2672619D01*
X32511905Y2720238D01*
X32416667Y2815476D01*
X32369048Y2910714D01*
X32321429Y3101190D01*
X32321429Y3244048D01*
X32369048Y3434524D01*
X32416667Y3529762D01*
X32511905Y3625000D01*
X32654763Y3672619D01*
X32750001Y3672619D01*
X32892858Y3625000D01*
X32940477Y3577381D01*
X34702382Y2672619D02*
X34369048Y3148810D01*
X34130953Y2672619D02*
X34130953Y3672619D01*
X34511906Y3672619D01*
X34607144Y3625000D01*
X34654763Y3577381D01*
X34702382Y3482143D01*
X34702382Y3339286D01*
X34654763Y3244048D01*
X34607144Y3196429D01*
X34511906Y3148810D01*
X34130953Y3148810D01*
X35130953Y3196429D02*
X35464287Y3196429D01*
X35607144Y2672619D02*
X35130953Y2672619D01*
X35130953Y3672619D01*
X35607144Y3672619D01*
X35892858Y3672619D02*
X36226191Y2672619D01*
X36559525Y3672619D01*
X38178573Y2672619D02*
X37607144Y2672619D01*
X37892858Y2672619D02*
X37892858Y3672619D01*
X37797620Y3529762D01*
X37702382Y3434524D01*
X37607144Y3386905D01*
X38607144Y2767857D02*
X38654763Y2720238D01*
X38607144Y2672619D01*
X38559525Y2720238D01*
X38607144Y2767857D01*
X38607144Y2672619D01*
X39607144Y2672619D02*
X39035715Y2672619D01*
X39321429Y2672619D02*
X39321429Y3672619D01*
X39226191Y3529762D01*
X39130953Y3434524D01*
X39035715Y3386905D01*
D12*
X28771561Y16810000D02*
G75*
G03X28771561Y16810000I-801561J0D01*
G01*
D11*
X28139048Y16505238D02*
X28043810Y16457619D01*
X27853333Y16457619D01*
X27758095Y16505238D01*
X27710476Y16552857D01*
X27662857Y16648095D01*
X27662857Y16933810D01*
X27710476Y17029048D01*
X27758095Y17076667D01*
X27853333Y17124286D01*
X28043810Y17124286D01*
X28139048Y17076667D01*
X29900953Y16552857D02*
X29853334Y16505238D01*
X29710477Y16457619D01*
X29615239Y16457619D01*
X29472381Y16505238D01*
X29377143Y16600476D01*
X29329524Y16695714D01*
X29281905Y16886190D01*
X29281905Y17029048D01*
X29329524Y17219524D01*
X29377143Y17314762D01*
X29472381Y17410000D01*
X29615239Y17457619D01*
X29710477Y17457619D01*
X29853334Y17410000D01*
X29900953Y17362381D01*
X30329524Y16981429D02*
X30662858Y16981429D01*
X30805715Y16457619D02*
X30329524Y16457619D01*
X30329524Y17457619D01*
X30805715Y17457619D01*
X31710477Y16457619D02*
X31234286Y16457619D01*
X31234286Y17457619D01*
X32043810Y16981429D02*
X32377144Y16981429D01*
X32520001Y16457619D02*
X32043810Y16457619D01*
X32043810Y17457619D01*
X32520001Y17457619D01*
X33520001Y16457619D02*
X33186667Y16933810D01*
X32948572Y16457619D02*
X32948572Y17457619D01*
X33329525Y17457619D01*
X33424763Y17410000D01*
X33472382Y17362381D01*
X33520001Y17267143D01*
X33520001Y17124286D01*
X33472382Y17029048D01*
X33424763Y16981429D01*
X33329525Y16933810D01*
X32948572Y16933810D01*
X33948572Y16457619D02*
X33948572Y17457619D01*
X34281905Y17457619D02*
X34853334Y17457619D01*
X34567619Y16457619D02*
X34567619Y17457619D01*
X35377143Y17457619D02*
X35567620Y17457619D01*
X35662858Y17410000D01*
X35758096Y17314762D01*
X35805715Y17124286D01*
X35805715Y16790952D01*
X35758096Y16600476D01*
X35662858Y16505238D01*
X35567620Y16457619D01*
X35377143Y16457619D01*
X35281905Y16505238D01*
X35186667Y16600476D01*
X35139048Y16790952D01*
X35139048Y17124286D01*
X35186667Y17314762D01*
X35281905Y17410000D01*
X35377143Y17457619D01*
X36234286Y17457619D02*
X36234286Y16648095D01*
X36281905Y16552857D01*
X36329524Y16505238D01*
X36424762Y16457619D01*
X36615239Y16457619D01*
X36710477Y16505238D01*
X36758096Y16552857D01*
X36805715Y16648095D01*
X36805715Y17457619D01*
X37234286Y16505238D02*
X37377143Y16457619D01*
X37615239Y16457619D01*
X37710477Y16505238D01*
X37758096Y16552857D01*
X37805715Y16648095D01*
X37805715Y16743333D01*
X37758096Y16838571D01*
X37710477Y16886190D01*
X37615239Y16933810D01*
X37424762Y16981429D01*
X37329524Y17029048D01*
X37281905Y17076667D01*
X37234286Y17171905D01*
X37234286Y17267143D01*
X37281905Y17362381D01*
X37329524Y17410000D01*
X37424762Y17457619D01*
X37662858Y17457619D01*
X37805715Y17410000D01*
X38948572Y17362381D02*
X38996191Y17410000D01*
X39091429Y17457619D01*
X39329525Y17457619D01*
X39424763Y17410000D01*
X39472382Y17362381D01*
X39520001Y17267143D01*
X39520001Y17171905D01*
X39472382Y17029048D01*
X38900953Y16457619D01*
X39520001Y16457619D01*
X40139048Y17457619D02*
X40234287Y17457619D01*
X40329525Y17410000D01*
X40377144Y17362381D01*
X40424763Y17267143D01*
X40472382Y17076667D01*
X40472382Y16838571D01*
X40424763Y16648095D01*
X40377144Y16552857D01*
X40329525Y16505238D01*
X40234287Y16457619D01*
X40139048Y16457619D01*
X40043810Y16505238D01*
X39996191Y16552857D01*
X39948572Y16648095D01*
X39900953Y16838571D01*
X39900953Y17076667D01*
X39948572Y17267143D01*
X39996191Y17362381D01*
X40043810Y17410000D01*
X40139048Y17457619D01*
X41424763Y16457619D02*
X40853334Y16457619D01*
X41139048Y16457619D02*
X41139048Y17457619D01*
X41043810Y17314762D01*
X40948572Y17219524D01*
X40853334Y17171905D01*
X41996191Y17029048D02*
X41900953Y17076667D01*
X41853334Y17124286D01*
X41805715Y17219524D01*
X41805715Y17267143D01*
X41853334Y17362381D01*
X41900953Y17410000D01*
X41996191Y17457619D01*
X42186668Y17457619D01*
X42281906Y17410000D01*
X42329525Y17362381D01*
X42377144Y17267143D01*
X42377144Y17219524D01*
X42329525Y17124286D01*
X42281906Y17076667D01*
X42186668Y17029048D01*
X41996191Y17029048D01*
X41900953Y16981429D01*
X41853334Y16933810D01*
X41805715Y16838571D01*
X41805715Y16648095D01*
X41853334Y16552857D01*
X41900953Y16505238D01*
X41996191Y16457619D01*
X42186668Y16457619D01*
X42281906Y16505238D01*
X42329525Y16552857D01*
X42377144Y16648095D01*
X42377144Y16838571D01*
X42329525Y16933810D01*
X42281906Y16981429D01*
X42186668Y17029048D01*
X14705714Y8181430D02*
X14705714Y8481430D01*
X15177143Y8610001D02*
X15177143Y8181430D01*
X14277143Y8181430D01*
X14277143Y8610001D01*
X14277143Y8910001D02*
X15177143Y9510001D01*
X14277143Y9510001D02*
X15177143Y8910001D01*
X14277143Y9724287D02*
X14277143Y10238573D01*
X15177143Y9981430D02*
X14277143Y9981430D01*
X15177143Y11910001D02*
X14277143Y11910001D01*
X15177143Y12338572D02*
X14277143Y12338572D01*
X15177143Y12852857D01*
X14277143Y12852857D01*
X14277143Y13152857D02*
X14277143Y13667143D01*
X15177143Y13410000D02*
X14277143Y13410000D01*
X39441429Y6657619D02*
X39679524Y5657619D01*
X39870001Y6371905D01*
X40060477Y5657619D01*
X40298572Y6657619D01*
X40679524Y5657619D02*
X40679524Y6657619D01*
X41060477Y6657619D01*
X41155715Y6610000D01*
X41203334Y6562381D01*
X41250953Y6467143D01*
X41250953Y6324286D01*
X41203334Y6229048D01*
X41155715Y6181429D01*
X41060477Y6133810D01*
X40679524Y6133810D01*
X33496667Y13287619D02*
X33496667Y14287619D01*
X33877620Y14287619D01*
X33972858Y14240000D01*
X34020477Y14192381D01*
X34068096Y14097143D01*
X34068096Y13954286D01*
X34020477Y13859048D01*
X33972858Y13811429D01*
X33877620Y13763810D01*
X33496667Y13763810D01*
X34401429Y14287619D02*
X34639524Y13287619D01*
X34830001Y14001905D01*
X35020477Y13287619D01*
X35258572Y14287619D01*
X36210953Y13287619D02*
X35877619Y13763810D01*
X35639524Y13287619D02*
X35639524Y14287619D01*
X36020477Y14287619D01*
X36115715Y14240000D01*
X36163334Y14192381D01*
X36210953Y14097143D01*
X36210953Y13954286D01*
X36163334Y13859048D01*
X36115715Y13811429D01*
X36020477Y13763810D01*
X35639524Y13763810D01*
X33165714Y11007619D02*
X33165714Y10198095D01*
X33213333Y10102857D01*
X33260952Y10055238D01*
X33356190Y10007619D01*
X33546667Y10007619D01*
X33641905Y10055238D01*
X33689524Y10102857D01*
X33737143Y10198095D01*
X33737143Y11007619D01*
X34165714Y10055238D02*
X34308571Y10007619D01*
X34546667Y10007619D01*
X34641905Y10055238D01*
X34689524Y10102857D01*
X34737143Y10198095D01*
X34737143Y10293333D01*
X34689524Y10388571D01*
X34641905Y10436190D01*
X34546667Y10483810D01*
X34356190Y10531429D01*
X34260952Y10579048D01*
X34213333Y10626667D01*
X34165714Y10721905D01*
X34165714Y10817143D01*
X34213333Y10912381D01*
X34260952Y10960000D01*
X34356190Y11007619D01*
X34594286Y11007619D01*
X34737143Y10960000D01*
X35165714Y10531429D02*
X35499048Y10531429D01*
X35641905Y10007619D02*
X35165714Y10007619D01*
X35165714Y11007619D01*
X35641905Y11007619D01*
X36641905Y10007619D02*
X36308571Y10483810D01*
X36070476Y10007619D02*
X36070476Y11007619D01*
X36451429Y11007619D01*
X36546667Y10960000D01*
X36594286Y10912381D01*
X36641905Y10817143D01*
X36641905Y10674286D01*
X36594286Y10579048D01*
X36546667Y10531429D01*
X36451429Y10483810D01*
X36070476Y10483810D01*
X46237619Y2667619D02*
X45904285Y3143810D01*
X45666190Y2667619D02*
X45666190Y3667619D01*
X46047143Y3667619D01*
X46142381Y3620000D01*
X46190000Y3572381D01*
X46237619Y3477143D01*
X46237619Y3334286D01*
X46190000Y3239048D01*
X46142381Y3191429D01*
X46047143Y3143810D01*
X45666190Y3143810D01*
X46666190Y3191429D02*
X46999524Y3191429D01*
X47142381Y2667619D02*
X46666190Y2667619D01*
X46666190Y3667619D01*
X47142381Y3667619D01*
X47523333Y2715238D02*
X47666190Y2667619D01*
X47904286Y2667619D01*
X47999524Y2715238D01*
X48047143Y2762857D01*
X48094762Y2858095D01*
X48094762Y2953333D01*
X48047143Y3048571D01*
X47999524Y3096190D01*
X47904286Y3143810D01*
X47713809Y3191429D01*
X47618571Y3239048D01*
X47570952Y3286667D01*
X47523333Y3381905D01*
X47523333Y3477143D01*
X47570952Y3572381D01*
X47618571Y3620000D01*
X47713809Y3667619D01*
X47951905Y3667619D01*
X48094762Y3620000D01*
X48523333Y3191429D02*
X48856667Y3191429D01*
X48999524Y2667619D02*
X48523333Y2667619D01*
X48523333Y3667619D01*
X48999524Y3667619D01*
X49285238Y3667619D02*
X49856667Y3667619D01*
X49570952Y2667619D02*
X49570952Y3667619D01*
X39966500Y13936000D02*
X39966500Y10936000D01*
X39966500Y10936000D02*
X38766500Y10936000D01*
X38766500Y10936000D02*
X38766500Y13936000D01*
X38766500Y13936000D02*
X39966500Y13936000D01*
X37166500Y13436000D02*
G75*
G03X37166500Y13436000I-100000J0D01*
G01*
X43232000Y9117000D02*
X42532000Y9117000D01*
X42532000Y9117000D02*
X42532000Y10517000D01*
X42532000Y10517000D02*
X43432000Y10517000D01*
X48532000Y9117000D02*
X45032000Y9117000D01*
X50332000Y16517000D02*
X52532000Y16517000D01*
X52532000Y16517000D02*
X52532000Y9117000D01*
X52532000Y9117000D02*
X50332000Y9117000D01*
X45032000Y16517000D02*
X48532000Y16517000D01*
X43432000Y15217000D02*
X42532000Y15217000D01*
X42532000Y15217000D02*
X42532000Y16517000D01*
X42532000Y16517000D02*
X43232000Y16517000D01*
D10*
X40630000Y2530000D02*
X50790000Y2530000D01*
X50790000Y2530000D02*
X50790000Y-10000D01*
X50790000Y-10000D02*
X40630000Y-10000D01*
D13*
X25390000Y-10000D02*
X40630000Y-10000D01*
X40630000Y2530000D02*
X25390000Y2530000D01*
X25390000Y-10000D02*
X-10000Y-10000D01*
D11*
X-10000Y-10000D02*
X-10000Y2530000D01*
X-10000Y2530000D02*
X25390000Y2530000D01*
D10*
X40630000Y20310000D02*
X50790000Y20310000D01*
X50790000Y20310000D02*
X50790000Y17770000D01*
X50790000Y17770000D02*
X40630000Y17770000D01*
D13*
X25390000Y17770000D02*
X40630000Y17770000D01*
X40630000Y20310000D02*
X25390000Y20310000D01*
X25390000Y17770000D02*
X-10000Y17770000D01*
D11*
X-10000Y17770000D02*
X-10000Y20310000D01*
X-10000Y20310000D02*
X25390000Y20310000D01*
X17790000Y17630000D02*
X17790000Y15090000D01*
X17790000Y15090000D02*
X7630000Y15090000D01*
X7630000Y15090000D02*
X7630000Y17630000D01*
X7630000Y17630000D02*
X17790000Y17630000D01*
D12*
X38554500Y15816000D02*
X41054500Y15816000D01*
X41054500Y15816000D02*
X41054500Y14516000D01*
X41054500Y14516000D02*
X38554500Y14516000D01*
X38554500Y14516000D02*
X38554500Y15816000D01*
X41520000Y8910000D02*
X39020000Y8910000D01*
X39020000Y8910000D02*
X39020000Y10210000D01*
X39020000Y10210000D02*
X41520000Y10210000D01*
X41520000Y10210000D02*
X41520000Y8910000D01*
D11*
X620000Y12810000D02*
X7120000Y12810000D01*
X7120000Y12810000D02*
X7120000Y9060000D01*
X7120000Y9060000D02*
X620000Y9060000D01*
X620000Y9060000D02*
X620000Y12810000D01*
D14*
X18306310Y7655285D02*
G75*
G03X18306310Y7655285I-224442J0D01*
G01*
D11*
X20617029Y9973223D02*
X20617029Y10326777D01*
X25213223Y14922971D02*
X25390000Y15099747D01*
X25390000Y15099747D02*
X25566777Y14922971D01*
X25566777Y5377029D02*
X25390000Y5200253D01*
X25390000Y5200253D02*
X25213223Y5377029D01*
X30162971Y9973223D02*
X30339747Y10150000D01*
X30339747Y10150000D02*
X30162971Y10326777D01*
D12*
X33220000Y12960000D02*
X36220000Y12960000D01*
X36220000Y12960000D02*
X36220000Y11260000D01*
X36220000Y11260000D02*
X33220000Y11260000D01*
X33220000Y11260000D02*
X33220000Y12960000D01*
X34425600Y12110000D02*
X35014400Y12450000D01*
X35014400Y12450000D02*
X35014400Y11770000D01*
X35014400Y11770000D02*
X34425600Y12110000D01*
X34425600Y12450000D02*
X34425600Y11770000D01*
X36220000Y14410000D02*
X33220000Y14410000D01*
X33220000Y14410000D02*
X33220000Y16110000D01*
X33220000Y16110000D02*
X36220000Y16110000D01*
X36220000Y16110000D02*
X36220000Y14410000D01*
X35014400Y15260000D02*
X34425600Y14920000D01*
X34425600Y14920000D02*
X34425600Y15600000D01*
X34425600Y15600000D02*
X35014400Y15260000D01*
X35014400Y14920000D02*
X35014400Y15600000D01*
D10*
X17420000Y2910000D02*
X13420000Y2910000D01*
X17420000Y5910000D02*
X13420000Y5910000D01*
X13420000Y5910000D02*
X13420000Y2910000D01*
X17420000Y2910000D02*
X17420000Y5910000D01*
X11070000Y7910000D02*
X11070000Y13910000D01*
X14070000Y13910000D02*
X14070000Y7910000D01*
X14070000Y13910000D02*
X11070000Y13910000D01*
X11070000Y7910000D02*
X14070000Y7910000D01*
D12*
X39020000Y5410000D02*
X36520000Y5410000D01*
X36520000Y5410000D02*
X36520000Y6710000D01*
X36520000Y6710000D02*
X39020000Y6710000D01*
X39020000Y6710000D02*
X39020000Y5410000D01*
X36520000Y5210000D02*
X39020000Y5210000D01*
X39020000Y5210000D02*
X39020000Y3910000D01*
X39020000Y3910000D02*
X36520000Y3910000D01*
X36520000Y3910000D02*
X36520000Y5210000D01*
X41520000Y7310000D02*
X39020000Y7310000D01*
X39020000Y7310000D02*
X39020000Y8610000D01*
X39020000Y8610000D02*
X41520000Y8610000D01*
X41520000Y8610000D02*
X41520000Y7310000D01*
D11*
X10390000Y13807000D02*
X10517000Y13807000D01*
X10517000Y13807000D02*
X10517000Y10886000D01*
X10517000Y10886000D02*
X10390000Y10886000D01*
X7850000Y10886000D02*
X7723000Y10886000D01*
X7723000Y10886000D02*
X7723000Y13807000D01*
X7723000Y13807000D02*
X7850000Y13807000D01*
X10267000Y3190000D02*
X10267000Y3063000D01*
X10267000Y3063000D02*
X7346000Y3063000D01*
X7346000Y3063000D02*
X7346000Y3190000D01*
X7346000Y5730000D02*
X7346000Y5857000D01*
X7346000Y5857000D02*
X10267000Y5857000D01*
X10267000Y5857000D02*
X10267000Y5730000D01*
X18764975Y8403503D02*
X18199289Y8969188D01*
X18199289Y8969188D02*
X16360812Y7130711D01*
X16360812Y7130711D02*
X16926497Y6565025D01*
X16926497Y6565025D02*
X18764975Y8403503D01*
D15*
X3320000Y15660000D02*
X3320000Y17460000D01*
D11*
X5420000Y17460000D02*
X5420000Y17560000D01*
X5420000Y17560000D02*
X2420000Y17560000D01*
X2420000Y17560000D02*
X2420000Y17460000D01*
X5420000Y15660000D02*
X5420000Y15560000D01*
X5420000Y15560000D02*
X2420000Y15560000D01*
X2420000Y15560000D02*
X2420000Y15660000D01*
D15*
X3220000Y5860000D02*
X3220000Y4060000D01*
D11*
X1120000Y4060000D02*
X1120000Y3960000D01*
X1120000Y3960000D02*
X4120000Y3960000D01*
X4120000Y3960000D02*
X4120000Y4060000D01*
X1120000Y5860000D02*
X1120000Y5960000D01*
X1120000Y5960000D02*
X4120000Y5960000D01*
X4120000Y5960000D02*
X4120000Y5860000D01*
D10*
X37216428Y13970714D02*
X37216428Y14720714D01*
X37395000Y14720714D01*
X37502143Y14685000D01*
X37573571Y14613571D01*
X37609286Y14542143D01*
X37645000Y14399286D01*
X37645000Y14292143D01*
X37609286Y14149286D01*
X37573571Y14077857D01*
X37502143Y14006429D01*
X37395000Y13970714D01*
X37216428Y13970714D01*
X37930714Y14649286D02*
X37966428Y14685000D01*
X38037857Y14720714D01*
X38216428Y14720714D01*
X38287857Y14685000D01*
X38323571Y14649286D01*
X38359286Y14577857D01*
X38359286Y14506429D01*
X38323571Y14399286D01*
X37895000Y13970714D01*
X38359286Y13970714D01*
X46857000Y8782714D02*
X46857000Y8247000D01*
X46821286Y8139857D01*
X46749857Y8068429D01*
X46642714Y8032714D01*
X46571286Y8032714D01*
X47607001Y8032714D02*
X47178429Y8032714D01*
X47392715Y8032714D02*
X47392715Y8782714D01*
X47321286Y8675571D01*
X47249858Y8604143D01*
X47178429Y8568429D01*
X803334Y2893333D02*
X803334Y3593333D01*
X1070000Y3593333D01*
X1136667Y3560000D01*
X1170000Y3526667D01*
X1203334Y3460000D01*
X1203334Y3360000D01*
X1170000Y3293333D01*
X1136667Y3260000D01*
X1070000Y3226667D01*
X803334Y3226667D01*
X1870000Y2893333D02*
X1470000Y2893333D01*
X1670000Y2893333D02*
X1670000Y3593333D01*
X1603334Y3493333D01*
X1536667Y3426667D01*
X1470000Y3393333D01*
X666428Y16770714D02*
X666428Y17520714D01*
X952143Y17520714D01*
X1023571Y17485000D01*
X1059286Y17449286D01*
X1095000Y17377857D01*
X1095000Y17270714D01*
X1059286Y17199286D01*
X1023571Y17163571D01*
X952143Y17127857D01*
X666428Y17127857D01*
X1380714Y17449286D02*
X1416428Y17485000D01*
X1487857Y17520714D01*
X1666428Y17520714D01*
X1737857Y17485000D01*
X1773571Y17449286D01*
X1809286Y17377857D01*
X1809286Y17306429D01*
X1773571Y17199286D01*
X1345000Y16770714D01*
X1809286Y16770714D01*
X18153334Y16093333D02*
X18153334Y16793333D01*
X18420000Y16793333D01*
X18486667Y16760000D01*
X18520000Y16726667D01*
X18553334Y16660000D01*
X18553334Y16560000D01*
X18520000Y16493333D01*
X18486667Y16460000D01*
X18420000Y16426667D01*
X18153334Y16426667D01*
X18786667Y16793333D02*
X19220000Y16793333D01*
X18986667Y16526667D01*
X19086667Y16526667D01*
X19153334Y16493333D01*
X19186667Y16460000D01*
X19220000Y16393333D01*
X19220000Y16226667D01*
X19186667Y16160000D01*
X19153334Y16126667D01*
X19086667Y16093333D01*
X18886667Y16093333D01*
X18820000Y16126667D01*
X18786667Y16160000D01*
X41695000Y14970714D02*
X41445000Y15327857D01*
X41266428Y14970714D02*
X41266428Y15720714D01*
X41552143Y15720714D01*
X41623571Y15685000D01*
X41659286Y15649286D01*
X41695000Y15577857D01*
X41695000Y15470714D01*
X41659286Y15399286D01*
X41623571Y15363571D01*
X41552143Y15327857D01*
X41266428Y15327857D01*
X42409286Y14970714D02*
X41980714Y14970714D01*
X42195000Y14970714D02*
X42195000Y15720714D01*
X42123571Y15613571D01*
X42052143Y15542143D01*
X41980714Y15506429D01*
X38195000Y9220714D02*
X37945000Y9577857D01*
X37766428Y9220714D02*
X37766428Y9970714D01*
X38052143Y9970714D01*
X38123571Y9935000D01*
X38159286Y9899286D01*
X38195000Y9827857D01*
X38195000Y9720714D01*
X38159286Y9649286D01*
X38123571Y9613571D01*
X38052143Y9577857D01*
X37766428Y9577857D01*
X38480714Y9899286D02*
X38516428Y9935000D01*
X38587857Y9970714D01*
X38766428Y9970714D01*
X38837857Y9935000D01*
X38873571Y9899286D01*
X38909286Y9827857D01*
X38909286Y9756429D01*
X38873571Y9649286D01*
X38445000Y9220714D01*
X38909286Y9220714D01*
X250571Y14062714D02*
X250571Y13455571D01*
X286286Y13384143D01*
X322000Y13348429D01*
X393429Y13312714D01*
X536286Y13312714D01*
X607714Y13348429D01*
X643429Y13384143D01*
X679143Y13455571D01*
X679143Y14062714D01*
X1429143Y13312714D02*
X1000571Y13312714D01*
X1214857Y13312714D02*
X1214857Y14062714D01*
X1143428Y13955571D01*
X1072000Y13884143D01*
X1000571Y13848429D01*
X18282020Y9845857D02*
X18711335Y9416542D01*
X18787096Y9391289D01*
X18837604Y9391289D01*
X18913366Y9416543D01*
X19014381Y9517558D01*
X19039634Y9593320D01*
X19039635Y9643828D01*
X19014381Y9719589D01*
X18585066Y10148904D01*
X18862857Y10325680D02*
X18862857Y10376187D01*
X18888112Y10451949D01*
X19014380Y10578218D01*
X19090142Y10603472D01*
X19140649Y10603472D01*
X19216411Y10578218D01*
X19266919Y10527711D01*
X19317426Y10426695D01*
X19317427Y9820604D01*
X19645726Y10148904D01*
X31866428Y11720714D02*
X31866428Y12470714D01*
X32045000Y12470714D01*
X32152143Y12435000D01*
X32223571Y12363571D01*
X32259286Y12292143D01*
X32295000Y12149286D01*
X32295000Y12042143D01*
X32259286Y11899286D01*
X32223571Y11827857D01*
X32152143Y11756429D01*
X32045000Y11720714D01*
X31866428Y11720714D01*
X32937857Y12220714D02*
X32937857Y11720714D01*
X32759286Y12506429D02*
X32580714Y11970714D01*
X33045000Y11970714D01*
X32781905Y12983810D02*
X32858095Y12983810D01*
X32934286Y12945714D01*
X32972381Y12869524D01*
X32972381Y12793333D01*
X32934286Y12717143D01*
X32858095Y12679048D01*
X32781905Y12679048D01*
X32705714Y12717143D01*
X32667619Y12793333D01*
X32667619Y12869524D01*
X32705714Y12945714D01*
X32781905Y12983810D01*
X36416428Y14820714D02*
X36416428Y15570714D01*
X36595000Y15570714D01*
X36702143Y15535000D01*
X36773571Y15463571D01*
X36809286Y15392143D01*
X36845000Y15249286D01*
X36845000Y15142143D01*
X36809286Y14999286D01*
X36773571Y14927857D01*
X36702143Y14856429D01*
X36595000Y14820714D01*
X36416428Y14820714D01*
X37523571Y15570714D02*
X37166428Y15570714D01*
X37130714Y15213571D01*
X37166428Y15249286D01*
X37237857Y15285000D01*
X37416428Y15285000D01*
X37487857Y15249286D01*
X37523571Y15213571D01*
X37559286Y15142143D01*
X37559286Y14963571D01*
X37523571Y14892143D01*
X37487857Y14856429D01*
X37416428Y14820714D01*
X37237857Y14820714D01*
X37166428Y14856429D01*
X37130714Y14892143D01*
X36581905Y14633810D02*
X36658095Y14633810D01*
X36734286Y14595714D01*
X36772381Y14519524D01*
X36772381Y14443333D01*
X36734286Y14367143D01*
X36658095Y14329048D01*
X36581905Y14329048D01*
X36505714Y14367143D01*
X36467619Y14443333D01*
X36467619Y14519524D01*
X36505714Y14595714D01*
X36581905Y14633810D01*
X14916428Y6070714D02*
X14916428Y6820714D01*
X15202143Y6820714D01*
X15273571Y6785000D01*
X15309286Y6749286D01*
X15345000Y6677857D01*
X15345000Y6570714D01*
X15309286Y6499286D01*
X15273571Y6463571D01*
X15202143Y6427857D01*
X14916428Y6427857D01*
X15987857Y6570714D02*
X15987857Y6070714D01*
X15809286Y6856429D02*
X15630714Y6320714D01*
X16095000Y6320714D01*
X12016428Y6970714D02*
X12016428Y7720714D01*
X12302143Y7720714D01*
X12373571Y7685000D01*
X12409286Y7649286D01*
X12445000Y7577857D01*
X12445000Y7470714D01*
X12409286Y7399286D01*
X12373571Y7363571D01*
X12302143Y7327857D01*
X12016428Y7327857D01*
X13123571Y7720714D02*
X12766428Y7720714D01*
X12730714Y7363571D01*
X12766428Y7399286D01*
X12837857Y7435000D01*
X13016428Y7435000D01*
X13087857Y7399286D01*
X13123571Y7363571D01*
X13159286Y7292143D01*
X13159286Y7113571D01*
X13123571Y7042143D01*
X13087857Y7006429D01*
X13016428Y6970714D01*
X12837857Y6970714D01*
X12766428Y7006429D01*
X12730714Y7042143D01*
X10934286Y8470714D02*
X10505714Y8470714D01*
X10720000Y8470714D02*
X10720000Y9220714D01*
X10648571Y9113571D01*
X10577143Y9042143D01*
X10505714Y9006429D01*
X42150000Y5396429D02*
X42257143Y5360714D01*
X42435714Y5360714D01*
X42507143Y5396429D01*
X42542857Y5432143D01*
X42578572Y5503571D01*
X42578572Y5575000D01*
X42542857Y5646429D01*
X42507143Y5682143D01*
X42435714Y5717857D01*
X42292857Y5753571D01*
X42221429Y5789286D01*
X42185714Y5825000D01*
X42150000Y5896429D01*
X42150000Y5967857D01*
X42185714Y6039286D01*
X42221429Y6075000D01*
X42292857Y6110714D01*
X42471429Y6110714D01*
X42578572Y6075000D01*
X42828572Y6110714D02*
X43007143Y5360714D01*
X43150000Y5896429D01*
X43292858Y5360714D01*
X43471429Y6110714D01*
X44150001Y5360714D02*
X43721429Y5360714D01*
X43935715Y5360714D02*
X43935715Y6110714D01*
X43864286Y6003571D01*
X43792858Y5932143D01*
X43721429Y5896429D01*
D16*
X35461666Y5715952D02*
X35245000Y6025476D01*
X35090238Y5715952D02*
X35090238Y6365952D01*
X35337857Y6365952D01*
X35399762Y6335000D01*
X35430714Y6304048D01*
X35461666Y6242143D01*
X35461666Y6149286D01*
X35430714Y6087381D01*
X35399762Y6056429D01*
X35337857Y6025476D01*
X35090238Y6025476D01*
X35678333Y6365952D02*
X36111666Y6365952D01*
X35833095Y5715952D01*
X35461666Y4165952D02*
X35245000Y4475476D01*
X35090238Y4165952D02*
X35090238Y4815952D01*
X35337857Y4815952D01*
X35399762Y4785000D01*
X35430714Y4754048D01*
X35461666Y4692143D01*
X35461666Y4599286D01*
X35430714Y4537381D01*
X35399762Y4506429D01*
X35337857Y4475476D01*
X35090238Y4475476D01*
X35833095Y4537381D02*
X35771190Y4568333D01*
X35740238Y4599286D01*
X35709286Y4661190D01*
X35709286Y4692143D01*
X35740238Y4754048D01*
X35771190Y4785000D01*
X35833095Y4815952D01*
X35956905Y4815952D01*
X36018809Y4785000D01*
X36049762Y4754048D01*
X36080714Y4692143D01*
X36080714Y4661190D01*
X36049762Y4599286D01*
X36018809Y4568333D01*
X35956905Y4537381D01*
X35833095Y4537381D01*
X35771190Y4506429D01*
X35740238Y4475476D01*
X35709286Y4413571D01*
X35709286Y4289762D01*
X35740238Y4227857D01*
X35771190Y4196905D01*
X35833095Y4165952D01*
X35956905Y4165952D01*
X36018809Y4196905D01*
X36049762Y4227857D01*
X36080714Y4289762D01*
X36080714Y4413571D01*
X36049762Y4475476D01*
X36018809Y4506429D01*
X35956905Y4537381D01*
X38161666Y7565952D02*
X37945000Y7875476D01*
X37790238Y7565952D02*
X37790238Y8215952D01*
X38037857Y8215952D01*
X38099762Y8185000D01*
X38130714Y8154048D01*
X38161666Y8092143D01*
X38161666Y7999286D01*
X38130714Y7937381D01*
X38099762Y7906429D01*
X38037857Y7875476D01*
X37790238Y7875476D01*
X38471190Y7565952D02*
X38595000Y7565952D01*
X38656905Y7596905D01*
X38687857Y7627857D01*
X38749762Y7720714D01*
X38780714Y7844524D01*
X38780714Y8092143D01*
X38749762Y8154048D01*
X38718809Y8185000D01*
X38656905Y8215952D01*
X38533095Y8215952D01*
X38471190Y8185000D01*
X38440238Y8154048D01*
X38409286Y8092143D01*
X38409286Y7937381D01*
X38440238Y7875476D01*
X38471190Y7844524D01*
X38533095Y7813571D01*
X38656905Y7813571D01*
X38718809Y7844524D01*
X38749762Y7875476D01*
X38780714Y7937381D01*
D10*
X7853334Y8960000D02*
X7820000Y8926667D01*
X7720000Y8893333D01*
X7653334Y8893333D01*
X7553334Y8926667D01*
X7486667Y8993333D01*
X7453334Y9060000D01*
X7420000Y9193333D01*
X7420000Y9293333D01*
X7453334Y9426667D01*
X7486667Y9493333D01*
X7553334Y9560000D01*
X7653334Y9593333D01*
X7720000Y9593333D01*
X7820000Y9560000D01*
X7853334Y9526667D01*
X8120000Y9526667D02*
X8153334Y9560000D01*
X8220000Y9593333D01*
X8386667Y9593333D01*
X8453334Y9560000D01*
X8486667Y9526667D01*
X8520000Y9460000D01*
X8520000Y9393333D01*
X8486667Y9293333D01*
X8086667Y8893333D01*
X8520000Y8893333D01*
D11*
X9064429Y8981048D02*
X9064429Y9742953D01*
X9445381Y9362001D02*
X8683476Y9362001D01*
D10*
X5653334Y5360000D02*
X5620000Y5326667D01*
X5520000Y5293333D01*
X5453334Y5293333D01*
X5353334Y5326667D01*
X5286667Y5393333D01*
X5253334Y5460000D01*
X5220000Y5593333D01*
X5220000Y5693333D01*
X5253334Y5826667D01*
X5286667Y5893333D01*
X5353334Y5960000D01*
X5453334Y5993333D01*
X5520000Y5993333D01*
X5620000Y5960000D01*
X5653334Y5926667D01*
X6320000Y5293333D02*
X5920000Y5293333D01*
X6120000Y5293333D02*
X6120000Y5993333D01*
X6053334Y5893333D01*
X5986667Y5826667D01*
X5920000Y5793333D01*
D11*
X5441048Y4515571D02*
X6202953Y4515571D01*
X5822001Y4134619D02*
X5822001Y4896524D01*
D10*
X18978579Y5720745D02*
X18483605Y6215719D01*
X18601455Y6333570D01*
X18695736Y6380711D01*
X18790017Y6380711D01*
X18860727Y6357141D01*
X18978579Y6286430D01*
X19049290Y6215719D01*
X19120000Y6097868D01*
X19143571Y6027157D01*
X19143570Y5932877D01*
X19096430Y5838595D01*
X18978579Y5720745D01*
X19261422Y6569273D02*
X19190711Y6545703D01*
X19143571Y6545703D01*
X19072859Y6569273D01*
X19049289Y6592843D01*
X19025719Y6663554D01*
X19025719Y6710694D01*
X19049290Y6781405D01*
X19143571Y6875685D01*
X19214281Y6899256D01*
X19261421Y6899256D01*
X19332132Y6875685D01*
X19355702Y6852115D01*
X19379273Y6781405D01*
X19379273Y6734265D01*
X19355703Y6663553D01*
X19261422Y6569273D01*
X19237851Y6498562D01*
X19237851Y6451422D01*
X19261421Y6380711D01*
X19355702Y6286430D01*
X19426413Y6262860D01*
X19473553Y6262860D01*
X19544265Y6286430D01*
X19638545Y6380711D01*
X19662115Y6451422D01*
X19662115Y6498562D01*
X19638545Y6569273D01*
X19544264Y6663553D01*
X19473553Y6687124D01*
X19426413Y6687124D01*
X19355703Y6663553D01*
X6216428Y16120714D02*
X6216428Y16870714D01*
X6395000Y16870714D01*
X6502143Y16835000D01*
X6573571Y16763571D01*
X6609286Y16692143D01*
X6645000Y16549286D01*
X6645000Y16442143D01*
X6609286Y16299286D01*
X6573571Y16227857D01*
X6502143Y16156429D01*
X6395000Y16120714D01*
X6216428Y16120714D01*
X6895000Y16870714D02*
X7359286Y16870714D01*
X7109286Y16585000D01*
X7216428Y16585000D01*
X7287857Y16549286D01*
X7323571Y16513571D01*
X7359286Y16442143D01*
X7359286Y16263571D01*
X7323571Y16192143D01*
X7287857Y16156429D01*
X7216428Y16120714D01*
X7002143Y16120714D01*
X6930714Y16156429D01*
X6895000Y16192143D01*
X2266428Y3020714D02*
X2266428Y3770714D01*
X2445000Y3770714D01*
X2552143Y3735000D01*
X2623571Y3663571D01*
X2659286Y3592143D01*
X2695000Y3449286D01*
X2695000Y3342143D01*
X2659286Y3199286D01*
X2623571Y3127857D01*
X2552143Y3056429D01*
X2445000Y3020714D01*
X2266428Y3020714D01*
X3409286Y3020714D02*
X2980714Y3020714D01*
X3195000Y3020714D02*
X3195000Y3770714D01*
X3123571Y3663571D01*
X3052143Y3592143D01*
X2980714Y3556429D01*
M02*
