G04 #@! TF.FileFunction,Soldermask,Top*
%FSLAX46Y46*%
G04 Gerber Fmt 4.6, Leading zero omitted, Abs format (unit mm)*
G04 Created by KiCad (PCBNEW 4.0.7) date 07/03/18 10:44:51*
%MOMM*%
%LPD*%
G01*
G04 APERTURE LIST*
%ADD10C,0.100000*%
%ADD11R,1.400000X1.100000*%
%ADD12R,2.400000X0.900000*%
%ADD13C,1.300000*%
%ADD14C,1.900000*%
%ADD15R,1.924000X1.924000*%
%ADD16C,1.924000*%
%ADD17R,2.000000X2.000000*%
%ADD18C,2.000000*%
%ADD19R,1.000000X1.300000*%
%ADD20R,1.400000X1.900000*%
%ADD21R,4.400000X1.900000*%
%ADD22C,0.600000*%
%ADD23R,1.100000X1.700000*%
%ADD24R,1.800000X1.800000*%
%ADD25C,1.800000*%
%ADD26C,1.200000*%
%ADD27R,1.400000X1.800000*%
%ADD28R,1.550000X1.150000*%
%ADD29R,2.650000X2.200000*%
%ADD30R,2.200000X2.650000*%
%ADD31R,1.600000X1.900000*%
%ADD32C,2.940000*%
G04 APERTURE END LIST*
D10*
D11*
X38166500Y13386000D03*
X38166500Y12436000D03*
X38166500Y11486000D03*
X40566500Y11486000D03*
X40566500Y12436000D03*
X40566500Y13386000D03*
D12*
X43882000Y12817000D03*
X43882000Y13617000D03*
X43882000Y14417000D03*
X43882000Y11217000D03*
X43882000Y12017000D03*
D13*
X46132000Y11067000D03*
X46132000Y14567000D03*
D14*
X44132000Y9167000D03*
X44132000Y16467000D03*
X49432000Y9167000D03*
X49432000Y16467000D03*
D15*
X1260000Y1260000D03*
D16*
X3800000Y1260000D03*
X6340000Y1260000D03*
X8880000Y1260000D03*
X11420000Y1260000D03*
X13960000Y1260000D03*
X16500000Y1260000D03*
X19040000Y1260000D03*
X21580000Y1260000D03*
X24120000Y1260000D03*
X26660000Y1260000D03*
X29200000Y1260000D03*
X31740000Y1260000D03*
X34280000Y1260000D03*
X36820000Y1260000D03*
X39360000Y1260000D03*
X41900000Y1260000D03*
X44440000Y1260000D03*
X46980000Y1260000D03*
X49520000Y1260000D03*
D15*
X1260000Y19040000D03*
D16*
X3800000Y19040000D03*
X6340000Y19040000D03*
X8880000Y19040000D03*
X11420000Y19040000D03*
X13960000Y19040000D03*
X16500000Y19040000D03*
X19040000Y19040000D03*
X21580000Y19040000D03*
X24120000Y19040000D03*
X26660000Y19040000D03*
X29200000Y19040000D03*
X31740000Y19040000D03*
X34280000Y19040000D03*
X36820000Y19040000D03*
X39360000Y19040000D03*
X41900000Y19040000D03*
X44440000Y19040000D03*
X46980000Y19040000D03*
X49520000Y19040000D03*
D17*
X16520000Y16360000D03*
D18*
X13980000Y16360000D03*
X11440000Y16360000D03*
X8900000Y16360000D03*
D19*
X39054500Y15166000D03*
X40554500Y15166000D03*
X41020000Y9560000D03*
X39520000Y9560000D03*
D20*
X1330000Y7810000D03*
X3870000Y7810000D03*
X6410000Y7810000D03*
D21*
X3870000Y14310000D03*
D22*
X19662435Y8311523D02*
X20369541Y9018629D01*
X20015989Y7957969D02*
X20723095Y8665075D01*
X20369542Y7604416D02*
X21076648Y8311522D01*
X20723096Y7250863D02*
X21430202Y7957969D01*
X21076649Y6897309D02*
X21783755Y7604415D01*
X21430202Y6543756D02*
X22137308Y7250862D01*
X21783756Y6190202D02*
X22490862Y6897308D01*
X22137309Y5836649D02*
X22844415Y6543755D01*
X22490863Y5483096D02*
X23197969Y6190202D01*
X22844416Y5129542D02*
X23551522Y5836648D01*
X23197969Y4775989D02*
X23905075Y5483095D01*
X23551523Y4422435D02*
X24258629Y5129541D01*
X26521371Y5129541D02*
X27228477Y4422435D01*
X26874925Y5483095D02*
X27582031Y4775989D01*
X27228478Y5836648D02*
X27935584Y5129542D01*
X27582031Y6190202D02*
X28289137Y5483096D01*
X27935585Y6543755D02*
X28642691Y5836649D01*
X28289138Y6897308D02*
X28996244Y6190202D01*
X28642692Y7250862D02*
X29349798Y6543756D01*
X28996245Y7604415D02*
X29703351Y6897309D01*
X29349798Y7957969D02*
X30056904Y7250863D01*
X29703352Y8311522D02*
X30410458Y7604416D01*
X30056905Y8665075D02*
X30764011Y7957969D01*
X30410459Y9018629D02*
X31117565Y8311523D01*
X30410459Y11281371D02*
X31117565Y11988477D01*
X30056905Y11634925D02*
X30764011Y12342031D01*
X29703352Y11988478D02*
X30410458Y12695584D01*
X29349798Y12342031D02*
X30056904Y13049137D01*
X28996245Y12695585D02*
X29703351Y13402691D01*
X28642692Y13049138D02*
X29349798Y13756244D01*
X28289138Y13402692D02*
X28996244Y14109798D01*
X27935585Y13756245D02*
X28642691Y14463351D01*
X27582031Y14109798D02*
X28289137Y14816904D01*
X27228478Y14463352D02*
X27935584Y15170458D01*
X26874925Y14816905D02*
X27582031Y15524011D01*
X26521371Y15170459D02*
X27228477Y15877565D01*
X23551523Y15877565D02*
X24258629Y15170459D01*
X23197969Y15524011D02*
X23905075Y14816905D01*
X22844416Y15170458D02*
X23551522Y14463352D01*
X22490863Y14816904D02*
X23197969Y14109798D01*
X22137309Y14463351D02*
X22844415Y13756245D01*
X21783756Y14109798D02*
X22490862Y13402692D01*
X21430202Y13756244D02*
X22137308Y13049138D01*
X21076649Y13402691D02*
X21783755Y12695585D01*
X20723096Y13049137D02*
X21430202Y12342031D01*
X20369542Y12695584D02*
X21076648Y11988478D01*
X20015989Y12342031D02*
X20723095Y11634925D01*
X19662435Y11988477D02*
X20369541Y11281371D01*
D23*
X33770000Y12110000D03*
X35670000Y12110000D03*
X35670000Y15260000D03*
X33770000Y15260000D03*
D24*
X16420000Y4410000D03*
D25*
X14420000Y4410000D03*
D24*
X12570000Y8910000D03*
D25*
X12570000Y10910000D03*
X12570000Y12910000D03*
D26*
X47615000Y4805000D03*
X47615000Y6605000D03*
D27*
X49715000Y5705000D03*
X45515000Y5705000D03*
D28*
X49165000Y4205000D03*
X46065000Y4205000D03*
X46065000Y7205000D03*
X49165000Y7205000D03*
D19*
X38520000Y6060000D03*
X37020000Y6060000D03*
X37020000Y4560000D03*
X38520000Y4560000D03*
X41020000Y7960000D03*
X39520000Y7960000D03*
D29*
X9120000Y10960000D03*
X9120000Y13860000D03*
D30*
X7420000Y4460000D03*
X10320000Y4460000D03*
D10*
G36*
X18199289Y7979239D02*
X19189239Y6989289D01*
X18340711Y6140761D01*
X17350761Y7130711D01*
X18199289Y7979239D01*
X18199289Y7979239D01*
G37*
G36*
X17456827Y10065204D02*
X18446777Y9075254D01*
X17598249Y8226726D01*
X16608299Y9216676D01*
X17456827Y10065204D01*
X17456827Y10065204D01*
G37*
G36*
X16113324Y8721701D02*
X17103274Y7731751D01*
X16254746Y6883223D01*
X15264796Y7873173D01*
X16113324Y8721701D01*
X16113324Y8721701D01*
G37*
D31*
X5320000Y16560000D03*
X2520000Y16560000D03*
X1220000Y4960000D03*
X4020000Y4960000D03*
D32*
X48800000Y12800000D03*
X9300000Y7600000D03*
M02*
